%TF.GenerationSoftware,KiCad,Pcbnew,(5.0.0)*%
%TF.CreationDate,2019-06-06T16:06:28-05:00*%
%TF.ProjectId,Gun board,47756E20626F6172642E6B696361645F,rev?*%
%TF.SameCoordinates,Original*%
%TF.FileFunction,Copper,L1,Top,Signal*%
%TF.FilePolarity,Positive*%
%FSLAX46Y46*%
G04 Gerber Fmt 4.6, Leading zero omitted, Abs format (unit mm)*
G04 Created by KiCad (PCBNEW (5.0.0)) date 06/06/19 16:06:28*
%MOMM*%
%LPD*%
G01*
G04 APERTURE LIST*
%ADD10C,0.200000*%
%ADD11R,1.524000X1.524000*%
%ADD12C,1.524000*%
%ADD13C,0.100000*%
%ADD14C,1.200000*%
%ADD15O,1.750000X1.200000*%
%ADD16C,1.600000*%
%ADD17C,0.975000*%
%ADD18C,2.500000*%
%ADD19R,1.200000X0.900000*%
%ADD20C,1.800000*%
%ADD21R,1.800000X1.800000*%
%ADD22O,1.700000X1.700000*%
%ADD23R,1.700000X1.700000*%
%ADD24O,1.200000X1.750000*%
%ADD25O,1.050000X1.500000*%
%ADD26R,1.050000X1.500000*%
%ADD27R,1.060000X0.650000*%
%ADD28R,2.000000X3.800000*%
%ADD29R,2.000000X1.500000*%
%ADD30R,0.650000X1.060000*%
%ADD31R,1.900000X1.500000*%
%ADD32R,1.550000X0.600000*%
%ADD33C,0.800000*%
%ADD34C,0.250000*%
%ADD35C,0.152400*%
%ADD36C,0.254000*%
G04 APERTURE END LIST*
D10*
X200660000Y-101600000D02*
X200660000Y-21590000D01*
X101600000Y-21590000D02*
X101600000Y-101600000D01*
X200660000Y-21590000D02*
X101600000Y-21590000D01*
X101600000Y-101600000D02*
X200660000Y-101600000D01*
D11*
X114300000Y-66040000D03*
D12*
X114300000Y-63500000D03*
X116840000Y-66040000D03*
X116840000Y-63500000D03*
X119380000Y-66040000D03*
X119380000Y-63500000D03*
X121920000Y-66040000D03*
X121920000Y-63500000D03*
D13*
G36*
X193689505Y-92111204D02*
X193713773Y-92114804D01*
X193737572Y-92120765D01*
X193760671Y-92129030D01*
X193782850Y-92139520D01*
X193803893Y-92152132D01*
X193823599Y-92166747D01*
X193841777Y-92183223D01*
X193858253Y-92201401D01*
X193872868Y-92221107D01*
X193885480Y-92242150D01*
X193895970Y-92264329D01*
X193904235Y-92287428D01*
X193910196Y-92311227D01*
X193913796Y-92335495D01*
X193915000Y-92359999D01*
X193915000Y-93060001D01*
X193913796Y-93084505D01*
X193910196Y-93108773D01*
X193904235Y-93132572D01*
X193895970Y-93155671D01*
X193885480Y-93177850D01*
X193872868Y-93198893D01*
X193858253Y-93218599D01*
X193841777Y-93236777D01*
X193823599Y-93253253D01*
X193803893Y-93267868D01*
X193782850Y-93280480D01*
X193760671Y-93290970D01*
X193737572Y-93299235D01*
X193713773Y-93305196D01*
X193689505Y-93308796D01*
X193665001Y-93310000D01*
X192414999Y-93310000D01*
X192390495Y-93308796D01*
X192366227Y-93305196D01*
X192342428Y-93299235D01*
X192319329Y-93290970D01*
X192297150Y-93280480D01*
X192276107Y-93267868D01*
X192256401Y-93253253D01*
X192238223Y-93236777D01*
X192221747Y-93218599D01*
X192207132Y-93198893D01*
X192194520Y-93177850D01*
X192184030Y-93155671D01*
X192175765Y-93132572D01*
X192169804Y-93108773D01*
X192166204Y-93084505D01*
X192165000Y-93060001D01*
X192165000Y-92359999D01*
X192166204Y-92335495D01*
X192169804Y-92311227D01*
X192175765Y-92287428D01*
X192184030Y-92264329D01*
X192194520Y-92242150D01*
X192207132Y-92221107D01*
X192221747Y-92201401D01*
X192238223Y-92183223D01*
X192256401Y-92166747D01*
X192276107Y-92152132D01*
X192297150Y-92139520D01*
X192319329Y-92129030D01*
X192342428Y-92120765D01*
X192366227Y-92114804D01*
X192390495Y-92111204D01*
X192414999Y-92110000D01*
X193665001Y-92110000D01*
X193689505Y-92111204D01*
X193689505Y-92111204D01*
G37*
D14*
X193040000Y-92710000D03*
D15*
X193040000Y-90710000D03*
D13*
G36*
X180684504Y-80481204D02*
X180708773Y-80484804D01*
X180732571Y-80490765D01*
X180755671Y-80499030D01*
X180777849Y-80509520D01*
X180798893Y-80522133D01*
X180818598Y-80536747D01*
X180836777Y-80553223D01*
X180853253Y-80571402D01*
X180867867Y-80591107D01*
X180880480Y-80612151D01*
X180890970Y-80634329D01*
X180899235Y-80657429D01*
X180905196Y-80681227D01*
X180908796Y-80705496D01*
X180910000Y-80730000D01*
X180910000Y-81830000D01*
X180908796Y-81854504D01*
X180905196Y-81878773D01*
X180899235Y-81902571D01*
X180890970Y-81925671D01*
X180880480Y-81947849D01*
X180867867Y-81968893D01*
X180853253Y-81988598D01*
X180836777Y-82006777D01*
X180818598Y-82023253D01*
X180798893Y-82037867D01*
X180777849Y-82050480D01*
X180755671Y-82060970D01*
X180732571Y-82069235D01*
X180708773Y-82075196D01*
X180684504Y-82078796D01*
X180660000Y-82080000D01*
X178160000Y-82080000D01*
X178135496Y-82078796D01*
X178111227Y-82075196D01*
X178087429Y-82069235D01*
X178064329Y-82060970D01*
X178042151Y-82050480D01*
X178021107Y-82037867D01*
X178001402Y-82023253D01*
X177983223Y-82006777D01*
X177966747Y-81988598D01*
X177952133Y-81968893D01*
X177939520Y-81947849D01*
X177929030Y-81925671D01*
X177920765Y-81902571D01*
X177914804Y-81878773D01*
X177911204Y-81854504D01*
X177910000Y-81830000D01*
X177910000Y-80730000D01*
X177911204Y-80705496D01*
X177914804Y-80681227D01*
X177920765Y-80657429D01*
X177929030Y-80634329D01*
X177939520Y-80612151D01*
X177952133Y-80591107D01*
X177966747Y-80571402D01*
X177983223Y-80553223D01*
X178001402Y-80536747D01*
X178021107Y-80522133D01*
X178042151Y-80509520D01*
X178064329Y-80499030D01*
X178087429Y-80490765D01*
X178111227Y-80484804D01*
X178135496Y-80481204D01*
X178160000Y-80480000D01*
X180660000Y-80480000D01*
X180684504Y-80481204D01*
X180684504Y-80481204D01*
G37*
D16*
X179410000Y-81280000D03*
D13*
G36*
X185084504Y-80481204D02*
X185108773Y-80484804D01*
X185132571Y-80490765D01*
X185155671Y-80499030D01*
X185177849Y-80509520D01*
X185198893Y-80522133D01*
X185218598Y-80536747D01*
X185236777Y-80553223D01*
X185253253Y-80571402D01*
X185267867Y-80591107D01*
X185280480Y-80612151D01*
X185290970Y-80634329D01*
X185299235Y-80657429D01*
X185305196Y-80681227D01*
X185308796Y-80705496D01*
X185310000Y-80730000D01*
X185310000Y-81830000D01*
X185308796Y-81854504D01*
X185305196Y-81878773D01*
X185299235Y-81902571D01*
X185290970Y-81925671D01*
X185280480Y-81947849D01*
X185267867Y-81968893D01*
X185253253Y-81988598D01*
X185236777Y-82006777D01*
X185218598Y-82023253D01*
X185198893Y-82037867D01*
X185177849Y-82050480D01*
X185155671Y-82060970D01*
X185132571Y-82069235D01*
X185108773Y-82075196D01*
X185084504Y-82078796D01*
X185060000Y-82080000D01*
X182560000Y-82080000D01*
X182535496Y-82078796D01*
X182511227Y-82075196D01*
X182487429Y-82069235D01*
X182464329Y-82060970D01*
X182442151Y-82050480D01*
X182421107Y-82037867D01*
X182401402Y-82023253D01*
X182383223Y-82006777D01*
X182366747Y-81988598D01*
X182352133Y-81968893D01*
X182339520Y-81947849D01*
X182329030Y-81925671D01*
X182320765Y-81902571D01*
X182314804Y-81878773D01*
X182311204Y-81854504D01*
X182310000Y-81830000D01*
X182310000Y-80730000D01*
X182311204Y-80705496D01*
X182314804Y-80681227D01*
X182320765Y-80657429D01*
X182329030Y-80634329D01*
X182339520Y-80612151D01*
X182352133Y-80591107D01*
X182366747Y-80571402D01*
X182383223Y-80553223D01*
X182401402Y-80536747D01*
X182421107Y-80522133D01*
X182442151Y-80509520D01*
X182464329Y-80499030D01*
X182487429Y-80490765D01*
X182511227Y-80484804D01*
X182535496Y-80481204D01*
X182560000Y-80480000D01*
X185060000Y-80480000D01*
X185084504Y-80481204D01*
X185084504Y-80481204D01*
G37*
D16*
X183810000Y-81280000D03*
D13*
G36*
X178374504Y-90881204D02*
X178398773Y-90884804D01*
X178422571Y-90890765D01*
X178445671Y-90899030D01*
X178467849Y-90909520D01*
X178488893Y-90922133D01*
X178508598Y-90936747D01*
X178526777Y-90953223D01*
X178543253Y-90971402D01*
X178557867Y-90991107D01*
X178570480Y-91012151D01*
X178580970Y-91034329D01*
X178589235Y-91057429D01*
X178595196Y-91081227D01*
X178598796Y-91105496D01*
X178600000Y-91130000D01*
X178600000Y-93230000D01*
X178598796Y-93254504D01*
X178595196Y-93278773D01*
X178589235Y-93302571D01*
X178580970Y-93325671D01*
X178570480Y-93347849D01*
X178557867Y-93368893D01*
X178543253Y-93388598D01*
X178526777Y-93406777D01*
X178508598Y-93423253D01*
X178488893Y-93437867D01*
X178467849Y-93450480D01*
X178445671Y-93460970D01*
X178422571Y-93469235D01*
X178398773Y-93475196D01*
X178374504Y-93478796D01*
X178350000Y-93480000D01*
X177250000Y-93480000D01*
X177225496Y-93478796D01*
X177201227Y-93475196D01*
X177177429Y-93469235D01*
X177154329Y-93460970D01*
X177132151Y-93450480D01*
X177111107Y-93437867D01*
X177091402Y-93423253D01*
X177073223Y-93406777D01*
X177056747Y-93388598D01*
X177042133Y-93368893D01*
X177029520Y-93347849D01*
X177019030Y-93325671D01*
X177010765Y-93302571D01*
X177004804Y-93278773D01*
X177001204Y-93254504D01*
X177000000Y-93230000D01*
X177000000Y-91130000D01*
X177001204Y-91105496D01*
X177004804Y-91081227D01*
X177010765Y-91057429D01*
X177019030Y-91034329D01*
X177029520Y-91012151D01*
X177042133Y-90991107D01*
X177056747Y-90971402D01*
X177073223Y-90953223D01*
X177091402Y-90936747D01*
X177111107Y-90922133D01*
X177132151Y-90909520D01*
X177154329Y-90899030D01*
X177177429Y-90890765D01*
X177201227Y-90884804D01*
X177225496Y-90881204D01*
X177250000Y-90880000D01*
X178350000Y-90880000D01*
X178374504Y-90881204D01*
X178374504Y-90881204D01*
G37*
D16*
X177800000Y-92180000D03*
D13*
G36*
X178374504Y-94481204D02*
X178398773Y-94484804D01*
X178422571Y-94490765D01*
X178445671Y-94499030D01*
X178467849Y-94509520D01*
X178488893Y-94522133D01*
X178508598Y-94536747D01*
X178526777Y-94553223D01*
X178543253Y-94571402D01*
X178557867Y-94591107D01*
X178570480Y-94612151D01*
X178580970Y-94634329D01*
X178589235Y-94657429D01*
X178595196Y-94681227D01*
X178598796Y-94705496D01*
X178600000Y-94730000D01*
X178600000Y-96830000D01*
X178598796Y-96854504D01*
X178595196Y-96878773D01*
X178589235Y-96902571D01*
X178580970Y-96925671D01*
X178570480Y-96947849D01*
X178557867Y-96968893D01*
X178543253Y-96988598D01*
X178526777Y-97006777D01*
X178508598Y-97023253D01*
X178488893Y-97037867D01*
X178467849Y-97050480D01*
X178445671Y-97060970D01*
X178422571Y-97069235D01*
X178398773Y-97075196D01*
X178374504Y-97078796D01*
X178350000Y-97080000D01*
X177250000Y-97080000D01*
X177225496Y-97078796D01*
X177201227Y-97075196D01*
X177177429Y-97069235D01*
X177154329Y-97060970D01*
X177132151Y-97050480D01*
X177111107Y-97037867D01*
X177091402Y-97023253D01*
X177073223Y-97006777D01*
X177056747Y-96988598D01*
X177042133Y-96968893D01*
X177029520Y-96947849D01*
X177019030Y-96925671D01*
X177010765Y-96902571D01*
X177004804Y-96878773D01*
X177001204Y-96854504D01*
X177000000Y-96830000D01*
X177000000Y-94730000D01*
X177001204Y-94705496D01*
X177004804Y-94681227D01*
X177010765Y-94657429D01*
X177019030Y-94634329D01*
X177029520Y-94612151D01*
X177042133Y-94591107D01*
X177056747Y-94571402D01*
X177073223Y-94553223D01*
X177091402Y-94536747D01*
X177111107Y-94522133D01*
X177132151Y-94509520D01*
X177154329Y-94499030D01*
X177177429Y-94490765D01*
X177201227Y-94484804D01*
X177225496Y-94481204D01*
X177250000Y-94480000D01*
X178350000Y-94480000D01*
X178374504Y-94481204D01*
X178374504Y-94481204D01*
G37*
D16*
X177800000Y-95780000D03*
D13*
G36*
X193034504Y-69051204D02*
X193058773Y-69054804D01*
X193082571Y-69060765D01*
X193105671Y-69069030D01*
X193127849Y-69079520D01*
X193148893Y-69092133D01*
X193168598Y-69106747D01*
X193186777Y-69123223D01*
X193203253Y-69141402D01*
X193217867Y-69161107D01*
X193230480Y-69182151D01*
X193240970Y-69204329D01*
X193249235Y-69227429D01*
X193255196Y-69251227D01*
X193258796Y-69275496D01*
X193260000Y-69300000D01*
X193260000Y-70400000D01*
X193258796Y-70424504D01*
X193255196Y-70448773D01*
X193249235Y-70472571D01*
X193240970Y-70495671D01*
X193230480Y-70517849D01*
X193217867Y-70538893D01*
X193203253Y-70558598D01*
X193186777Y-70576777D01*
X193168598Y-70593253D01*
X193148893Y-70607867D01*
X193127849Y-70620480D01*
X193105671Y-70630970D01*
X193082571Y-70639235D01*
X193058773Y-70645196D01*
X193034504Y-70648796D01*
X193010000Y-70650000D01*
X190010000Y-70650000D01*
X189985496Y-70648796D01*
X189961227Y-70645196D01*
X189937429Y-70639235D01*
X189914329Y-70630970D01*
X189892151Y-70620480D01*
X189871107Y-70607867D01*
X189851402Y-70593253D01*
X189833223Y-70576777D01*
X189816747Y-70558598D01*
X189802133Y-70538893D01*
X189789520Y-70517849D01*
X189779030Y-70495671D01*
X189770765Y-70472571D01*
X189764804Y-70448773D01*
X189761204Y-70424504D01*
X189760000Y-70400000D01*
X189760000Y-69300000D01*
X189761204Y-69275496D01*
X189764804Y-69251227D01*
X189770765Y-69227429D01*
X189779030Y-69204329D01*
X189789520Y-69182151D01*
X189802133Y-69161107D01*
X189816747Y-69141402D01*
X189833223Y-69123223D01*
X189851402Y-69106747D01*
X189871107Y-69092133D01*
X189892151Y-69079520D01*
X189914329Y-69069030D01*
X189937429Y-69060765D01*
X189961227Y-69054804D01*
X189985496Y-69051204D01*
X190010000Y-69050000D01*
X193010000Y-69050000D01*
X193034504Y-69051204D01*
X193034504Y-69051204D01*
G37*
D16*
X191510000Y-69850000D03*
D13*
G36*
X198634504Y-69051204D02*
X198658773Y-69054804D01*
X198682571Y-69060765D01*
X198705671Y-69069030D01*
X198727849Y-69079520D01*
X198748893Y-69092133D01*
X198768598Y-69106747D01*
X198786777Y-69123223D01*
X198803253Y-69141402D01*
X198817867Y-69161107D01*
X198830480Y-69182151D01*
X198840970Y-69204329D01*
X198849235Y-69227429D01*
X198855196Y-69251227D01*
X198858796Y-69275496D01*
X198860000Y-69300000D01*
X198860000Y-70400000D01*
X198858796Y-70424504D01*
X198855196Y-70448773D01*
X198849235Y-70472571D01*
X198840970Y-70495671D01*
X198830480Y-70517849D01*
X198817867Y-70538893D01*
X198803253Y-70558598D01*
X198786777Y-70576777D01*
X198768598Y-70593253D01*
X198748893Y-70607867D01*
X198727849Y-70620480D01*
X198705671Y-70630970D01*
X198682571Y-70639235D01*
X198658773Y-70645196D01*
X198634504Y-70648796D01*
X198610000Y-70650000D01*
X195610000Y-70650000D01*
X195585496Y-70648796D01*
X195561227Y-70645196D01*
X195537429Y-70639235D01*
X195514329Y-70630970D01*
X195492151Y-70620480D01*
X195471107Y-70607867D01*
X195451402Y-70593253D01*
X195433223Y-70576777D01*
X195416747Y-70558598D01*
X195402133Y-70538893D01*
X195389520Y-70517849D01*
X195379030Y-70495671D01*
X195370765Y-70472571D01*
X195364804Y-70448773D01*
X195361204Y-70424504D01*
X195360000Y-70400000D01*
X195360000Y-69300000D01*
X195361204Y-69275496D01*
X195364804Y-69251227D01*
X195370765Y-69227429D01*
X195379030Y-69204329D01*
X195389520Y-69182151D01*
X195402133Y-69161107D01*
X195416747Y-69141402D01*
X195433223Y-69123223D01*
X195451402Y-69106747D01*
X195471107Y-69092133D01*
X195492151Y-69079520D01*
X195514329Y-69069030D01*
X195537429Y-69060765D01*
X195561227Y-69054804D01*
X195585496Y-69051204D01*
X195610000Y-69050000D01*
X198610000Y-69050000D01*
X198634504Y-69051204D01*
X198634504Y-69051204D01*
G37*
D16*
X197110000Y-69850000D03*
D13*
G36*
X179414504Y-50001204D02*
X179438773Y-50004804D01*
X179462571Y-50010765D01*
X179485671Y-50019030D01*
X179507849Y-50029520D01*
X179528893Y-50042133D01*
X179548598Y-50056747D01*
X179566777Y-50073223D01*
X179583253Y-50091402D01*
X179597867Y-50111107D01*
X179610480Y-50132151D01*
X179620970Y-50154329D01*
X179629235Y-50177429D01*
X179635196Y-50201227D01*
X179638796Y-50225496D01*
X179640000Y-50250000D01*
X179640000Y-51350000D01*
X179638796Y-51374504D01*
X179635196Y-51398773D01*
X179629235Y-51422571D01*
X179620970Y-51445671D01*
X179610480Y-51467849D01*
X179597867Y-51488893D01*
X179583253Y-51508598D01*
X179566777Y-51526777D01*
X179548598Y-51543253D01*
X179528893Y-51557867D01*
X179507849Y-51570480D01*
X179485671Y-51580970D01*
X179462571Y-51589235D01*
X179438773Y-51595196D01*
X179414504Y-51598796D01*
X179390000Y-51600000D01*
X176890000Y-51600000D01*
X176865496Y-51598796D01*
X176841227Y-51595196D01*
X176817429Y-51589235D01*
X176794329Y-51580970D01*
X176772151Y-51570480D01*
X176751107Y-51557867D01*
X176731402Y-51543253D01*
X176713223Y-51526777D01*
X176696747Y-51508598D01*
X176682133Y-51488893D01*
X176669520Y-51467849D01*
X176659030Y-51445671D01*
X176650765Y-51422571D01*
X176644804Y-51398773D01*
X176641204Y-51374504D01*
X176640000Y-51350000D01*
X176640000Y-50250000D01*
X176641204Y-50225496D01*
X176644804Y-50201227D01*
X176650765Y-50177429D01*
X176659030Y-50154329D01*
X176669520Y-50132151D01*
X176682133Y-50111107D01*
X176696747Y-50091402D01*
X176713223Y-50073223D01*
X176731402Y-50056747D01*
X176751107Y-50042133D01*
X176772151Y-50029520D01*
X176794329Y-50019030D01*
X176817429Y-50010765D01*
X176841227Y-50004804D01*
X176865496Y-50001204D01*
X176890000Y-50000000D01*
X179390000Y-50000000D01*
X179414504Y-50001204D01*
X179414504Y-50001204D01*
G37*
D16*
X178140000Y-50800000D03*
D13*
G36*
X183814504Y-50001204D02*
X183838773Y-50004804D01*
X183862571Y-50010765D01*
X183885671Y-50019030D01*
X183907849Y-50029520D01*
X183928893Y-50042133D01*
X183948598Y-50056747D01*
X183966777Y-50073223D01*
X183983253Y-50091402D01*
X183997867Y-50111107D01*
X184010480Y-50132151D01*
X184020970Y-50154329D01*
X184029235Y-50177429D01*
X184035196Y-50201227D01*
X184038796Y-50225496D01*
X184040000Y-50250000D01*
X184040000Y-51350000D01*
X184038796Y-51374504D01*
X184035196Y-51398773D01*
X184029235Y-51422571D01*
X184020970Y-51445671D01*
X184010480Y-51467849D01*
X183997867Y-51488893D01*
X183983253Y-51508598D01*
X183966777Y-51526777D01*
X183948598Y-51543253D01*
X183928893Y-51557867D01*
X183907849Y-51570480D01*
X183885671Y-51580970D01*
X183862571Y-51589235D01*
X183838773Y-51595196D01*
X183814504Y-51598796D01*
X183790000Y-51600000D01*
X181290000Y-51600000D01*
X181265496Y-51598796D01*
X181241227Y-51595196D01*
X181217429Y-51589235D01*
X181194329Y-51580970D01*
X181172151Y-51570480D01*
X181151107Y-51557867D01*
X181131402Y-51543253D01*
X181113223Y-51526777D01*
X181096747Y-51508598D01*
X181082133Y-51488893D01*
X181069520Y-51467849D01*
X181059030Y-51445671D01*
X181050765Y-51422571D01*
X181044804Y-51398773D01*
X181041204Y-51374504D01*
X181040000Y-51350000D01*
X181040000Y-50250000D01*
X181041204Y-50225496D01*
X181044804Y-50201227D01*
X181050765Y-50177429D01*
X181059030Y-50154329D01*
X181069520Y-50132151D01*
X181082133Y-50111107D01*
X181096747Y-50091402D01*
X181113223Y-50073223D01*
X181131402Y-50056747D01*
X181151107Y-50042133D01*
X181172151Y-50029520D01*
X181194329Y-50019030D01*
X181217429Y-50010765D01*
X181241227Y-50004804D01*
X181265496Y-50001204D01*
X181290000Y-50000000D01*
X183790000Y-50000000D01*
X183814504Y-50001204D01*
X183814504Y-50001204D01*
G37*
D16*
X182540000Y-50800000D03*
D13*
G36*
X184724504Y-94481204D02*
X184748773Y-94484804D01*
X184772571Y-94490765D01*
X184795671Y-94499030D01*
X184817849Y-94509520D01*
X184838893Y-94522133D01*
X184858598Y-94536747D01*
X184876777Y-94553223D01*
X184893253Y-94571402D01*
X184907867Y-94591107D01*
X184920480Y-94612151D01*
X184930970Y-94634329D01*
X184939235Y-94657429D01*
X184945196Y-94681227D01*
X184948796Y-94705496D01*
X184950000Y-94730000D01*
X184950000Y-96830000D01*
X184948796Y-96854504D01*
X184945196Y-96878773D01*
X184939235Y-96902571D01*
X184930970Y-96925671D01*
X184920480Y-96947849D01*
X184907867Y-96968893D01*
X184893253Y-96988598D01*
X184876777Y-97006777D01*
X184858598Y-97023253D01*
X184838893Y-97037867D01*
X184817849Y-97050480D01*
X184795671Y-97060970D01*
X184772571Y-97069235D01*
X184748773Y-97075196D01*
X184724504Y-97078796D01*
X184700000Y-97080000D01*
X183600000Y-97080000D01*
X183575496Y-97078796D01*
X183551227Y-97075196D01*
X183527429Y-97069235D01*
X183504329Y-97060970D01*
X183482151Y-97050480D01*
X183461107Y-97037867D01*
X183441402Y-97023253D01*
X183423223Y-97006777D01*
X183406747Y-96988598D01*
X183392133Y-96968893D01*
X183379520Y-96947849D01*
X183369030Y-96925671D01*
X183360765Y-96902571D01*
X183354804Y-96878773D01*
X183351204Y-96854504D01*
X183350000Y-96830000D01*
X183350000Y-94730000D01*
X183351204Y-94705496D01*
X183354804Y-94681227D01*
X183360765Y-94657429D01*
X183369030Y-94634329D01*
X183379520Y-94612151D01*
X183392133Y-94591107D01*
X183406747Y-94571402D01*
X183423223Y-94553223D01*
X183441402Y-94536747D01*
X183461107Y-94522133D01*
X183482151Y-94509520D01*
X183504329Y-94499030D01*
X183527429Y-94490765D01*
X183551227Y-94484804D01*
X183575496Y-94481204D01*
X183600000Y-94480000D01*
X184700000Y-94480000D01*
X184724504Y-94481204D01*
X184724504Y-94481204D01*
G37*
D16*
X184150000Y-95780000D03*
D13*
G36*
X184724504Y-90881204D02*
X184748773Y-90884804D01*
X184772571Y-90890765D01*
X184795671Y-90899030D01*
X184817849Y-90909520D01*
X184838893Y-90922133D01*
X184858598Y-90936747D01*
X184876777Y-90953223D01*
X184893253Y-90971402D01*
X184907867Y-90991107D01*
X184920480Y-91012151D01*
X184930970Y-91034329D01*
X184939235Y-91057429D01*
X184945196Y-91081227D01*
X184948796Y-91105496D01*
X184950000Y-91130000D01*
X184950000Y-93230000D01*
X184948796Y-93254504D01*
X184945196Y-93278773D01*
X184939235Y-93302571D01*
X184930970Y-93325671D01*
X184920480Y-93347849D01*
X184907867Y-93368893D01*
X184893253Y-93388598D01*
X184876777Y-93406777D01*
X184858598Y-93423253D01*
X184838893Y-93437867D01*
X184817849Y-93450480D01*
X184795671Y-93460970D01*
X184772571Y-93469235D01*
X184748773Y-93475196D01*
X184724504Y-93478796D01*
X184700000Y-93480000D01*
X183600000Y-93480000D01*
X183575496Y-93478796D01*
X183551227Y-93475196D01*
X183527429Y-93469235D01*
X183504329Y-93460970D01*
X183482151Y-93450480D01*
X183461107Y-93437867D01*
X183441402Y-93423253D01*
X183423223Y-93406777D01*
X183406747Y-93388598D01*
X183392133Y-93368893D01*
X183379520Y-93347849D01*
X183369030Y-93325671D01*
X183360765Y-93302571D01*
X183354804Y-93278773D01*
X183351204Y-93254504D01*
X183350000Y-93230000D01*
X183350000Y-91130000D01*
X183351204Y-91105496D01*
X183354804Y-91081227D01*
X183360765Y-91057429D01*
X183369030Y-91034329D01*
X183379520Y-91012151D01*
X183392133Y-90991107D01*
X183406747Y-90971402D01*
X183423223Y-90953223D01*
X183441402Y-90936747D01*
X183461107Y-90922133D01*
X183482151Y-90909520D01*
X183504329Y-90899030D01*
X183527429Y-90890765D01*
X183551227Y-90884804D01*
X183575496Y-90881204D01*
X183600000Y-90880000D01*
X184700000Y-90880000D01*
X184724504Y-90881204D01*
X184724504Y-90881204D01*
G37*
D16*
X184150000Y-92180000D03*
D13*
G36*
X154177992Y-59235364D02*
X154201653Y-59238874D01*
X154224857Y-59244686D01*
X154247379Y-59252744D01*
X154269003Y-59262972D01*
X154289520Y-59275269D01*
X154308733Y-59289519D01*
X154326457Y-59305583D01*
X154342521Y-59323307D01*
X154356771Y-59342520D01*
X154369068Y-59363037D01*
X154379296Y-59384661D01*
X154387354Y-59407183D01*
X154393166Y-59430387D01*
X154396676Y-59454048D01*
X154397850Y-59477940D01*
X154397850Y-60390440D01*
X154396676Y-60414332D01*
X154393166Y-60437993D01*
X154387354Y-60461197D01*
X154379296Y-60483719D01*
X154369068Y-60505343D01*
X154356771Y-60525860D01*
X154342521Y-60545073D01*
X154326457Y-60562797D01*
X154308733Y-60578861D01*
X154289520Y-60593111D01*
X154269003Y-60605408D01*
X154247379Y-60615636D01*
X154224857Y-60623694D01*
X154201653Y-60629506D01*
X154177992Y-60633016D01*
X154154100Y-60634190D01*
X153666600Y-60634190D01*
X153642708Y-60633016D01*
X153619047Y-60629506D01*
X153595843Y-60623694D01*
X153573321Y-60615636D01*
X153551697Y-60605408D01*
X153531180Y-60593111D01*
X153511967Y-60578861D01*
X153494243Y-60562797D01*
X153478179Y-60545073D01*
X153463929Y-60525860D01*
X153451632Y-60505343D01*
X153441404Y-60483719D01*
X153433346Y-60461197D01*
X153427534Y-60437993D01*
X153424024Y-60414332D01*
X153422850Y-60390440D01*
X153422850Y-59477940D01*
X153424024Y-59454048D01*
X153427534Y-59430387D01*
X153433346Y-59407183D01*
X153441404Y-59384661D01*
X153451632Y-59363037D01*
X153463929Y-59342520D01*
X153478179Y-59323307D01*
X153494243Y-59305583D01*
X153511967Y-59289519D01*
X153531180Y-59275269D01*
X153551697Y-59262972D01*
X153573321Y-59252744D01*
X153595843Y-59244686D01*
X153619047Y-59238874D01*
X153642708Y-59235364D01*
X153666600Y-59234190D01*
X154154100Y-59234190D01*
X154177992Y-59235364D01*
X154177992Y-59235364D01*
G37*
D17*
X153910350Y-59934190D03*
D13*
G36*
X152302992Y-59235364D02*
X152326653Y-59238874D01*
X152349857Y-59244686D01*
X152372379Y-59252744D01*
X152394003Y-59262972D01*
X152414520Y-59275269D01*
X152433733Y-59289519D01*
X152451457Y-59305583D01*
X152467521Y-59323307D01*
X152481771Y-59342520D01*
X152494068Y-59363037D01*
X152504296Y-59384661D01*
X152512354Y-59407183D01*
X152518166Y-59430387D01*
X152521676Y-59454048D01*
X152522850Y-59477940D01*
X152522850Y-60390440D01*
X152521676Y-60414332D01*
X152518166Y-60437993D01*
X152512354Y-60461197D01*
X152504296Y-60483719D01*
X152494068Y-60505343D01*
X152481771Y-60525860D01*
X152467521Y-60545073D01*
X152451457Y-60562797D01*
X152433733Y-60578861D01*
X152414520Y-60593111D01*
X152394003Y-60605408D01*
X152372379Y-60615636D01*
X152349857Y-60623694D01*
X152326653Y-60629506D01*
X152302992Y-60633016D01*
X152279100Y-60634190D01*
X151791600Y-60634190D01*
X151767708Y-60633016D01*
X151744047Y-60629506D01*
X151720843Y-60623694D01*
X151698321Y-60615636D01*
X151676697Y-60605408D01*
X151656180Y-60593111D01*
X151636967Y-60578861D01*
X151619243Y-60562797D01*
X151603179Y-60545073D01*
X151588929Y-60525860D01*
X151576632Y-60505343D01*
X151566404Y-60483719D01*
X151558346Y-60461197D01*
X151552534Y-60437993D01*
X151549024Y-60414332D01*
X151547850Y-60390440D01*
X151547850Y-59477940D01*
X151549024Y-59454048D01*
X151552534Y-59430387D01*
X151558346Y-59407183D01*
X151566404Y-59384661D01*
X151576632Y-59363037D01*
X151588929Y-59342520D01*
X151603179Y-59323307D01*
X151619243Y-59305583D01*
X151636967Y-59289519D01*
X151656180Y-59275269D01*
X151676697Y-59262972D01*
X151698321Y-59252744D01*
X151720843Y-59244686D01*
X151744047Y-59238874D01*
X151767708Y-59235364D01*
X151791600Y-59234190D01*
X152279100Y-59234190D01*
X152302992Y-59235364D01*
X152302992Y-59235364D01*
G37*
D17*
X152035350Y-59934190D03*
D13*
G36*
X152302992Y-61775364D02*
X152326653Y-61778874D01*
X152349857Y-61784686D01*
X152372379Y-61792744D01*
X152394003Y-61802972D01*
X152414520Y-61815269D01*
X152433733Y-61829519D01*
X152451457Y-61845583D01*
X152467521Y-61863307D01*
X152481771Y-61882520D01*
X152494068Y-61903037D01*
X152504296Y-61924661D01*
X152512354Y-61947183D01*
X152518166Y-61970387D01*
X152521676Y-61994048D01*
X152522850Y-62017940D01*
X152522850Y-62930440D01*
X152521676Y-62954332D01*
X152518166Y-62977993D01*
X152512354Y-63001197D01*
X152504296Y-63023719D01*
X152494068Y-63045343D01*
X152481771Y-63065860D01*
X152467521Y-63085073D01*
X152451457Y-63102797D01*
X152433733Y-63118861D01*
X152414520Y-63133111D01*
X152394003Y-63145408D01*
X152372379Y-63155636D01*
X152349857Y-63163694D01*
X152326653Y-63169506D01*
X152302992Y-63173016D01*
X152279100Y-63174190D01*
X151791600Y-63174190D01*
X151767708Y-63173016D01*
X151744047Y-63169506D01*
X151720843Y-63163694D01*
X151698321Y-63155636D01*
X151676697Y-63145408D01*
X151656180Y-63133111D01*
X151636967Y-63118861D01*
X151619243Y-63102797D01*
X151603179Y-63085073D01*
X151588929Y-63065860D01*
X151576632Y-63045343D01*
X151566404Y-63023719D01*
X151558346Y-63001197D01*
X151552534Y-62977993D01*
X151549024Y-62954332D01*
X151547850Y-62930440D01*
X151547850Y-62017940D01*
X151549024Y-61994048D01*
X151552534Y-61970387D01*
X151558346Y-61947183D01*
X151566404Y-61924661D01*
X151576632Y-61903037D01*
X151588929Y-61882520D01*
X151603179Y-61863307D01*
X151619243Y-61845583D01*
X151636967Y-61829519D01*
X151656180Y-61815269D01*
X151676697Y-61802972D01*
X151698321Y-61792744D01*
X151720843Y-61784686D01*
X151744047Y-61778874D01*
X151767708Y-61775364D01*
X151791600Y-61774190D01*
X152279100Y-61774190D01*
X152302992Y-61775364D01*
X152302992Y-61775364D01*
G37*
D17*
X152035350Y-62474190D03*
D13*
G36*
X154177992Y-61775364D02*
X154201653Y-61778874D01*
X154224857Y-61784686D01*
X154247379Y-61792744D01*
X154269003Y-61802972D01*
X154289520Y-61815269D01*
X154308733Y-61829519D01*
X154326457Y-61845583D01*
X154342521Y-61863307D01*
X154356771Y-61882520D01*
X154369068Y-61903037D01*
X154379296Y-61924661D01*
X154387354Y-61947183D01*
X154393166Y-61970387D01*
X154396676Y-61994048D01*
X154397850Y-62017940D01*
X154397850Y-62930440D01*
X154396676Y-62954332D01*
X154393166Y-62977993D01*
X154387354Y-63001197D01*
X154379296Y-63023719D01*
X154369068Y-63045343D01*
X154356771Y-63065860D01*
X154342521Y-63085073D01*
X154326457Y-63102797D01*
X154308733Y-63118861D01*
X154289520Y-63133111D01*
X154269003Y-63145408D01*
X154247379Y-63155636D01*
X154224857Y-63163694D01*
X154201653Y-63169506D01*
X154177992Y-63173016D01*
X154154100Y-63174190D01*
X153666600Y-63174190D01*
X153642708Y-63173016D01*
X153619047Y-63169506D01*
X153595843Y-63163694D01*
X153573321Y-63155636D01*
X153551697Y-63145408D01*
X153531180Y-63133111D01*
X153511967Y-63118861D01*
X153494243Y-63102797D01*
X153478179Y-63085073D01*
X153463929Y-63065860D01*
X153451632Y-63045343D01*
X153441404Y-63023719D01*
X153433346Y-63001197D01*
X153427534Y-62977993D01*
X153424024Y-62954332D01*
X153422850Y-62930440D01*
X153422850Y-62017940D01*
X153424024Y-61994048D01*
X153427534Y-61970387D01*
X153433346Y-61947183D01*
X153441404Y-61924661D01*
X153451632Y-61903037D01*
X153463929Y-61882520D01*
X153478179Y-61863307D01*
X153494243Y-61845583D01*
X153511967Y-61829519D01*
X153531180Y-61815269D01*
X153551697Y-61802972D01*
X153573321Y-61792744D01*
X153595843Y-61784686D01*
X153619047Y-61778874D01*
X153642708Y-61775364D01*
X153666600Y-61774190D01*
X154154100Y-61774190D01*
X154177992Y-61775364D01*
X154177992Y-61775364D01*
G37*
D17*
X153910350Y-62474190D03*
D13*
G36*
X160086504Y-52273204D02*
X160110773Y-52276804D01*
X160134571Y-52282765D01*
X160157671Y-52291030D01*
X160179849Y-52301520D01*
X160200893Y-52314133D01*
X160220598Y-52328747D01*
X160238777Y-52345223D01*
X160255253Y-52363402D01*
X160269867Y-52383107D01*
X160282480Y-52404151D01*
X160292970Y-52426329D01*
X160301235Y-52449429D01*
X160307196Y-52473227D01*
X160310796Y-52497496D01*
X160312000Y-52522000D01*
X160312000Y-54622000D01*
X160310796Y-54646504D01*
X160307196Y-54670773D01*
X160301235Y-54694571D01*
X160292970Y-54717671D01*
X160282480Y-54739849D01*
X160269867Y-54760893D01*
X160255253Y-54780598D01*
X160238777Y-54798777D01*
X160220598Y-54815253D01*
X160200893Y-54829867D01*
X160179849Y-54842480D01*
X160157671Y-54852970D01*
X160134571Y-54861235D01*
X160110773Y-54867196D01*
X160086504Y-54870796D01*
X160062000Y-54872000D01*
X158962000Y-54872000D01*
X158937496Y-54870796D01*
X158913227Y-54867196D01*
X158889429Y-54861235D01*
X158866329Y-54852970D01*
X158844151Y-54842480D01*
X158823107Y-54829867D01*
X158803402Y-54815253D01*
X158785223Y-54798777D01*
X158768747Y-54780598D01*
X158754133Y-54760893D01*
X158741520Y-54739849D01*
X158731030Y-54717671D01*
X158722765Y-54694571D01*
X158716804Y-54670773D01*
X158713204Y-54646504D01*
X158712000Y-54622000D01*
X158712000Y-52522000D01*
X158713204Y-52497496D01*
X158716804Y-52473227D01*
X158722765Y-52449429D01*
X158731030Y-52426329D01*
X158741520Y-52404151D01*
X158754133Y-52383107D01*
X158768747Y-52363402D01*
X158785223Y-52345223D01*
X158803402Y-52328747D01*
X158823107Y-52314133D01*
X158844151Y-52301520D01*
X158866329Y-52291030D01*
X158889429Y-52282765D01*
X158913227Y-52276804D01*
X158937496Y-52273204D01*
X158962000Y-52272000D01*
X160062000Y-52272000D01*
X160086504Y-52273204D01*
X160086504Y-52273204D01*
G37*
D16*
X159512000Y-53572000D03*
D13*
G36*
X160086504Y-55873204D02*
X160110773Y-55876804D01*
X160134571Y-55882765D01*
X160157671Y-55891030D01*
X160179849Y-55901520D01*
X160200893Y-55914133D01*
X160220598Y-55928747D01*
X160238777Y-55945223D01*
X160255253Y-55963402D01*
X160269867Y-55983107D01*
X160282480Y-56004151D01*
X160292970Y-56026329D01*
X160301235Y-56049429D01*
X160307196Y-56073227D01*
X160310796Y-56097496D01*
X160312000Y-56122000D01*
X160312000Y-58222000D01*
X160310796Y-58246504D01*
X160307196Y-58270773D01*
X160301235Y-58294571D01*
X160292970Y-58317671D01*
X160282480Y-58339849D01*
X160269867Y-58360893D01*
X160255253Y-58380598D01*
X160238777Y-58398777D01*
X160220598Y-58415253D01*
X160200893Y-58429867D01*
X160179849Y-58442480D01*
X160157671Y-58452970D01*
X160134571Y-58461235D01*
X160110773Y-58467196D01*
X160086504Y-58470796D01*
X160062000Y-58472000D01*
X158962000Y-58472000D01*
X158937496Y-58470796D01*
X158913227Y-58467196D01*
X158889429Y-58461235D01*
X158866329Y-58452970D01*
X158844151Y-58442480D01*
X158823107Y-58429867D01*
X158803402Y-58415253D01*
X158785223Y-58398777D01*
X158768747Y-58380598D01*
X158754133Y-58360893D01*
X158741520Y-58339849D01*
X158731030Y-58317671D01*
X158722765Y-58294571D01*
X158716804Y-58270773D01*
X158713204Y-58246504D01*
X158712000Y-58222000D01*
X158712000Y-56122000D01*
X158713204Y-56097496D01*
X158716804Y-56073227D01*
X158722765Y-56049429D01*
X158731030Y-56026329D01*
X158741520Y-56004151D01*
X158754133Y-55983107D01*
X158768747Y-55963402D01*
X158785223Y-55945223D01*
X158803402Y-55928747D01*
X158823107Y-55914133D01*
X158844151Y-55901520D01*
X158866329Y-55891030D01*
X158889429Y-55882765D01*
X158913227Y-55876804D01*
X158937496Y-55873204D01*
X158962000Y-55872000D01*
X160062000Y-55872000D01*
X160086504Y-55873204D01*
X160086504Y-55873204D01*
G37*
D16*
X159512000Y-57172000D03*
D13*
G36*
X157262992Y-59780364D02*
X157286653Y-59783874D01*
X157309857Y-59789686D01*
X157332379Y-59797744D01*
X157354003Y-59807972D01*
X157374520Y-59820269D01*
X157393733Y-59834519D01*
X157411457Y-59850583D01*
X157427521Y-59868307D01*
X157441771Y-59887520D01*
X157454068Y-59908037D01*
X157464296Y-59929661D01*
X157472354Y-59952183D01*
X157478166Y-59975387D01*
X157481676Y-59999048D01*
X157482850Y-60022940D01*
X157482850Y-60510440D01*
X157481676Y-60534332D01*
X157478166Y-60557993D01*
X157472354Y-60581197D01*
X157464296Y-60603719D01*
X157454068Y-60625343D01*
X157441771Y-60645860D01*
X157427521Y-60665073D01*
X157411457Y-60682797D01*
X157393733Y-60698861D01*
X157374520Y-60713111D01*
X157354003Y-60725408D01*
X157332379Y-60735636D01*
X157309857Y-60743694D01*
X157286653Y-60749506D01*
X157262992Y-60753016D01*
X157239100Y-60754190D01*
X156326600Y-60754190D01*
X156302708Y-60753016D01*
X156279047Y-60749506D01*
X156255843Y-60743694D01*
X156233321Y-60735636D01*
X156211697Y-60725408D01*
X156191180Y-60713111D01*
X156171967Y-60698861D01*
X156154243Y-60682797D01*
X156138179Y-60665073D01*
X156123929Y-60645860D01*
X156111632Y-60625343D01*
X156101404Y-60603719D01*
X156093346Y-60581197D01*
X156087534Y-60557993D01*
X156084024Y-60534332D01*
X156082850Y-60510440D01*
X156082850Y-60022940D01*
X156084024Y-59999048D01*
X156087534Y-59975387D01*
X156093346Y-59952183D01*
X156101404Y-59929661D01*
X156111632Y-59908037D01*
X156123929Y-59887520D01*
X156138179Y-59868307D01*
X156154243Y-59850583D01*
X156171967Y-59834519D01*
X156191180Y-59820269D01*
X156211697Y-59807972D01*
X156233321Y-59797744D01*
X156255843Y-59789686D01*
X156279047Y-59783874D01*
X156302708Y-59780364D01*
X156326600Y-59779190D01*
X157239100Y-59779190D01*
X157262992Y-59780364D01*
X157262992Y-59780364D01*
G37*
D17*
X156782850Y-60266690D03*
D13*
G36*
X157262992Y-61655364D02*
X157286653Y-61658874D01*
X157309857Y-61664686D01*
X157332379Y-61672744D01*
X157354003Y-61682972D01*
X157374520Y-61695269D01*
X157393733Y-61709519D01*
X157411457Y-61725583D01*
X157427521Y-61743307D01*
X157441771Y-61762520D01*
X157454068Y-61783037D01*
X157464296Y-61804661D01*
X157472354Y-61827183D01*
X157478166Y-61850387D01*
X157481676Y-61874048D01*
X157482850Y-61897940D01*
X157482850Y-62385440D01*
X157481676Y-62409332D01*
X157478166Y-62432993D01*
X157472354Y-62456197D01*
X157464296Y-62478719D01*
X157454068Y-62500343D01*
X157441771Y-62520860D01*
X157427521Y-62540073D01*
X157411457Y-62557797D01*
X157393733Y-62573861D01*
X157374520Y-62588111D01*
X157354003Y-62600408D01*
X157332379Y-62610636D01*
X157309857Y-62618694D01*
X157286653Y-62624506D01*
X157262992Y-62628016D01*
X157239100Y-62629190D01*
X156326600Y-62629190D01*
X156302708Y-62628016D01*
X156279047Y-62624506D01*
X156255843Y-62618694D01*
X156233321Y-62610636D01*
X156211697Y-62600408D01*
X156191180Y-62588111D01*
X156171967Y-62573861D01*
X156154243Y-62557797D01*
X156138179Y-62540073D01*
X156123929Y-62520860D01*
X156111632Y-62500343D01*
X156101404Y-62478719D01*
X156093346Y-62456197D01*
X156087534Y-62432993D01*
X156084024Y-62409332D01*
X156082850Y-62385440D01*
X156082850Y-61897940D01*
X156084024Y-61874048D01*
X156087534Y-61850387D01*
X156093346Y-61827183D01*
X156101404Y-61804661D01*
X156111632Y-61783037D01*
X156123929Y-61762520D01*
X156138179Y-61743307D01*
X156154243Y-61725583D01*
X156171967Y-61709519D01*
X156191180Y-61695269D01*
X156211697Y-61682972D01*
X156233321Y-61672744D01*
X156255843Y-61664686D01*
X156279047Y-61658874D01*
X156302708Y-61655364D01*
X156326600Y-61654190D01*
X157239100Y-61654190D01*
X157262992Y-61655364D01*
X157262992Y-61655364D01*
G37*
D17*
X156782850Y-62141690D03*
D13*
G36*
X149418504Y-55873204D02*
X149442773Y-55876804D01*
X149466571Y-55882765D01*
X149489671Y-55891030D01*
X149511849Y-55901520D01*
X149532893Y-55914133D01*
X149552598Y-55928747D01*
X149570777Y-55945223D01*
X149587253Y-55963402D01*
X149601867Y-55983107D01*
X149614480Y-56004151D01*
X149624970Y-56026329D01*
X149633235Y-56049429D01*
X149639196Y-56073227D01*
X149642796Y-56097496D01*
X149644000Y-56122000D01*
X149644000Y-58222000D01*
X149642796Y-58246504D01*
X149639196Y-58270773D01*
X149633235Y-58294571D01*
X149624970Y-58317671D01*
X149614480Y-58339849D01*
X149601867Y-58360893D01*
X149587253Y-58380598D01*
X149570777Y-58398777D01*
X149552598Y-58415253D01*
X149532893Y-58429867D01*
X149511849Y-58442480D01*
X149489671Y-58452970D01*
X149466571Y-58461235D01*
X149442773Y-58467196D01*
X149418504Y-58470796D01*
X149394000Y-58472000D01*
X148294000Y-58472000D01*
X148269496Y-58470796D01*
X148245227Y-58467196D01*
X148221429Y-58461235D01*
X148198329Y-58452970D01*
X148176151Y-58442480D01*
X148155107Y-58429867D01*
X148135402Y-58415253D01*
X148117223Y-58398777D01*
X148100747Y-58380598D01*
X148086133Y-58360893D01*
X148073520Y-58339849D01*
X148063030Y-58317671D01*
X148054765Y-58294571D01*
X148048804Y-58270773D01*
X148045204Y-58246504D01*
X148044000Y-58222000D01*
X148044000Y-56122000D01*
X148045204Y-56097496D01*
X148048804Y-56073227D01*
X148054765Y-56049429D01*
X148063030Y-56026329D01*
X148073520Y-56004151D01*
X148086133Y-55983107D01*
X148100747Y-55963402D01*
X148117223Y-55945223D01*
X148135402Y-55928747D01*
X148155107Y-55914133D01*
X148176151Y-55901520D01*
X148198329Y-55891030D01*
X148221429Y-55882765D01*
X148245227Y-55876804D01*
X148269496Y-55873204D01*
X148294000Y-55872000D01*
X149394000Y-55872000D01*
X149418504Y-55873204D01*
X149418504Y-55873204D01*
G37*
D16*
X148844000Y-57172000D03*
D13*
G36*
X149418504Y-52273204D02*
X149442773Y-52276804D01*
X149466571Y-52282765D01*
X149489671Y-52291030D01*
X149511849Y-52301520D01*
X149532893Y-52314133D01*
X149552598Y-52328747D01*
X149570777Y-52345223D01*
X149587253Y-52363402D01*
X149601867Y-52383107D01*
X149614480Y-52404151D01*
X149624970Y-52426329D01*
X149633235Y-52449429D01*
X149639196Y-52473227D01*
X149642796Y-52497496D01*
X149644000Y-52522000D01*
X149644000Y-54622000D01*
X149642796Y-54646504D01*
X149639196Y-54670773D01*
X149633235Y-54694571D01*
X149624970Y-54717671D01*
X149614480Y-54739849D01*
X149601867Y-54760893D01*
X149587253Y-54780598D01*
X149570777Y-54798777D01*
X149552598Y-54815253D01*
X149532893Y-54829867D01*
X149511849Y-54842480D01*
X149489671Y-54852970D01*
X149466571Y-54861235D01*
X149442773Y-54867196D01*
X149418504Y-54870796D01*
X149394000Y-54872000D01*
X148294000Y-54872000D01*
X148269496Y-54870796D01*
X148245227Y-54867196D01*
X148221429Y-54861235D01*
X148198329Y-54852970D01*
X148176151Y-54842480D01*
X148155107Y-54829867D01*
X148135402Y-54815253D01*
X148117223Y-54798777D01*
X148100747Y-54780598D01*
X148086133Y-54760893D01*
X148073520Y-54739849D01*
X148063030Y-54717671D01*
X148054765Y-54694571D01*
X148048804Y-54670773D01*
X148045204Y-54646504D01*
X148044000Y-54622000D01*
X148044000Y-52522000D01*
X148045204Y-52497496D01*
X148048804Y-52473227D01*
X148054765Y-52449429D01*
X148063030Y-52426329D01*
X148073520Y-52404151D01*
X148086133Y-52383107D01*
X148100747Y-52363402D01*
X148117223Y-52345223D01*
X148135402Y-52328747D01*
X148155107Y-52314133D01*
X148176151Y-52301520D01*
X148198329Y-52291030D01*
X148221429Y-52282765D01*
X148245227Y-52276804D01*
X148269496Y-52273204D01*
X148294000Y-52272000D01*
X149394000Y-52272000D01*
X149418504Y-52273204D01*
X149418504Y-52273204D01*
G37*
D16*
X148844000Y-53572000D03*
D13*
G36*
X176465142Y-36131174D02*
X176488803Y-36134684D01*
X176512007Y-36140496D01*
X176534529Y-36148554D01*
X176556153Y-36158782D01*
X176576670Y-36171079D01*
X176595883Y-36185329D01*
X176613607Y-36201393D01*
X176629671Y-36219117D01*
X176643921Y-36238330D01*
X176656218Y-36258847D01*
X176666446Y-36280471D01*
X176674504Y-36302993D01*
X176680316Y-36326197D01*
X176683826Y-36349858D01*
X176685000Y-36373750D01*
X176685000Y-37286250D01*
X176683826Y-37310142D01*
X176680316Y-37333803D01*
X176674504Y-37357007D01*
X176666446Y-37379529D01*
X176656218Y-37401153D01*
X176643921Y-37421670D01*
X176629671Y-37440883D01*
X176613607Y-37458607D01*
X176595883Y-37474671D01*
X176576670Y-37488921D01*
X176556153Y-37501218D01*
X176534529Y-37511446D01*
X176512007Y-37519504D01*
X176488803Y-37525316D01*
X176465142Y-37528826D01*
X176441250Y-37530000D01*
X175953750Y-37530000D01*
X175929858Y-37528826D01*
X175906197Y-37525316D01*
X175882993Y-37519504D01*
X175860471Y-37511446D01*
X175838847Y-37501218D01*
X175818330Y-37488921D01*
X175799117Y-37474671D01*
X175781393Y-37458607D01*
X175765329Y-37440883D01*
X175751079Y-37421670D01*
X175738782Y-37401153D01*
X175728554Y-37379529D01*
X175720496Y-37357007D01*
X175714684Y-37333803D01*
X175711174Y-37310142D01*
X175710000Y-37286250D01*
X175710000Y-36373750D01*
X175711174Y-36349858D01*
X175714684Y-36326197D01*
X175720496Y-36302993D01*
X175728554Y-36280471D01*
X175738782Y-36258847D01*
X175751079Y-36238330D01*
X175765329Y-36219117D01*
X175781393Y-36201393D01*
X175799117Y-36185329D01*
X175818330Y-36171079D01*
X175838847Y-36158782D01*
X175860471Y-36148554D01*
X175882993Y-36140496D01*
X175906197Y-36134684D01*
X175929858Y-36131174D01*
X175953750Y-36130000D01*
X176441250Y-36130000D01*
X176465142Y-36131174D01*
X176465142Y-36131174D01*
G37*
D17*
X176197500Y-36830000D03*
D13*
G36*
X174590142Y-36131174D02*
X174613803Y-36134684D01*
X174637007Y-36140496D01*
X174659529Y-36148554D01*
X174681153Y-36158782D01*
X174701670Y-36171079D01*
X174720883Y-36185329D01*
X174738607Y-36201393D01*
X174754671Y-36219117D01*
X174768921Y-36238330D01*
X174781218Y-36258847D01*
X174791446Y-36280471D01*
X174799504Y-36302993D01*
X174805316Y-36326197D01*
X174808826Y-36349858D01*
X174810000Y-36373750D01*
X174810000Y-37286250D01*
X174808826Y-37310142D01*
X174805316Y-37333803D01*
X174799504Y-37357007D01*
X174791446Y-37379529D01*
X174781218Y-37401153D01*
X174768921Y-37421670D01*
X174754671Y-37440883D01*
X174738607Y-37458607D01*
X174720883Y-37474671D01*
X174701670Y-37488921D01*
X174681153Y-37501218D01*
X174659529Y-37511446D01*
X174637007Y-37519504D01*
X174613803Y-37525316D01*
X174590142Y-37528826D01*
X174566250Y-37530000D01*
X174078750Y-37530000D01*
X174054858Y-37528826D01*
X174031197Y-37525316D01*
X174007993Y-37519504D01*
X173985471Y-37511446D01*
X173963847Y-37501218D01*
X173943330Y-37488921D01*
X173924117Y-37474671D01*
X173906393Y-37458607D01*
X173890329Y-37440883D01*
X173876079Y-37421670D01*
X173863782Y-37401153D01*
X173853554Y-37379529D01*
X173845496Y-37357007D01*
X173839684Y-37333803D01*
X173836174Y-37310142D01*
X173835000Y-37286250D01*
X173835000Y-36373750D01*
X173836174Y-36349858D01*
X173839684Y-36326197D01*
X173845496Y-36302993D01*
X173853554Y-36280471D01*
X173863782Y-36258847D01*
X173876079Y-36238330D01*
X173890329Y-36219117D01*
X173906393Y-36201393D01*
X173924117Y-36185329D01*
X173943330Y-36171079D01*
X173963847Y-36158782D01*
X173985471Y-36148554D01*
X174007993Y-36140496D01*
X174031197Y-36134684D01*
X174054858Y-36131174D01*
X174078750Y-36130000D01*
X174566250Y-36130000D01*
X174590142Y-36131174D01*
X174590142Y-36131174D01*
G37*
D17*
X174322500Y-36830000D03*
D13*
G36*
X191314504Y-39391204D02*
X191338773Y-39394804D01*
X191362571Y-39400765D01*
X191385671Y-39409030D01*
X191407849Y-39419520D01*
X191428893Y-39432133D01*
X191448598Y-39446747D01*
X191466777Y-39463223D01*
X191483253Y-39481402D01*
X191497867Y-39501107D01*
X191510480Y-39522151D01*
X191520970Y-39544329D01*
X191529235Y-39567429D01*
X191535196Y-39591227D01*
X191538796Y-39615496D01*
X191540000Y-39640000D01*
X191540000Y-41640000D01*
X191538796Y-41664504D01*
X191535196Y-41688773D01*
X191529235Y-41712571D01*
X191520970Y-41735671D01*
X191510480Y-41757849D01*
X191497867Y-41778893D01*
X191483253Y-41798598D01*
X191466777Y-41816777D01*
X191448598Y-41833253D01*
X191428893Y-41847867D01*
X191407849Y-41860480D01*
X191385671Y-41870970D01*
X191362571Y-41879235D01*
X191338773Y-41885196D01*
X191314504Y-41888796D01*
X191290000Y-41890000D01*
X187390000Y-41890000D01*
X187365496Y-41888796D01*
X187341227Y-41885196D01*
X187317429Y-41879235D01*
X187294329Y-41870970D01*
X187272151Y-41860480D01*
X187251107Y-41847867D01*
X187231402Y-41833253D01*
X187213223Y-41816777D01*
X187196747Y-41798598D01*
X187182133Y-41778893D01*
X187169520Y-41757849D01*
X187159030Y-41735671D01*
X187150765Y-41712571D01*
X187144804Y-41688773D01*
X187141204Y-41664504D01*
X187140000Y-41640000D01*
X187140000Y-39640000D01*
X187141204Y-39615496D01*
X187144804Y-39591227D01*
X187150765Y-39567429D01*
X187159030Y-39544329D01*
X187169520Y-39522151D01*
X187182133Y-39501107D01*
X187196747Y-39481402D01*
X187213223Y-39463223D01*
X187231402Y-39446747D01*
X187251107Y-39432133D01*
X187272151Y-39419520D01*
X187294329Y-39409030D01*
X187317429Y-39400765D01*
X187341227Y-39394804D01*
X187365496Y-39391204D01*
X187390000Y-39390000D01*
X191290000Y-39390000D01*
X191314504Y-39391204D01*
X191314504Y-39391204D01*
G37*
D18*
X189340000Y-40640000D03*
D13*
G36*
X198714504Y-39391204D02*
X198738773Y-39394804D01*
X198762571Y-39400765D01*
X198785671Y-39409030D01*
X198807849Y-39419520D01*
X198828893Y-39432133D01*
X198848598Y-39446747D01*
X198866777Y-39463223D01*
X198883253Y-39481402D01*
X198897867Y-39501107D01*
X198910480Y-39522151D01*
X198920970Y-39544329D01*
X198929235Y-39567429D01*
X198935196Y-39591227D01*
X198938796Y-39615496D01*
X198940000Y-39640000D01*
X198940000Y-41640000D01*
X198938796Y-41664504D01*
X198935196Y-41688773D01*
X198929235Y-41712571D01*
X198920970Y-41735671D01*
X198910480Y-41757849D01*
X198897867Y-41778893D01*
X198883253Y-41798598D01*
X198866777Y-41816777D01*
X198848598Y-41833253D01*
X198828893Y-41847867D01*
X198807849Y-41860480D01*
X198785671Y-41870970D01*
X198762571Y-41879235D01*
X198738773Y-41885196D01*
X198714504Y-41888796D01*
X198690000Y-41890000D01*
X194790000Y-41890000D01*
X194765496Y-41888796D01*
X194741227Y-41885196D01*
X194717429Y-41879235D01*
X194694329Y-41870970D01*
X194672151Y-41860480D01*
X194651107Y-41847867D01*
X194631402Y-41833253D01*
X194613223Y-41816777D01*
X194596747Y-41798598D01*
X194582133Y-41778893D01*
X194569520Y-41757849D01*
X194559030Y-41735671D01*
X194550765Y-41712571D01*
X194544804Y-41688773D01*
X194541204Y-41664504D01*
X194540000Y-41640000D01*
X194540000Y-39640000D01*
X194541204Y-39615496D01*
X194544804Y-39591227D01*
X194550765Y-39567429D01*
X194559030Y-39544329D01*
X194569520Y-39522151D01*
X194582133Y-39501107D01*
X194596747Y-39481402D01*
X194613223Y-39463223D01*
X194631402Y-39446747D01*
X194651107Y-39432133D01*
X194672151Y-39419520D01*
X194694329Y-39409030D01*
X194717429Y-39400765D01*
X194741227Y-39394804D01*
X194765496Y-39391204D01*
X194790000Y-39390000D01*
X198690000Y-39390000D01*
X198714504Y-39391204D01*
X198714504Y-39391204D01*
G37*
D18*
X196740000Y-40640000D03*
D13*
G36*
X183814504Y-42381204D02*
X183838773Y-42384804D01*
X183862571Y-42390765D01*
X183885671Y-42399030D01*
X183907849Y-42409520D01*
X183928893Y-42422133D01*
X183948598Y-42436747D01*
X183966777Y-42453223D01*
X183983253Y-42471402D01*
X183997867Y-42491107D01*
X184010480Y-42512151D01*
X184020970Y-42534329D01*
X184029235Y-42557429D01*
X184035196Y-42581227D01*
X184038796Y-42605496D01*
X184040000Y-42630000D01*
X184040000Y-43730000D01*
X184038796Y-43754504D01*
X184035196Y-43778773D01*
X184029235Y-43802571D01*
X184020970Y-43825671D01*
X184010480Y-43847849D01*
X183997867Y-43868893D01*
X183983253Y-43888598D01*
X183966777Y-43906777D01*
X183948598Y-43923253D01*
X183928893Y-43937867D01*
X183907849Y-43950480D01*
X183885671Y-43960970D01*
X183862571Y-43969235D01*
X183838773Y-43975196D01*
X183814504Y-43978796D01*
X183790000Y-43980000D01*
X181290000Y-43980000D01*
X181265496Y-43978796D01*
X181241227Y-43975196D01*
X181217429Y-43969235D01*
X181194329Y-43960970D01*
X181172151Y-43950480D01*
X181151107Y-43937867D01*
X181131402Y-43923253D01*
X181113223Y-43906777D01*
X181096747Y-43888598D01*
X181082133Y-43868893D01*
X181069520Y-43847849D01*
X181059030Y-43825671D01*
X181050765Y-43802571D01*
X181044804Y-43778773D01*
X181041204Y-43754504D01*
X181040000Y-43730000D01*
X181040000Y-42630000D01*
X181041204Y-42605496D01*
X181044804Y-42581227D01*
X181050765Y-42557429D01*
X181059030Y-42534329D01*
X181069520Y-42512151D01*
X181082133Y-42491107D01*
X181096747Y-42471402D01*
X181113223Y-42453223D01*
X181131402Y-42436747D01*
X181151107Y-42422133D01*
X181172151Y-42409520D01*
X181194329Y-42399030D01*
X181217429Y-42390765D01*
X181241227Y-42384804D01*
X181265496Y-42381204D01*
X181290000Y-42380000D01*
X183790000Y-42380000D01*
X183814504Y-42381204D01*
X183814504Y-42381204D01*
G37*
D16*
X182540000Y-43180000D03*
D13*
G36*
X179414504Y-42381204D02*
X179438773Y-42384804D01*
X179462571Y-42390765D01*
X179485671Y-42399030D01*
X179507849Y-42409520D01*
X179528893Y-42422133D01*
X179548598Y-42436747D01*
X179566777Y-42453223D01*
X179583253Y-42471402D01*
X179597867Y-42491107D01*
X179610480Y-42512151D01*
X179620970Y-42534329D01*
X179629235Y-42557429D01*
X179635196Y-42581227D01*
X179638796Y-42605496D01*
X179640000Y-42630000D01*
X179640000Y-43730000D01*
X179638796Y-43754504D01*
X179635196Y-43778773D01*
X179629235Y-43802571D01*
X179620970Y-43825671D01*
X179610480Y-43847849D01*
X179597867Y-43868893D01*
X179583253Y-43888598D01*
X179566777Y-43906777D01*
X179548598Y-43923253D01*
X179528893Y-43937867D01*
X179507849Y-43950480D01*
X179485671Y-43960970D01*
X179462571Y-43969235D01*
X179438773Y-43975196D01*
X179414504Y-43978796D01*
X179390000Y-43980000D01*
X176890000Y-43980000D01*
X176865496Y-43978796D01*
X176841227Y-43975196D01*
X176817429Y-43969235D01*
X176794329Y-43960970D01*
X176772151Y-43950480D01*
X176751107Y-43937867D01*
X176731402Y-43923253D01*
X176713223Y-43906777D01*
X176696747Y-43888598D01*
X176682133Y-43868893D01*
X176669520Y-43847849D01*
X176659030Y-43825671D01*
X176650765Y-43802571D01*
X176644804Y-43778773D01*
X176641204Y-43754504D01*
X176640000Y-43730000D01*
X176640000Y-42630000D01*
X176641204Y-42605496D01*
X176644804Y-42581227D01*
X176650765Y-42557429D01*
X176659030Y-42534329D01*
X176669520Y-42512151D01*
X176682133Y-42491107D01*
X176696747Y-42471402D01*
X176713223Y-42453223D01*
X176731402Y-42436747D01*
X176751107Y-42422133D01*
X176772151Y-42409520D01*
X176794329Y-42399030D01*
X176817429Y-42390765D01*
X176841227Y-42384804D01*
X176865496Y-42381204D01*
X176890000Y-42380000D01*
X179390000Y-42380000D01*
X179414504Y-42381204D01*
X179414504Y-42381204D01*
G37*
D16*
X178140000Y-43180000D03*
D13*
G36*
X174590142Y-32321174D02*
X174613803Y-32324684D01*
X174637007Y-32330496D01*
X174659529Y-32338554D01*
X174681153Y-32348782D01*
X174701670Y-32361079D01*
X174720883Y-32375329D01*
X174738607Y-32391393D01*
X174754671Y-32409117D01*
X174768921Y-32428330D01*
X174781218Y-32448847D01*
X174791446Y-32470471D01*
X174799504Y-32492993D01*
X174805316Y-32516197D01*
X174808826Y-32539858D01*
X174810000Y-32563750D01*
X174810000Y-33476250D01*
X174808826Y-33500142D01*
X174805316Y-33523803D01*
X174799504Y-33547007D01*
X174791446Y-33569529D01*
X174781218Y-33591153D01*
X174768921Y-33611670D01*
X174754671Y-33630883D01*
X174738607Y-33648607D01*
X174720883Y-33664671D01*
X174701670Y-33678921D01*
X174681153Y-33691218D01*
X174659529Y-33701446D01*
X174637007Y-33709504D01*
X174613803Y-33715316D01*
X174590142Y-33718826D01*
X174566250Y-33720000D01*
X174078750Y-33720000D01*
X174054858Y-33718826D01*
X174031197Y-33715316D01*
X174007993Y-33709504D01*
X173985471Y-33701446D01*
X173963847Y-33691218D01*
X173943330Y-33678921D01*
X173924117Y-33664671D01*
X173906393Y-33648607D01*
X173890329Y-33630883D01*
X173876079Y-33611670D01*
X173863782Y-33591153D01*
X173853554Y-33569529D01*
X173845496Y-33547007D01*
X173839684Y-33523803D01*
X173836174Y-33500142D01*
X173835000Y-33476250D01*
X173835000Y-32563750D01*
X173836174Y-32539858D01*
X173839684Y-32516197D01*
X173845496Y-32492993D01*
X173853554Y-32470471D01*
X173863782Y-32448847D01*
X173876079Y-32428330D01*
X173890329Y-32409117D01*
X173906393Y-32391393D01*
X173924117Y-32375329D01*
X173943330Y-32361079D01*
X173963847Y-32348782D01*
X173985471Y-32338554D01*
X174007993Y-32330496D01*
X174031197Y-32324684D01*
X174054858Y-32321174D01*
X174078750Y-32320000D01*
X174566250Y-32320000D01*
X174590142Y-32321174D01*
X174590142Y-32321174D01*
G37*
D17*
X174322500Y-33020000D03*
D13*
G36*
X176465142Y-32321174D02*
X176488803Y-32324684D01*
X176512007Y-32330496D01*
X176534529Y-32338554D01*
X176556153Y-32348782D01*
X176576670Y-32361079D01*
X176595883Y-32375329D01*
X176613607Y-32391393D01*
X176629671Y-32409117D01*
X176643921Y-32428330D01*
X176656218Y-32448847D01*
X176666446Y-32470471D01*
X176674504Y-32492993D01*
X176680316Y-32516197D01*
X176683826Y-32539858D01*
X176685000Y-32563750D01*
X176685000Y-33476250D01*
X176683826Y-33500142D01*
X176680316Y-33523803D01*
X176674504Y-33547007D01*
X176666446Y-33569529D01*
X176656218Y-33591153D01*
X176643921Y-33611670D01*
X176629671Y-33630883D01*
X176613607Y-33648607D01*
X176595883Y-33664671D01*
X176576670Y-33678921D01*
X176556153Y-33691218D01*
X176534529Y-33701446D01*
X176512007Y-33709504D01*
X176488803Y-33715316D01*
X176465142Y-33718826D01*
X176441250Y-33720000D01*
X175953750Y-33720000D01*
X175929858Y-33718826D01*
X175906197Y-33715316D01*
X175882993Y-33709504D01*
X175860471Y-33701446D01*
X175838847Y-33691218D01*
X175818330Y-33678921D01*
X175799117Y-33664671D01*
X175781393Y-33648607D01*
X175765329Y-33630883D01*
X175751079Y-33611670D01*
X175738782Y-33591153D01*
X175728554Y-33569529D01*
X175720496Y-33547007D01*
X175714684Y-33523803D01*
X175711174Y-33500142D01*
X175710000Y-33476250D01*
X175710000Y-32563750D01*
X175711174Y-32539858D01*
X175714684Y-32516197D01*
X175720496Y-32492993D01*
X175728554Y-32470471D01*
X175738782Y-32448847D01*
X175751079Y-32428330D01*
X175765329Y-32409117D01*
X175781393Y-32391393D01*
X175799117Y-32375329D01*
X175818330Y-32361079D01*
X175838847Y-32348782D01*
X175860471Y-32338554D01*
X175882993Y-32330496D01*
X175906197Y-32324684D01*
X175929858Y-32321174D01*
X175953750Y-32320000D01*
X176441250Y-32320000D01*
X176465142Y-32321174D01*
X176465142Y-32321174D01*
G37*
D17*
X176197500Y-33020000D03*
D13*
G36*
X154542642Y-34861174D02*
X154566303Y-34864684D01*
X154589507Y-34870496D01*
X154612029Y-34878554D01*
X154633653Y-34888782D01*
X154654170Y-34901079D01*
X154673383Y-34915329D01*
X154691107Y-34931393D01*
X154707171Y-34949117D01*
X154721421Y-34968330D01*
X154733718Y-34988847D01*
X154743946Y-35010471D01*
X154752004Y-35032993D01*
X154757816Y-35056197D01*
X154761326Y-35079858D01*
X154762500Y-35103750D01*
X154762500Y-36016250D01*
X154761326Y-36040142D01*
X154757816Y-36063803D01*
X154752004Y-36087007D01*
X154743946Y-36109529D01*
X154733718Y-36131153D01*
X154721421Y-36151670D01*
X154707171Y-36170883D01*
X154691107Y-36188607D01*
X154673383Y-36204671D01*
X154654170Y-36218921D01*
X154633653Y-36231218D01*
X154612029Y-36241446D01*
X154589507Y-36249504D01*
X154566303Y-36255316D01*
X154542642Y-36258826D01*
X154518750Y-36260000D01*
X154031250Y-36260000D01*
X154007358Y-36258826D01*
X153983697Y-36255316D01*
X153960493Y-36249504D01*
X153937971Y-36241446D01*
X153916347Y-36231218D01*
X153895830Y-36218921D01*
X153876617Y-36204671D01*
X153858893Y-36188607D01*
X153842829Y-36170883D01*
X153828579Y-36151670D01*
X153816282Y-36131153D01*
X153806054Y-36109529D01*
X153797996Y-36087007D01*
X153792184Y-36063803D01*
X153788674Y-36040142D01*
X153787500Y-36016250D01*
X153787500Y-35103750D01*
X153788674Y-35079858D01*
X153792184Y-35056197D01*
X153797996Y-35032993D01*
X153806054Y-35010471D01*
X153816282Y-34988847D01*
X153828579Y-34968330D01*
X153842829Y-34949117D01*
X153858893Y-34931393D01*
X153876617Y-34915329D01*
X153895830Y-34901079D01*
X153916347Y-34888782D01*
X153937971Y-34878554D01*
X153960493Y-34870496D01*
X153983697Y-34864684D01*
X154007358Y-34861174D01*
X154031250Y-34860000D01*
X154518750Y-34860000D01*
X154542642Y-34861174D01*
X154542642Y-34861174D01*
G37*
D17*
X154275000Y-35560000D03*
D13*
G36*
X152667642Y-34861174D02*
X152691303Y-34864684D01*
X152714507Y-34870496D01*
X152737029Y-34878554D01*
X152758653Y-34888782D01*
X152779170Y-34901079D01*
X152798383Y-34915329D01*
X152816107Y-34931393D01*
X152832171Y-34949117D01*
X152846421Y-34968330D01*
X152858718Y-34988847D01*
X152868946Y-35010471D01*
X152877004Y-35032993D01*
X152882816Y-35056197D01*
X152886326Y-35079858D01*
X152887500Y-35103750D01*
X152887500Y-36016250D01*
X152886326Y-36040142D01*
X152882816Y-36063803D01*
X152877004Y-36087007D01*
X152868946Y-36109529D01*
X152858718Y-36131153D01*
X152846421Y-36151670D01*
X152832171Y-36170883D01*
X152816107Y-36188607D01*
X152798383Y-36204671D01*
X152779170Y-36218921D01*
X152758653Y-36231218D01*
X152737029Y-36241446D01*
X152714507Y-36249504D01*
X152691303Y-36255316D01*
X152667642Y-36258826D01*
X152643750Y-36260000D01*
X152156250Y-36260000D01*
X152132358Y-36258826D01*
X152108697Y-36255316D01*
X152085493Y-36249504D01*
X152062971Y-36241446D01*
X152041347Y-36231218D01*
X152020830Y-36218921D01*
X152001617Y-36204671D01*
X151983893Y-36188607D01*
X151967829Y-36170883D01*
X151953579Y-36151670D01*
X151941282Y-36131153D01*
X151931054Y-36109529D01*
X151922996Y-36087007D01*
X151917184Y-36063803D01*
X151913674Y-36040142D01*
X151912500Y-36016250D01*
X151912500Y-35103750D01*
X151913674Y-35079858D01*
X151917184Y-35056197D01*
X151922996Y-35032993D01*
X151931054Y-35010471D01*
X151941282Y-34988847D01*
X151953579Y-34968330D01*
X151967829Y-34949117D01*
X151983893Y-34931393D01*
X152001617Y-34915329D01*
X152020830Y-34901079D01*
X152041347Y-34888782D01*
X152062971Y-34878554D01*
X152085493Y-34870496D01*
X152108697Y-34864684D01*
X152132358Y-34861174D01*
X152156250Y-34860000D01*
X152643750Y-34860000D01*
X152667642Y-34861174D01*
X152667642Y-34861174D01*
G37*
D17*
X152400000Y-35560000D03*
D13*
G36*
X118336142Y-56996174D02*
X118359803Y-56999684D01*
X118383007Y-57005496D01*
X118405529Y-57013554D01*
X118427153Y-57023782D01*
X118447670Y-57036079D01*
X118466883Y-57050329D01*
X118484607Y-57066393D01*
X118500671Y-57084117D01*
X118514921Y-57103330D01*
X118527218Y-57123847D01*
X118537446Y-57145471D01*
X118545504Y-57167993D01*
X118551316Y-57191197D01*
X118554826Y-57214858D01*
X118556000Y-57238750D01*
X118556000Y-57726250D01*
X118554826Y-57750142D01*
X118551316Y-57773803D01*
X118545504Y-57797007D01*
X118537446Y-57819529D01*
X118527218Y-57841153D01*
X118514921Y-57861670D01*
X118500671Y-57880883D01*
X118484607Y-57898607D01*
X118466883Y-57914671D01*
X118447670Y-57928921D01*
X118427153Y-57941218D01*
X118405529Y-57951446D01*
X118383007Y-57959504D01*
X118359803Y-57965316D01*
X118336142Y-57968826D01*
X118312250Y-57970000D01*
X117399750Y-57970000D01*
X117375858Y-57968826D01*
X117352197Y-57965316D01*
X117328993Y-57959504D01*
X117306471Y-57951446D01*
X117284847Y-57941218D01*
X117264330Y-57928921D01*
X117245117Y-57914671D01*
X117227393Y-57898607D01*
X117211329Y-57880883D01*
X117197079Y-57861670D01*
X117184782Y-57841153D01*
X117174554Y-57819529D01*
X117166496Y-57797007D01*
X117160684Y-57773803D01*
X117157174Y-57750142D01*
X117156000Y-57726250D01*
X117156000Y-57238750D01*
X117157174Y-57214858D01*
X117160684Y-57191197D01*
X117166496Y-57167993D01*
X117174554Y-57145471D01*
X117184782Y-57123847D01*
X117197079Y-57103330D01*
X117211329Y-57084117D01*
X117227393Y-57066393D01*
X117245117Y-57050329D01*
X117264330Y-57036079D01*
X117284847Y-57023782D01*
X117306471Y-57013554D01*
X117328993Y-57005496D01*
X117352197Y-56999684D01*
X117375858Y-56996174D01*
X117399750Y-56995000D01*
X118312250Y-56995000D01*
X118336142Y-56996174D01*
X118336142Y-56996174D01*
G37*
D17*
X117856000Y-57482500D03*
D13*
G36*
X118336142Y-58871174D02*
X118359803Y-58874684D01*
X118383007Y-58880496D01*
X118405529Y-58888554D01*
X118427153Y-58898782D01*
X118447670Y-58911079D01*
X118466883Y-58925329D01*
X118484607Y-58941393D01*
X118500671Y-58959117D01*
X118514921Y-58978330D01*
X118527218Y-58998847D01*
X118537446Y-59020471D01*
X118545504Y-59042993D01*
X118551316Y-59066197D01*
X118554826Y-59089858D01*
X118556000Y-59113750D01*
X118556000Y-59601250D01*
X118554826Y-59625142D01*
X118551316Y-59648803D01*
X118545504Y-59672007D01*
X118537446Y-59694529D01*
X118527218Y-59716153D01*
X118514921Y-59736670D01*
X118500671Y-59755883D01*
X118484607Y-59773607D01*
X118466883Y-59789671D01*
X118447670Y-59803921D01*
X118427153Y-59816218D01*
X118405529Y-59826446D01*
X118383007Y-59834504D01*
X118359803Y-59840316D01*
X118336142Y-59843826D01*
X118312250Y-59845000D01*
X117399750Y-59845000D01*
X117375858Y-59843826D01*
X117352197Y-59840316D01*
X117328993Y-59834504D01*
X117306471Y-59826446D01*
X117284847Y-59816218D01*
X117264330Y-59803921D01*
X117245117Y-59789671D01*
X117227393Y-59773607D01*
X117211329Y-59755883D01*
X117197079Y-59736670D01*
X117184782Y-59716153D01*
X117174554Y-59694529D01*
X117166496Y-59672007D01*
X117160684Y-59648803D01*
X117157174Y-59625142D01*
X117156000Y-59601250D01*
X117156000Y-59113750D01*
X117157174Y-59089858D01*
X117160684Y-59066197D01*
X117166496Y-59042993D01*
X117174554Y-59020471D01*
X117184782Y-58998847D01*
X117197079Y-58978330D01*
X117211329Y-58959117D01*
X117227393Y-58941393D01*
X117245117Y-58925329D01*
X117264330Y-58911079D01*
X117284847Y-58898782D01*
X117306471Y-58888554D01*
X117328993Y-58880496D01*
X117352197Y-58874684D01*
X117375858Y-58871174D01*
X117399750Y-58870000D01*
X118312250Y-58870000D01*
X118336142Y-58871174D01*
X118336142Y-58871174D01*
G37*
D17*
X117856000Y-59357500D03*
D13*
G36*
X109286504Y-55829204D02*
X109310773Y-55832804D01*
X109334571Y-55838765D01*
X109357671Y-55847030D01*
X109379849Y-55857520D01*
X109400893Y-55870133D01*
X109420598Y-55884747D01*
X109438777Y-55901223D01*
X109455253Y-55919402D01*
X109469867Y-55939107D01*
X109482480Y-55960151D01*
X109492970Y-55982329D01*
X109501235Y-56005429D01*
X109507196Y-56029227D01*
X109510796Y-56053496D01*
X109512000Y-56078000D01*
X109512000Y-58178000D01*
X109510796Y-58202504D01*
X109507196Y-58226773D01*
X109501235Y-58250571D01*
X109492970Y-58273671D01*
X109482480Y-58295849D01*
X109469867Y-58316893D01*
X109455253Y-58336598D01*
X109438777Y-58354777D01*
X109420598Y-58371253D01*
X109400893Y-58385867D01*
X109379849Y-58398480D01*
X109357671Y-58408970D01*
X109334571Y-58417235D01*
X109310773Y-58423196D01*
X109286504Y-58426796D01*
X109262000Y-58428000D01*
X108162000Y-58428000D01*
X108137496Y-58426796D01*
X108113227Y-58423196D01*
X108089429Y-58417235D01*
X108066329Y-58408970D01*
X108044151Y-58398480D01*
X108023107Y-58385867D01*
X108003402Y-58371253D01*
X107985223Y-58354777D01*
X107968747Y-58336598D01*
X107954133Y-58316893D01*
X107941520Y-58295849D01*
X107931030Y-58273671D01*
X107922765Y-58250571D01*
X107916804Y-58226773D01*
X107913204Y-58202504D01*
X107912000Y-58178000D01*
X107912000Y-56078000D01*
X107913204Y-56053496D01*
X107916804Y-56029227D01*
X107922765Y-56005429D01*
X107931030Y-55982329D01*
X107941520Y-55960151D01*
X107954133Y-55939107D01*
X107968747Y-55919402D01*
X107985223Y-55901223D01*
X108003402Y-55884747D01*
X108023107Y-55870133D01*
X108044151Y-55857520D01*
X108066329Y-55847030D01*
X108089429Y-55838765D01*
X108113227Y-55832804D01*
X108137496Y-55829204D01*
X108162000Y-55828000D01*
X109262000Y-55828000D01*
X109286504Y-55829204D01*
X109286504Y-55829204D01*
G37*
D16*
X108712000Y-57128000D03*
D13*
G36*
X109286504Y-59429204D02*
X109310773Y-59432804D01*
X109334571Y-59438765D01*
X109357671Y-59447030D01*
X109379849Y-59457520D01*
X109400893Y-59470133D01*
X109420598Y-59484747D01*
X109438777Y-59501223D01*
X109455253Y-59519402D01*
X109469867Y-59539107D01*
X109482480Y-59560151D01*
X109492970Y-59582329D01*
X109501235Y-59605429D01*
X109507196Y-59629227D01*
X109510796Y-59653496D01*
X109512000Y-59678000D01*
X109512000Y-61778000D01*
X109510796Y-61802504D01*
X109507196Y-61826773D01*
X109501235Y-61850571D01*
X109492970Y-61873671D01*
X109482480Y-61895849D01*
X109469867Y-61916893D01*
X109455253Y-61936598D01*
X109438777Y-61954777D01*
X109420598Y-61971253D01*
X109400893Y-61985867D01*
X109379849Y-61998480D01*
X109357671Y-62008970D01*
X109334571Y-62017235D01*
X109310773Y-62023196D01*
X109286504Y-62026796D01*
X109262000Y-62028000D01*
X108162000Y-62028000D01*
X108137496Y-62026796D01*
X108113227Y-62023196D01*
X108089429Y-62017235D01*
X108066329Y-62008970D01*
X108044151Y-61998480D01*
X108023107Y-61985867D01*
X108003402Y-61971253D01*
X107985223Y-61954777D01*
X107968747Y-61936598D01*
X107954133Y-61916893D01*
X107941520Y-61895849D01*
X107931030Y-61873671D01*
X107922765Y-61850571D01*
X107916804Y-61826773D01*
X107913204Y-61802504D01*
X107912000Y-61778000D01*
X107912000Y-59678000D01*
X107913204Y-59653496D01*
X107916804Y-59629227D01*
X107922765Y-59605429D01*
X107931030Y-59582329D01*
X107941520Y-59560151D01*
X107954133Y-59539107D01*
X107968747Y-59519402D01*
X107985223Y-59501223D01*
X108003402Y-59484747D01*
X108023107Y-59470133D01*
X108044151Y-59457520D01*
X108066329Y-59447030D01*
X108089429Y-59438765D01*
X108113227Y-59432804D01*
X108137496Y-59429204D01*
X108162000Y-59428000D01*
X109262000Y-59428000D01*
X109286504Y-59429204D01*
X109286504Y-59429204D01*
G37*
D16*
X108712000Y-60728000D03*
D19*
X186690000Y-85980000D03*
X186690000Y-89280000D03*
D20*
X105156000Y-76200000D03*
D21*
X105156000Y-78740000D03*
X104902000Y-40640000D03*
D20*
X104902000Y-43180000D03*
D22*
X170180000Y-46482000D03*
X167640000Y-46482000D03*
X165100000Y-46482000D03*
X162560000Y-46482000D03*
D23*
X160020000Y-46482000D03*
X198120000Y-59690000D03*
D22*
X198120000Y-62230000D03*
D24*
X135350000Y-81280000D03*
D13*
G36*
X133724505Y-80406204D02*
X133748773Y-80409804D01*
X133772572Y-80415765D01*
X133795671Y-80424030D01*
X133817850Y-80434520D01*
X133838893Y-80447132D01*
X133858599Y-80461747D01*
X133876777Y-80478223D01*
X133893253Y-80496401D01*
X133907868Y-80516107D01*
X133920480Y-80537150D01*
X133930970Y-80559329D01*
X133939235Y-80582428D01*
X133945196Y-80606227D01*
X133948796Y-80630495D01*
X133950000Y-80654999D01*
X133950000Y-81905001D01*
X133948796Y-81929505D01*
X133945196Y-81953773D01*
X133939235Y-81977572D01*
X133930970Y-82000671D01*
X133920480Y-82022850D01*
X133907868Y-82043893D01*
X133893253Y-82063599D01*
X133876777Y-82081777D01*
X133858599Y-82098253D01*
X133838893Y-82112868D01*
X133817850Y-82125480D01*
X133795671Y-82135970D01*
X133772572Y-82144235D01*
X133748773Y-82150196D01*
X133724505Y-82153796D01*
X133700001Y-82155000D01*
X132999999Y-82155000D01*
X132975495Y-82153796D01*
X132951227Y-82150196D01*
X132927428Y-82144235D01*
X132904329Y-82135970D01*
X132882150Y-82125480D01*
X132861107Y-82112868D01*
X132841401Y-82098253D01*
X132823223Y-82081777D01*
X132806747Y-82063599D01*
X132792132Y-82043893D01*
X132779520Y-82022850D01*
X132769030Y-82000671D01*
X132760765Y-81977572D01*
X132754804Y-81953773D01*
X132751204Y-81929505D01*
X132750000Y-81905001D01*
X132750000Y-80654999D01*
X132751204Y-80630495D01*
X132754804Y-80606227D01*
X132760765Y-80582428D01*
X132769030Y-80559329D01*
X132779520Y-80537150D01*
X132792132Y-80516107D01*
X132806747Y-80496401D01*
X132823223Y-80478223D01*
X132841401Y-80461747D01*
X132861107Y-80447132D01*
X132882150Y-80434520D01*
X132904329Y-80424030D01*
X132927428Y-80415765D01*
X132951227Y-80409804D01*
X132975495Y-80406204D01*
X132999999Y-80405000D01*
X133700001Y-80405000D01*
X133724505Y-80406204D01*
X133724505Y-80406204D01*
G37*
D14*
X133350000Y-81280000D03*
D24*
X144240000Y-81280000D03*
D13*
G36*
X142614505Y-80406204D02*
X142638773Y-80409804D01*
X142662572Y-80415765D01*
X142685671Y-80424030D01*
X142707850Y-80434520D01*
X142728893Y-80447132D01*
X142748599Y-80461747D01*
X142766777Y-80478223D01*
X142783253Y-80496401D01*
X142797868Y-80516107D01*
X142810480Y-80537150D01*
X142820970Y-80559329D01*
X142829235Y-80582428D01*
X142835196Y-80606227D01*
X142838796Y-80630495D01*
X142840000Y-80654999D01*
X142840000Y-81905001D01*
X142838796Y-81929505D01*
X142835196Y-81953773D01*
X142829235Y-81977572D01*
X142820970Y-82000671D01*
X142810480Y-82022850D01*
X142797868Y-82043893D01*
X142783253Y-82063599D01*
X142766777Y-82081777D01*
X142748599Y-82098253D01*
X142728893Y-82112868D01*
X142707850Y-82125480D01*
X142685671Y-82135970D01*
X142662572Y-82144235D01*
X142638773Y-82150196D01*
X142614505Y-82153796D01*
X142590001Y-82155000D01*
X141889999Y-82155000D01*
X141865495Y-82153796D01*
X141841227Y-82150196D01*
X141817428Y-82144235D01*
X141794329Y-82135970D01*
X141772150Y-82125480D01*
X141751107Y-82112868D01*
X141731401Y-82098253D01*
X141713223Y-82081777D01*
X141696747Y-82063599D01*
X141682132Y-82043893D01*
X141669520Y-82022850D01*
X141659030Y-82000671D01*
X141650765Y-81977572D01*
X141644804Y-81953773D01*
X141641204Y-81929505D01*
X141640000Y-81905001D01*
X141640000Y-80654999D01*
X141641204Y-80630495D01*
X141644804Y-80606227D01*
X141650765Y-80582428D01*
X141659030Y-80559329D01*
X141669520Y-80537150D01*
X141682132Y-80516107D01*
X141696747Y-80496401D01*
X141713223Y-80478223D01*
X141731401Y-80461747D01*
X141751107Y-80447132D01*
X141772150Y-80434520D01*
X141794329Y-80424030D01*
X141817428Y-80415765D01*
X141841227Y-80409804D01*
X141865495Y-80406204D01*
X141889999Y-80405000D01*
X142590001Y-80405000D01*
X142614505Y-80406204D01*
X142614505Y-80406204D01*
G37*
D14*
X142240000Y-81280000D03*
D13*
G36*
X151504505Y-80406204D02*
X151528773Y-80409804D01*
X151552572Y-80415765D01*
X151575671Y-80424030D01*
X151597850Y-80434520D01*
X151618893Y-80447132D01*
X151638599Y-80461747D01*
X151656777Y-80478223D01*
X151673253Y-80496401D01*
X151687868Y-80516107D01*
X151700480Y-80537150D01*
X151710970Y-80559329D01*
X151719235Y-80582428D01*
X151725196Y-80606227D01*
X151728796Y-80630495D01*
X151730000Y-80654999D01*
X151730000Y-81905001D01*
X151728796Y-81929505D01*
X151725196Y-81953773D01*
X151719235Y-81977572D01*
X151710970Y-82000671D01*
X151700480Y-82022850D01*
X151687868Y-82043893D01*
X151673253Y-82063599D01*
X151656777Y-82081777D01*
X151638599Y-82098253D01*
X151618893Y-82112868D01*
X151597850Y-82125480D01*
X151575671Y-82135970D01*
X151552572Y-82144235D01*
X151528773Y-82150196D01*
X151504505Y-82153796D01*
X151480001Y-82155000D01*
X150779999Y-82155000D01*
X150755495Y-82153796D01*
X150731227Y-82150196D01*
X150707428Y-82144235D01*
X150684329Y-82135970D01*
X150662150Y-82125480D01*
X150641107Y-82112868D01*
X150621401Y-82098253D01*
X150603223Y-82081777D01*
X150586747Y-82063599D01*
X150572132Y-82043893D01*
X150559520Y-82022850D01*
X150549030Y-82000671D01*
X150540765Y-81977572D01*
X150534804Y-81953773D01*
X150531204Y-81929505D01*
X150530000Y-81905001D01*
X150530000Y-80654999D01*
X150531204Y-80630495D01*
X150534804Y-80606227D01*
X150540765Y-80582428D01*
X150549030Y-80559329D01*
X150559520Y-80537150D01*
X150572132Y-80516107D01*
X150586747Y-80496401D01*
X150603223Y-80478223D01*
X150621401Y-80461747D01*
X150641107Y-80447132D01*
X150662150Y-80434520D01*
X150684329Y-80424030D01*
X150707428Y-80415765D01*
X150731227Y-80409804D01*
X150755495Y-80406204D01*
X150779999Y-80405000D01*
X151480001Y-80405000D01*
X151504505Y-80406204D01*
X151504505Y-80406204D01*
G37*
D14*
X151130000Y-81280000D03*
D24*
X153130000Y-81280000D03*
D13*
G36*
X160394505Y-80406204D02*
X160418773Y-80409804D01*
X160442572Y-80415765D01*
X160465671Y-80424030D01*
X160487850Y-80434520D01*
X160508893Y-80447132D01*
X160528599Y-80461747D01*
X160546777Y-80478223D01*
X160563253Y-80496401D01*
X160577868Y-80516107D01*
X160590480Y-80537150D01*
X160600970Y-80559329D01*
X160609235Y-80582428D01*
X160615196Y-80606227D01*
X160618796Y-80630495D01*
X160620000Y-80654999D01*
X160620000Y-81905001D01*
X160618796Y-81929505D01*
X160615196Y-81953773D01*
X160609235Y-81977572D01*
X160600970Y-82000671D01*
X160590480Y-82022850D01*
X160577868Y-82043893D01*
X160563253Y-82063599D01*
X160546777Y-82081777D01*
X160528599Y-82098253D01*
X160508893Y-82112868D01*
X160487850Y-82125480D01*
X160465671Y-82135970D01*
X160442572Y-82144235D01*
X160418773Y-82150196D01*
X160394505Y-82153796D01*
X160370001Y-82155000D01*
X159669999Y-82155000D01*
X159645495Y-82153796D01*
X159621227Y-82150196D01*
X159597428Y-82144235D01*
X159574329Y-82135970D01*
X159552150Y-82125480D01*
X159531107Y-82112868D01*
X159511401Y-82098253D01*
X159493223Y-82081777D01*
X159476747Y-82063599D01*
X159462132Y-82043893D01*
X159449520Y-82022850D01*
X159439030Y-82000671D01*
X159430765Y-81977572D01*
X159424804Y-81953773D01*
X159421204Y-81929505D01*
X159420000Y-81905001D01*
X159420000Y-80654999D01*
X159421204Y-80630495D01*
X159424804Y-80606227D01*
X159430765Y-80582428D01*
X159439030Y-80559329D01*
X159449520Y-80537150D01*
X159462132Y-80516107D01*
X159476747Y-80496401D01*
X159493223Y-80478223D01*
X159511401Y-80461747D01*
X159531107Y-80447132D01*
X159552150Y-80434520D01*
X159574329Y-80424030D01*
X159597428Y-80415765D01*
X159621227Y-80409804D01*
X159645495Y-80406204D01*
X159669999Y-80405000D01*
X160370001Y-80405000D01*
X160394505Y-80406204D01*
X160394505Y-80406204D01*
G37*
D14*
X160020000Y-81280000D03*
D24*
X162020000Y-81280000D03*
D13*
G36*
X169284505Y-80406204D02*
X169308773Y-80409804D01*
X169332572Y-80415765D01*
X169355671Y-80424030D01*
X169377850Y-80434520D01*
X169398893Y-80447132D01*
X169418599Y-80461747D01*
X169436777Y-80478223D01*
X169453253Y-80496401D01*
X169467868Y-80516107D01*
X169480480Y-80537150D01*
X169490970Y-80559329D01*
X169499235Y-80582428D01*
X169505196Y-80606227D01*
X169508796Y-80630495D01*
X169510000Y-80654999D01*
X169510000Y-81905001D01*
X169508796Y-81929505D01*
X169505196Y-81953773D01*
X169499235Y-81977572D01*
X169490970Y-82000671D01*
X169480480Y-82022850D01*
X169467868Y-82043893D01*
X169453253Y-82063599D01*
X169436777Y-82081777D01*
X169418599Y-82098253D01*
X169398893Y-82112868D01*
X169377850Y-82125480D01*
X169355671Y-82135970D01*
X169332572Y-82144235D01*
X169308773Y-82150196D01*
X169284505Y-82153796D01*
X169260001Y-82155000D01*
X168559999Y-82155000D01*
X168535495Y-82153796D01*
X168511227Y-82150196D01*
X168487428Y-82144235D01*
X168464329Y-82135970D01*
X168442150Y-82125480D01*
X168421107Y-82112868D01*
X168401401Y-82098253D01*
X168383223Y-82081777D01*
X168366747Y-82063599D01*
X168352132Y-82043893D01*
X168339520Y-82022850D01*
X168329030Y-82000671D01*
X168320765Y-81977572D01*
X168314804Y-81953773D01*
X168311204Y-81929505D01*
X168310000Y-81905001D01*
X168310000Y-80654999D01*
X168311204Y-80630495D01*
X168314804Y-80606227D01*
X168320765Y-80582428D01*
X168329030Y-80559329D01*
X168339520Y-80537150D01*
X168352132Y-80516107D01*
X168366747Y-80496401D01*
X168383223Y-80478223D01*
X168401401Y-80461747D01*
X168421107Y-80447132D01*
X168442150Y-80434520D01*
X168464329Y-80424030D01*
X168487428Y-80415765D01*
X168511227Y-80409804D01*
X168535495Y-80406204D01*
X168559999Y-80405000D01*
X169260001Y-80405000D01*
X169284505Y-80406204D01*
X169284505Y-80406204D01*
G37*
D14*
X168910000Y-81280000D03*
D24*
X170910000Y-81280000D03*
D15*
X193040000Y-29750000D03*
D13*
G36*
X193689505Y-31151204D02*
X193713773Y-31154804D01*
X193737572Y-31160765D01*
X193760671Y-31169030D01*
X193782850Y-31179520D01*
X193803893Y-31192132D01*
X193823599Y-31206747D01*
X193841777Y-31223223D01*
X193858253Y-31241401D01*
X193872868Y-31261107D01*
X193885480Y-31282150D01*
X193895970Y-31304329D01*
X193904235Y-31327428D01*
X193910196Y-31351227D01*
X193913796Y-31375495D01*
X193915000Y-31399999D01*
X193915000Y-32100001D01*
X193913796Y-32124505D01*
X193910196Y-32148773D01*
X193904235Y-32172572D01*
X193895970Y-32195671D01*
X193885480Y-32217850D01*
X193872868Y-32238893D01*
X193858253Y-32258599D01*
X193841777Y-32276777D01*
X193823599Y-32293253D01*
X193803893Y-32307868D01*
X193782850Y-32320480D01*
X193760671Y-32330970D01*
X193737572Y-32339235D01*
X193713773Y-32345196D01*
X193689505Y-32348796D01*
X193665001Y-32350000D01*
X192414999Y-32350000D01*
X192390495Y-32348796D01*
X192366227Y-32345196D01*
X192342428Y-32339235D01*
X192319329Y-32330970D01*
X192297150Y-32320480D01*
X192276107Y-32307868D01*
X192256401Y-32293253D01*
X192238223Y-32276777D01*
X192221747Y-32258599D01*
X192207132Y-32238893D01*
X192194520Y-32217850D01*
X192184030Y-32195671D01*
X192175765Y-32172572D01*
X192169804Y-32148773D01*
X192166204Y-32124505D01*
X192165000Y-32100001D01*
X192165000Y-31399999D01*
X192166204Y-31375495D01*
X192169804Y-31351227D01*
X192175765Y-31327428D01*
X192184030Y-31304329D01*
X192194520Y-31282150D01*
X192207132Y-31261107D01*
X192221747Y-31241401D01*
X192238223Y-31223223D01*
X192256401Y-31206747D01*
X192276107Y-31192132D01*
X192297150Y-31179520D01*
X192319329Y-31169030D01*
X192342428Y-31160765D01*
X192366227Y-31154804D01*
X192390495Y-31151204D01*
X192414999Y-31150000D01*
X193665001Y-31150000D01*
X193689505Y-31151204D01*
X193689505Y-31151204D01*
G37*
D14*
X193040000Y-31750000D03*
D25*
X169926000Y-72898000D03*
X168656000Y-72898000D03*
D26*
X171196000Y-72898000D03*
X153416000Y-72898000D03*
D25*
X150876000Y-72898000D03*
X152146000Y-72898000D03*
X161036000Y-72898000D03*
X159766000Y-72898000D03*
D26*
X162306000Y-72898000D03*
D13*
G36*
X178280142Y-86206174D02*
X178303803Y-86209684D01*
X178327007Y-86215496D01*
X178349529Y-86223554D01*
X178371153Y-86233782D01*
X178391670Y-86246079D01*
X178410883Y-86260329D01*
X178428607Y-86276393D01*
X178444671Y-86294117D01*
X178458921Y-86313330D01*
X178471218Y-86333847D01*
X178481446Y-86355471D01*
X178489504Y-86377993D01*
X178495316Y-86401197D01*
X178498826Y-86424858D01*
X178500000Y-86448750D01*
X178500000Y-86936250D01*
X178498826Y-86960142D01*
X178495316Y-86983803D01*
X178489504Y-87007007D01*
X178481446Y-87029529D01*
X178471218Y-87051153D01*
X178458921Y-87071670D01*
X178444671Y-87090883D01*
X178428607Y-87108607D01*
X178410883Y-87124671D01*
X178391670Y-87138921D01*
X178371153Y-87151218D01*
X178349529Y-87161446D01*
X178327007Y-87169504D01*
X178303803Y-87175316D01*
X178280142Y-87178826D01*
X178256250Y-87180000D01*
X177343750Y-87180000D01*
X177319858Y-87178826D01*
X177296197Y-87175316D01*
X177272993Y-87169504D01*
X177250471Y-87161446D01*
X177228847Y-87151218D01*
X177208330Y-87138921D01*
X177189117Y-87124671D01*
X177171393Y-87108607D01*
X177155329Y-87090883D01*
X177141079Y-87071670D01*
X177128782Y-87051153D01*
X177118554Y-87029529D01*
X177110496Y-87007007D01*
X177104684Y-86983803D01*
X177101174Y-86960142D01*
X177100000Y-86936250D01*
X177100000Y-86448750D01*
X177101174Y-86424858D01*
X177104684Y-86401197D01*
X177110496Y-86377993D01*
X177118554Y-86355471D01*
X177128782Y-86333847D01*
X177141079Y-86313330D01*
X177155329Y-86294117D01*
X177171393Y-86276393D01*
X177189117Y-86260329D01*
X177208330Y-86246079D01*
X177228847Y-86233782D01*
X177250471Y-86223554D01*
X177272993Y-86215496D01*
X177296197Y-86209684D01*
X177319858Y-86206174D01*
X177343750Y-86205000D01*
X178256250Y-86205000D01*
X178280142Y-86206174D01*
X178280142Y-86206174D01*
G37*
D17*
X177800000Y-86692500D03*
D13*
G36*
X178280142Y-88081174D02*
X178303803Y-88084684D01*
X178327007Y-88090496D01*
X178349529Y-88098554D01*
X178371153Y-88108782D01*
X178391670Y-88121079D01*
X178410883Y-88135329D01*
X178428607Y-88151393D01*
X178444671Y-88169117D01*
X178458921Y-88188330D01*
X178471218Y-88208847D01*
X178481446Y-88230471D01*
X178489504Y-88252993D01*
X178495316Y-88276197D01*
X178498826Y-88299858D01*
X178500000Y-88323750D01*
X178500000Y-88811250D01*
X178498826Y-88835142D01*
X178495316Y-88858803D01*
X178489504Y-88882007D01*
X178481446Y-88904529D01*
X178471218Y-88926153D01*
X178458921Y-88946670D01*
X178444671Y-88965883D01*
X178428607Y-88983607D01*
X178410883Y-88999671D01*
X178391670Y-89013921D01*
X178371153Y-89026218D01*
X178349529Y-89036446D01*
X178327007Y-89044504D01*
X178303803Y-89050316D01*
X178280142Y-89053826D01*
X178256250Y-89055000D01*
X177343750Y-89055000D01*
X177319858Y-89053826D01*
X177296197Y-89050316D01*
X177272993Y-89044504D01*
X177250471Y-89036446D01*
X177228847Y-89026218D01*
X177208330Y-89013921D01*
X177189117Y-88999671D01*
X177171393Y-88983607D01*
X177155329Y-88965883D01*
X177141079Y-88946670D01*
X177128782Y-88926153D01*
X177118554Y-88904529D01*
X177110496Y-88882007D01*
X177104684Y-88858803D01*
X177101174Y-88835142D01*
X177100000Y-88811250D01*
X177100000Y-88323750D01*
X177101174Y-88299858D01*
X177104684Y-88276197D01*
X177110496Y-88252993D01*
X177118554Y-88230471D01*
X177128782Y-88208847D01*
X177141079Y-88188330D01*
X177155329Y-88169117D01*
X177171393Y-88151393D01*
X177189117Y-88135329D01*
X177208330Y-88121079D01*
X177228847Y-88108782D01*
X177250471Y-88098554D01*
X177272993Y-88090496D01*
X177296197Y-88084684D01*
X177319858Y-88081174D01*
X177343750Y-88080000D01*
X178256250Y-88080000D01*
X178280142Y-88081174D01*
X178280142Y-88081174D01*
G37*
D17*
X177800000Y-88567500D03*
D13*
G36*
X158685142Y-41211174D02*
X158708803Y-41214684D01*
X158732007Y-41220496D01*
X158754529Y-41228554D01*
X158776153Y-41238782D01*
X158796670Y-41251079D01*
X158815883Y-41265329D01*
X158833607Y-41281393D01*
X158849671Y-41299117D01*
X158863921Y-41318330D01*
X158876218Y-41338847D01*
X158886446Y-41360471D01*
X158894504Y-41382993D01*
X158900316Y-41406197D01*
X158903826Y-41429858D01*
X158905000Y-41453750D01*
X158905000Y-42366250D01*
X158903826Y-42390142D01*
X158900316Y-42413803D01*
X158894504Y-42437007D01*
X158886446Y-42459529D01*
X158876218Y-42481153D01*
X158863921Y-42501670D01*
X158849671Y-42520883D01*
X158833607Y-42538607D01*
X158815883Y-42554671D01*
X158796670Y-42568921D01*
X158776153Y-42581218D01*
X158754529Y-42591446D01*
X158732007Y-42599504D01*
X158708803Y-42605316D01*
X158685142Y-42608826D01*
X158661250Y-42610000D01*
X158173750Y-42610000D01*
X158149858Y-42608826D01*
X158126197Y-42605316D01*
X158102993Y-42599504D01*
X158080471Y-42591446D01*
X158058847Y-42581218D01*
X158038330Y-42568921D01*
X158019117Y-42554671D01*
X158001393Y-42538607D01*
X157985329Y-42520883D01*
X157971079Y-42501670D01*
X157958782Y-42481153D01*
X157948554Y-42459529D01*
X157940496Y-42437007D01*
X157934684Y-42413803D01*
X157931174Y-42390142D01*
X157930000Y-42366250D01*
X157930000Y-41453750D01*
X157931174Y-41429858D01*
X157934684Y-41406197D01*
X157940496Y-41382993D01*
X157948554Y-41360471D01*
X157958782Y-41338847D01*
X157971079Y-41318330D01*
X157985329Y-41299117D01*
X158001393Y-41281393D01*
X158019117Y-41265329D01*
X158038330Y-41251079D01*
X158058847Y-41238782D01*
X158080471Y-41228554D01*
X158102993Y-41220496D01*
X158126197Y-41214684D01*
X158149858Y-41211174D01*
X158173750Y-41210000D01*
X158661250Y-41210000D01*
X158685142Y-41211174D01*
X158685142Y-41211174D01*
G37*
D17*
X158417500Y-41910000D03*
D13*
G36*
X156810142Y-41211174D02*
X156833803Y-41214684D01*
X156857007Y-41220496D01*
X156879529Y-41228554D01*
X156901153Y-41238782D01*
X156921670Y-41251079D01*
X156940883Y-41265329D01*
X156958607Y-41281393D01*
X156974671Y-41299117D01*
X156988921Y-41318330D01*
X157001218Y-41338847D01*
X157011446Y-41360471D01*
X157019504Y-41382993D01*
X157025316Y-41406197D01*
X157028826Y-41429858D01*
X157030000Y-41453750D01*
X157030000Y-42366250D01*
X157028826Y-42390142D01*
X157025316Y-42413803D01*
X157019504Y-42437007D01*
X157011446Y-42459529D01*
X157001218Y-42481153D01*
X156988921Y-42501670D01*
X156974671Y-42520883D01*
X156958607Y-42538607D01*
X156940883Y-42554671D01*
X156921670Y-42568921D01*
X156901153Y-42581218D01*
X156879529Y-42591446D01*
X156857007Y-42599504D01*
X156833803Y-42605316D01*
X156810142Y-42608826D01*
X156786250Y-42610000D01*
X156298750Y-42610000D01*
X156274858Y-42608826D01*
X156251197Y-42605316D01*
X156227993Y-42599504D01*
X156205471Y-42591446D01*
X156183847Y-42581218D01*
X156163330Y-42568921D01*
X156144117Y-42554671D01*
X156126393Y-42538607D01*
X156110329Y-42520883D01*
X156096079Y-42501670D01*
X156083782Y-42481153D01*
X156073554Y-42459529D01*
X156065496Y-42437007D01*
X156059684Y-42413803D01*
X156056174Y-42390142D01*
X156055000Y-42366250D01*
X156055000Y-41453750D01*
X156056174Y-41429858D01*
X156059684Y-41406197D01*
X156065496Y-41382993D01*
X156073554Y-41360471D01*
X156083782Y-41338847D01*
X156096079Y-41318330D01*
X156110329Y-41299117D01*
X156126393Y-41281393D01*
X156144117Y-41265329D01*
X156163330Y-41251079D01*
X156183847Y-41238782D01*
X156205471Y-41228554D01*
X156227993Y-41220496D01*
X156251197Y-41214684D01*
X156274858Y-41211174D01*
X156298750Y-41210000D01*
X156786250Y-41210000D01*
X156810142Y-41211174D01*
X156810142Y-41211174D01*
G37*
D17*
X156542500Y-41910000D03*
D13*
G36*
X158685142Y-34861174D02*
X158708803Y-34864684D01*
X158732007Y-34870496D01*
X158754529Y-34878554D01*
X158776153Y-34888782D01*
X158796670Y-34901079D01*
X158815883Y-34915329D01*
X158833607Y-34931393D01*
X158849671Y-34949117D01*
X158863921Y-34968330D01*
X158876218Y-34988847D01*
X158886446Y-35010471D01*
X158894504Y-35032993D01*
X158900316Y-35056197D01*
X158903826Y-35079858D01*
X158905000Y-35103750D01*
X158905000Y-36016250D01*
X158903826Y-36040142D01*
X158900316Y-36063803D01*
X158894504Y-36087007D01*
X158886446Y-36109529D01*
X158876218Y-36131153D01*
X158863921Y-36151670D01*
X158849671Y-36170883D01*
X158833607Y-36188607D01*
X158815883Y-36204671D01*
X158796670Y-36218921D01*
X158776153Y-36231218D01*
X158754529Y-36241446D01*
X158732007Y-36249504D01*
X158708803Y-36255316D01*
X158685142Y-36258826D01*
X158661250Y-36260000D01*
X158173750Y-36260000D01*
X158149858Y-36258826D01*
X158126197Y-36255316D01*
X158102993Y-36249504D01*
X158080471Y-36241446D01*
X158058847Y-36231218D01*
X158038330Y-36218921D01*
X158019117Y-36204671D01*
X158001393Y-36188607D01*
X157985329Y-36170883D01*
X157971079Y-36151670D01*
X157958782Y-36131153D01*
X157948554Y-36109529D01*
X157940496Y-36087007D01*
X157934684Y-36063803D01*
X157931174Y-36040142D01*
X157930000Y-36016250D01*
X157930000Y-35103750D01*
X157931174Y-35079858D01*
X157934684Y-35056197D01*
X157940496Y-35032993D01*
X157948554Y-35010471D01*
X157958782Y-34988847D01*
X157971079Y-34968330D01*
X157985329Y-34949117D01*
X158001393Y-34931393D01*
X158019117Y-34915329D01*
X158038330Y-34901079D01*
X158058847Y-34888782D01*
X158080471Y-34878554D01*
X158102993Y-34870496D01*
X158126197Y-34864684D01*
X158149858Y-34861174D01*
X158173750Y-34860000D01*
X158661250Y-34860000D01*
X158685142Y-34861174D01*
X158685142Y-34861174D01*
G37*
D17*
X158417500Y-35560000D03*
D13*
G36*
X156810142Y-34861174D02*
X156833803Y-34864684D01*
X156857007Y-34870496D01*
X156879529Y-34878554D01*
X156901153Y-34888782D01*
X156921670Y-34901079D01*
X156940883Y-34915329D01*
X156958607Y-34931393D01*
X156974671Y-34949117D01*
X156988921Y-34968330D01*
X157001218Y-34988847D01*
X157011446Y-35010471D01*
X157019504Y-35032993D01*
X157025316Y-35056197D01*
X157028826Y-35079858D01*
X157030000Y-35103750D01*
X157030000Y-36016250D01*
X157028826Y-36040142D01*
X157025316Y-36063803D01*
X157019504Y-36087007D01*
X157011446Y-36109529D01*
X157001218Y-36131153D01*
X156988921Y-36151670D01*
X156974671Y-36170883D01*
X156958607Y-36188607D01*
X156940883Y-36204671D01*
X156921670Y-36218921D01*
X156901153Y-36231218D01*
X156879529Y-36241446D01*
X156857007Y-36249504D01*
X156833803Y-36255316D01*
X156810142Y-36258826D01*
X156786250Y-36260000D01*
X156298750Y-36260000D01*
X156274858Y-36258826D01*
X156251197Y-36255316D01*
X156227993Y-36249504D01*
X156205471Y-36241446D01*
X156183847Y-36231218D01*
X156163330Y-36218921D01*
X156144117Y-36204671D01*
X156126393Y-36188607D01*
X156110329Y-36170883D01*
X156096079Y-36151670D01*
X156083782Y-36131153D01*
X156073554Y-36109529D01*
X156065496Y-36087007D01*
X156059684Y-36063803D01*
X156056174Y-36040142D01*
X156055000Y-36016250D01*
X156055000Y-35103750D01*
X156056174Y-35079858D01*
X156059684Y-35056197D01*
X156065496Y-35032993D01*
X156073554Y-35010471D01*
X156083782Y-34988847D01*
X156096079Y-34968330D01*
X156110329Y-34949117D01*
X156126393Y-34931393D01*
X156144117Y-34915329D01*
X156163330Y-34901079D01*
X156183847Y-34888782D01*
X156205471Y-34878554D01*
X156227993Y-34870496D01*
X156251197Y-34864684D01*
X156274858Y-34861174D01*
X156298750Y-34860000D01*
X156786250Y-34860000D01*
X156810142Y-34861174D01*
X156810142Y-34861174D01*
G37*
D17*
X156542500Y-35560000D03*
D13*
G36*
X166850142Y-33471174D02*
X166873803Y-33474684D01*
X166897007Y-33480496D01*
X166919529Y-33488554D01*
X166941153Y-33498782D01*
X166961670Y-33511079D01*
X166980883Y-33525329D01*
X166998607Y-33541393D01*
X167014671Y-33559117D01*
X167028921Y-33578330D01*
X167041218Y-33598847D01*
X167051446Y-33620471D01*
X167059504Y-33642993D01*
X167065316Y-33666197D01*
X167068826Y-33689858D01*
X167070000Y-33713750D01*
X167070000Y-34201250D01*
X167068826Y-34225142D01*
X167065316Y-34248803D01*
X167059504Y-34272007D01*
X167051446Y-34294529D01*
X167041218Y-34316153D01*
X167028921Y-34336670D01*
X167014671Y-34355883D01*
X166998607Y-34373607D01*
X166980883Y-34389671D01*
X166961670Y-34403921D01*
X166941153Y-34416218D01*
X166919529Y-34426446D01*
X166897007Y-34434504D01*
X166873803Y-34440316D01*
X166850142Y-34443826D01*
X166826250Y-34445000D01*
X165913750Y-34445000D01*
X165889858Y-34443826D01*
X165866197Y-34440316D01*
X165842993Y-34434504D01*
X165820471Y-34426446D01*
X165798847Y-34416218D01*
X165778330Y-34403921D01*
X165759117Y-34389671D01*
X165741393Y-34373607D01*
X165725329Y-34355883D01*
X165711079Y-34336670D01*
X165698782Y-34316153D01*
X165688554Y-34294529D01*
X165680496Y-34272007D01*
X165674684Y-34248803D01*
X165671174Y-34225142D01*
X165670000Y-34201250D01*
X165670000Y-33713750D01*
X165671174Y-33689858D01*
X165674684Y-33666197D01*
X165680496Y-33642993D01*
X165688554Y-33620471D01*
X165698782Y-33598847D01*
X165711079Y-33578330D01*
X165725329Y-33559117D01*
X165741393Y-33541393D01*
X165759117Y-33525329D01*
X165778330Y-33511079D01*
X165798847Y-33498782D01*
X165820471Y-33488554D01*
X165842993Y-33480496D01*
X165866197Y-33474684D01*
X165889858Y-33471174D01*
X165913750Y-33470000D01*
X166826250Y-33470000D01*
X166850142Y-33471174D01*
X166850142Y-33471174D01*
G37*
D17*
X166370000Y-33957500D03*
D13*
G36*
X166850142Y-31596174D02*
X166873803Y-31599684D01*
X166897007Y-31605496D01*
X166919529Y-31613554D01*
X166941153Y-31623782D01*
X166961670Y-31636079D01*
X166980883Y-31650329D01*
X166998607Y-31666393D01*
X167014671Y-31684117D01*
X167028921Y-31703330D01*
X167041218Y-31723847D01*
X167051446Y-31745471D01*
X167059504Y-31767993D01*
X167065316Y-31791197D01*
X167068826Y-31814858D01*
X167070000Y-31838750D01*
X167070000Y-32326250D01*
X167068826Y-32350142D01*
X167065316Y-32373803D01*
X167059504Y-32397007D01*
X167051446Y-32419529D01*
X167041218Y-32441153D01*
X167028921Y-32461670D01*
X167014671Y-32480883D01*
X166998607Y-32498607D01*
X166980883Y-32514671D01*
X166961670Y-32528921D01*
X166941153Y-32541218D01*
X166919529Y-32551446D01*
X166897007Y-32559504D01*
X166873803Y-32565316D01*
X166850142Y-32568826D01*
X166826250Y-32570000D01*
X165913750Y-32570000D01*
X165889858Y-32568826D01*
X165866197Y-32565316D01*
X165842993Y-32559504D01*
X165820471Y-32551446D01*
X165798847Y-32541218D01*
X165778330Y-32528921D01*
X165759117Y-32514671D01*
X165741393Y-32498607D01*
X165725329Y-32480883D01*
X165711079Y-32461670D01*
X165698782Y-32441153D01*
X165688554Y-32419529D01*
X165680496Y-32397007D01*
X165674684Y-32373803D01*
X165671174Y-32350142D01*
X165670000Y-32326250D01*
X165670000Y-31838750D01*
X165671174Y-31814858D01*
X165674684Y-31791197D01*
X165680496Y-31767993D01*
X165688554Y-31745471D01*
X165698782Y-31723847D01*
X165711079Y-31703330D01*
X165725329Y-31684117D01*
X165741393Y-31666393D01*
X165759117Y-31650329D01*
X165778330Y-31636079D01*
X165798847Y-31623782D01*
X165820471Y-31613554D01*
X165842993Y-31605496D01*
X165866197Y-31599684D01*
X165889858Y-31596174D01*
X165913750Y-31595000D01*
X166826250Y-31595000D01*
X166850142Y-31596174D01*
X166850142Y-31596174D01*
G37*
D17*
X166370000Y-32082500D03*
D13*
G36*
X152626142Y-65886174D02*
X152649803Y-65889684D01*
X152673007Y-65895496D01*
X152695529Y-65903554D01*
X152717153Y-65913782D01*
X152737670Y-65926079D01*
X152756883Y-65940329D01*
X152774607Y-65956393D01*
X152790671Y-65974117D01*
X152804921Y-65993330D01*
X152817218Y-66013847D01*
X152827446Y-66035471D01*
X152835504Y-66057993D01*
X152841316Y-66081197D01*
X152844826Y-66104858D01*
X152846000Y-66128750D01*
X152846000Y-66616250D01*
X152844826Y-66640142D01*
X152841316Y-66663803D01*
X152835504Y-66687007D01*
X152827446Y-66709529D01*
X152817218Y-66731153D01*
X152804921Y-66751670D01*
X152790671Y-66770883D01*
X152774607Y-66788607D01*
X152756883Y-66804671D01*
X152737670Y-66818921D01*
X152717153Y-66831218D01*
X152695529Y-66841446D01*
X152673007Y-66849504D01*
X152649803Y-66855316D01*
X152626142Y-66858826D01*
X152602250Y-66860000D01*
X151689750Y-66860000D01*
X151665858Y-66858826D01*
X151642197Y-66855316D01*
X151618993Y-66849504D01*
X151596471Y-66841446D01*
X151574847Y-66831218D01*
X151554330Y-66818921D01*
X151535117Y-66804671D01*
X151517393Y-66788607D01*
X151501329Y-66770883D01*
X151487079Y-66751670D01*
X151474782Y-66731153D01*
X151464554Y-66709529D01*
X151456496Y-66687007D01*
X151450684Y-66663803D01*
X151447174Y-66640142D01*
X151446000Y-66616250D01*
X151446000Y-66128750D01*
X151447174Y-66104858D01*
X151450684Y-66081197D01*
X151456496Y-66057993D01*
X151464554Y-66035471D01*
X151474782Y-66013847D01*
X151487079Y-65993330D01*
X151501329Y-65974117D01*
X151517393Y-65956393D01*
X151535117Y-65940329D01*
X151554330Y-65926079D01*
X151574847Y-65913782D01*
X151596471Y-65903554D01*
X151618993Y-65895496D01*
X151642197Y-65889684D01*
X151665858Y-65886174D01*
X151689750Y-65885000D01*
X152602250Y-65885000D01*
X152626142Y-65886174D01*
X152626142Y-65886174D01*
G37*
D17*
X152146000Y-66372500D03*
D13*
G36*
X152626142Y-67761174D02*
X152649803Y-67764684D01*
X152673007Y-67770496D01*
X152695529Y-67778554D01*
X152717153Y-67788782D01*
X152737670Y-67801079D01*
X152756883Y-67815329D01*
X152774607Y-67831393D01*
X152790671Y-67849117D01*
X152804921Y-67868330D01*
X152817218Y-67888847D01*
X152827446Y-67910471D01*
X152835504Y-67932993D01*
X152841316Y-67956197D01*
X152844826Y-67979858D01*
X152846000Y-68003750D01*
X152846000Y-68491250D01*
X152844826Y-68515142D01*
X152841316Y-68538803D01*
X152835504Y-68562007D01*
X152827446Y-68584529D01*
X152817218Y-68606153D01*
X152804921Y-68626670D01*
X152790671Y-68645883D01*
X152774607Y-68663607D01*
X152756883Y-68679671D01*
X152737670Y-68693921D01*
X152717153Y-68706218D01*
X152695529Y-68716446D01*
X152673007Y-68724504D01*
X152649803Y-68730316D01*
X152626142Y-68733826D01*
X152602250Y-68735000D01*
X151689750Y-68735000D01*
X151665858Y-68733826D01*
X151642197Y-68730316D01*
X151618993Y-68724504D01*
X151596471Y-68716446D01*
X151574847Y-68706218D01*
X151554330Y-68693921D01*
X151535117Y-68679671D01*
X151517393Y-68663607D01*
X151501329Y-68645883D01*
X151487079Y-68626670D01*
X151474782Y-68606153D01*
X151464554Y-68584529D01*
X151456496Y-68562007D01*
X151450684Y-68538803D01*
X151447174Y-68515142D01*
X151446000Y-68491250D01*
X151446000Y-68003750D01*
X151447174Y-67979858D01*
X151450684Y-67956197D01*
X151456496Y-67932993D01*
X151464554Y-67910471D01*
X151474782Y-67888847D01*
X151487079Y-67868330D01*
X151501329Y-67849117D01*
X151517393Y-67831393D01*
X151535117Y-67815329D01*
X151554330Y-67801079D01*
X151574847Y-67788782D01*
X151596471Y-67778554D01*
X151618993Y-67770496D01*
X151642197Y-67764684D01*
X151665858Y-67761174D01*
X151689750Y-67760000D01*
X152602250Y-67760000D01*
X152626142Y-67761174D01*
X152626142Y-67761174D01*
G37*
D17*
X152146000Y-68247500D03*
D13*
G36*
X161516142Y-67761174D02*
X161539803Y-67764684D01*
X161563007Y-67770496D01*
X161585529Y-67778554D01*
X161607153Y-67788782D01*
X161627670Y-67801079D01*
X161646883Y-67815329D01*
X161664607Y-67831393D01*
X161680671Y-67849117D01*
X161694921Y-67868330D01*
X161707218Y-67888847D01*
X161717446Y-67910471D01*
X161725504Y-67932993D01*
X161731316Y-67956197D01*
X161734826Y-67979858D01*
X161736000Y-68003750D01*
X161736000Y-68491250D01*
X161734826Y-68515142D01*
X161731316Y-68538803D01*
X161725504Y-68562007D01*
X161717446Y-68584529D01*
X161707218Y-68606153D01*
X161694921Y-68626670D01*
X161680671Y-68645883D01*
X161664607Y-68663607D01*
X161646883Y-68679671D01*
X161627670Y-68693921D01*
X161607153Y-68706218D01*
X161585529Y-68716446D01*
X161563007Y-68724504D01*
X161539803Y-68730316D01*
X161516142Y-68733826D01*
X161492250Y-68735000D01*
X160579750Y-68735000D01*
X160555858Y-68733826D01*
X160532197Y-68730316D01*
X160508993Y-68724504D01*
X160486471Y-68716446D01*
X160464847Y-68706218D01*
X160444330Y-68693921D01*
X160425117Y-68679671D01*
X160407393Y-68663607D01*
X160391329Y-68645883D01*
X160377079Y-68626670D01*
X160364782Y-68606153D01*
X160354554Y-68584529D01*
X160346496Y-68562007D01*
X160340684Y-68538803D01*
X160337174Y-68515142D01*
X160336000Y-68491250D01*
X160336000Y-68003750D01*
X160337174Y-67979858D01*
X160340684Y-67956197D01*
X160346496Y-67932993D01*
X160354554Y-67910471D01*
X160364782Y-67888847D01*
X160377079Y-67868330D01*
X160391329Y-67849117D01*
X160407393Y-67831393D01*
X160425117Y-67815329D01*
X160444330Y-67801079D01*
X160464847Y-67788782D01*
X160486471Y-67778554D01*
X160508993Y-67770496D01*
X160532197Y-67764684D01*
X160555858Y-67761174D01*
X160579750Y-67760000D01*
X161492250Y-67760000D01*
X161516142Y-67761174D01*
X161516142Y-67761174D01*
G37*
D17*
X161036000Y-68247500D03*
D13*
G36*
X161516142Y-65886174D02*
X161539803Y-65889684D01*
X161563007Y-65895496D01*
X161585529Y-65903554D01*
X161607153Y-65913782D01*
X161627670Y-65926079D01*
X161646883Y-65940329D01*
X161664607Y-65956393D01*
X161680671Y-65974117D01*
X161694921Y-65993330D01*
X161707218Y-66013847D01*
X161717446Y-66035471D01*
X161725504Y-66057993D01*
X161731316Y-66081197D01*
X161734826Y-66104858D01*
X161736000Y-66128750D01*
X161736000Y-66616250D01*
X161734826Y-66640142D01*
X161731316Y-66663803D01*
X161725504Y-66687007D01*
X161717446Y-66709529D01*
X161707218Y-66731153D01*
X161694921Y-66751670D01*
X161680671Y-66770883D01*
X161664607Y-66788607D01*
X161646883Y-66804671D01*
X161627670Y-66818921D01*
X161607153Y-66831218D01*
X161585529Y-66841446D01*
X161563007Y-66849504D01*
X161539803Y-66855316D01*
X161516142Y-66858826D01*
X161492250Y-66860000D01*
X160579750Y-66860000D01*
X160555858Y-66858826D01*
X160532197Y-66855316D01*
X160508993Y-66849504D01*
X160486471Y-66841446D01*
X160464847Y-66831218D01*
X160444330Y-66818921D01*
X160425117Y-66804671D01*
X160407393Y-66788607D01*
X160391329Y-66770883D01*
X160377079Y-66751670D01*
X160364782Y-66731153D01*
X160354554Y-66709529D01*
X160346496Y-66687007D01*
X160340684Y-66663803D01*
X160337174Y-66640142D01*
X160336000Y-66616250D01*
X160336000Y-66128750D01*
X160337174Y-66104858D01*
X160340684Y-66081197D01*
X160346496Y-66057993D01*
X160354554Y-66035471D01*
X160364782Y-66013847D01*
X160377079Y-65993330D01*
X160391329Y-65974117D01*
X160407393Y-65956393D01*
X160425117Y-65940329D01*
X160444330Y-65926079D01*
X160464847Y-65913782D01*
X160486471Y-65903554D01*
X160508993Y-65895496D01*
X160532197Y-65889684D01*
X160555858Y-65886174D01*
X160579750Y-65885000D01*
X161492250Y-65885000D01*
X161516142Y-65886174D01*
X161516142Y-65886174D01*
G37*
D17*
X161036000Y-66372500D03*
D13*
G36*
X181545142Y-36131174D02*
X181568803Y-36134684D01*
X181592007Y-36140496D01*
X181614529Y-36148554D01*
X181636153Y-36158782D01*
X181656670Y-36171079D01*
X181675883Y-36185329D01*
X181693607Y-36201393D01*
X181709671Y-36219117D01*
X181723921Y-36238330D01*
X181736218Y-36258847D01*
X181746446Y-36280471D01*
X181754504Y-36302993D01*
X181760316Y-36326197D01*
X181763826Y-36349858D01*
X181765000Y-36373750D01*
X181765000Y-37286250D01*
X181763826Y-37310142D01*
X181760316Y-37333803D01*
X181754504Y-37357007D01*
X181746446Y-37379529D01*
X181736218Y-37401153D01*
X181723921Y-37421670D01*
X181709671Y-37440883D01*
X181693607Y-37458607D01*
X181675883Y-37474671D01*
X181656670Y-37488921D01*
X181636153Y-37501218D01*
X181614529Y-37511446D01*
X181592007Y-37519504D01*
X181568803Y-37525316D01*
X181545142Y-37528826D01*
X181521250Y-37530000D01*
X181033750Y-37530000D01*
X181009858Y-37528826D01*
X180986197Y-37525316D01*
X180962993Y-37519504D01*
X180940471Y-37511446D01*
X180918847Y-37501218D01*
X180898330Y-37488921D01*
X180879117Y-37474671D01*
X180861393Y-37458607D01*
X180845329Y-37440883D01*
X180831079Y-37421670D01*
X180818782Y-37401153D01*
X180808554Y-37379529D01*
X180800496Y-37357007D01*
X180794684Y-37333803D01*
X180791174Y-37310142D01*
X180790000Y-37286250D01*
X180790000Y-36373750D01*
X180791174Y-36349858D01*
X180794684Y-36326197D01*
X180800496Y-36302993D01*
X180808554Y-36280471D01*
X180818782Y-36258847D01*
X180831079Y-36238330D01*
X180845329Y-36219117D01*
X180861393Y-36201393D01*
X180879117Y-36185329D01*
X180898330Y-36171079D01*
X180918847Y-36158782D01*
X180940471Y-36148554D01*
X180962993Y-36140496D01*
X180986197Y-36134684D01*
X181009858Y-36131174D01*
X181033750Y-36130000D01*
X181521250Y-36130000D01*
X181545142Y-36131174D01*
X181545142Y-36131174D01*
G37*
D17*
X181277500Y-36830000D03*
D13*
G36*
X179670142Y-36131174D02*
X179693803Y-36134684D01*
X179717007Y-36140496D01*
X179739529Y-36148554D01*
X179761153Y-36158782D01*
X179781670Y-36171079D01*
X179800883Y-36185329D01*
X179818607Y-36201393D01*
X179834671Y-36219117D01*
X179848921Y-36238330D01*
X179861218Y-36258847D01*
X179871446Y-36280471D01*
X179879504Y-36302993D01*
X179885316Y-36326197D01*
X179888826Y-36349858D01*
X179890000Y-36373750D01*
X179890000Y-37286250D01*
X179888826Y-37310142D01*
X179885316Y-37333803D01*
X179879504Y-37357007D01*
X179871446Y-37379529D01*
X179861218Y-37401153D01*
X179848921Y-37421670D01*
X179834671Y-37440883D01*
X179818607Y-37458607D01*
X179800883Y-37474671D01*
X179781670Y-37488921D01*
X179761153Y-37501218D01*
X179739529Y-37511446D01*
X179717007Y-37519504D01*
X179693803Y-37525316D01*
X179670142Y-37528826D01*
X179646250Y-37530000D01*
X179158750Y-37530000D01*
X179134858Y-37528826D01*
X179111197Y-37525316D01*
X179087993Y-37519504D01*
X179065471Y-37511446D01*
X179043847Y-37501218D01*
X179023330Y-37488921D01*
X179004117Y-37474671D01*
X178986393Y-37458607D01*
X178970329Y-37440883D01*
X178956079Y-37421670D01*
X178943782Y-37401153D01*
X178933554Y-37379529D01*
X178925496Y-37357007D01*
X178919684Y-37333803D01*
X178916174Y-37310142D01*
X178915000Y-37286250D01*
X178915000Y-36373750D01*
X178916174Y-36349858D01*
X178919684Y-36326197D01*
X178925496Y-36302993D01*
X178933554Y-36280471D01*
X178943782Y-36258847D01*
X178956079Y-36238330D01*
X178970329Y-36219117D01*
X178986393Y-36201393D01*
X179004117Y-36185329D01*
X179023330Y-36171079D01*
X179043847Y-36158782D01*
X179065471Y-36148554D01*
X179087993Y-36140496D01*
X179111197Y-36134684D01*
X179134858Y-36131174D01*
X179158750Y-36130000D01*
X179646250Y-36130000D01*
X179670142Y-36131174D01*
X179670142Y-36131174D01*
G37*
D17*
X179402500Y-36830000D03*
D13*
G36*
X193689505Y-79411204D02*
X193713773Y-79414804D01*
X193737572Y-79420765D01*
X193760671Y-79429030D01*
X193782850Y-79439520D01*
X193803893Y-79452132D01*
X193823599Y-79466747D01*
X193841777Y-79483223D01*
X193858253Y-79501401D01*
X193872868Y-79521107D01*
X193885480Y-79542150D01*
X193895970Y-79564329D01*
X193904235Y-79587428D01*
X193910196Y-79611227D01*
X193913796Y-79635495D01*
X193915000Y-79659999D01*
X193915000Y-80360001D01*
X193913796Y-80384505D01*
X193910196Y-80408773D01*
X193904235Y-80432572D01*
X193895970Y-80455671D01*
X193885480Y-80477850D01*
X193872868Y-80498893D01*
X193858253Y-80518599D01*
X193841777Y-80536777D01*
X193823599Y-80553253D01*
X193803893Y-80567868D01*
X193782850Y-80580480D01*
X193760671Y-80590970D01*
X193737572Y-80599235D01*
X193713773Y-80605196D01*
X193689505Y-80608796D01*
X193665001Y-80610000D01*
X192414999Y-80610000D01*
X192390495Y-80608796D01*
X192366227Y-80605196D01*
X192342428Y-80599235D01*
X192319329Y-80590970D01*
X192297150Y-80580480D01*
X192276107Y-80567868D01*
X192256401Y-80553253D01*
X192238223Y-80536777D01*
X192221747Y-80518599D01*
X192207132Y-80498893D01*
X192194520Y-80477850D01*
X192184030Y-80455671D01*
X192175765Y-80432572D01*
X192169804Y-80408773D01*
X192166204Y-80384505D01*
X192165000Y-80360001D01*
X192165000Y-79659999D01*
X192166204Y-79635495D01*
X192169804Y-79611227D01*
X192175765Y-79587428D01*
X192184030Y-79564329D01*
X192194520Y-79542150D01*
X192207132Y-79521107D01*
X192221747Y-79501401D01*
X192238223Y-79483223D01*
X192256401Y-79466747D01*
X192276107Y-79452132D01*
X192297150Y-79439520D01*
X192319329Y-79429030D01*
X192342428Y-79420765D01*
X192366227Y-79414804D01*
X192390495Y-79411204D01*
X192414999Y-79410000D01*
X193665001Y-79410000D01*
X193689505Y-79411204D01*
X193689505Y-79411204D01*
G37*
D14*
X193040000Y-80010000D03*
D15*
X193040000Y-78010000D03*
D13*
G36*
X193689505Y-52741204D02*
X193713773Y-52744804D01*
X193737572Y-52750765D01*
X193760671Y-52759030D01*
X193782850Y-52769520D01*
X193803893Y-52782132D01*
X193823599Y-52796747D01*
X193841777Y-52813223D01*
X193858253Y-52831401D01*
X193872868Y-52851107D01*
X193885480Y-52872150D01*
X193895970Y-52894329D01*
X193904235Y-52917428D01*
X193910196Y-52941227D01*
X193913796Y-52965495D01*
X193915000Y-52989999D01*
X193915000Y-53690001D01*
X193913796Y-53714505D01*
X193910196Y-53738773D01*
X193904235Y-53762572D01*
X193895970Y-53785671D01*
X193885480Y-53807850D01*
X193872868Y-53828893D01*
X193858253Y-53848599D01*
X193841777Y-53866777D01*
X193823599Y-53883253D01*
X193803893Y-53897868D01*
X193782850Y-53910480D01*
X193760671Y-53920970D01*
X193737572Y-53929235D01*
X193713773Y-53935196D01*
X193689505Y-53938796D01*
X193665001Y-53940000D01*
X192414999Y-53940000D01*
X192390495Y-53938796D01*
X192366227Y-53935196D01*
X192342428Y-53929235D01*
X192319329Y-53920970D01*
X192297150Y-53910480D01*
X192276107Y-53897868D01*
X192256401Y-53883253D01*
X192238223Y-53866777D01*
X192221747Y-53848599D01*
X192207132Y-53828893D01*
X192194520Y-53807850D01*
X192184030Y-53785671D01*
X192175765Y-53762572D01*
X192169804Y-53738773D01*
X192166204Y-53714505D01*
X192165000Y-53690001D01*
X192165000Y-52989999D01*
X192166204Y-52965495D01*
X192169804Y-52941227D01*
X192175765Y-52917428D01*
X192184030Y-52894329D01*
X192194520Y-52872150D01*
X192207132Y-52851107D01*
X192221747Y-52831401D01*
X192238223Y-52813223D01*
X192256401Y-52796747D01*
X192276107Y-52782132D01*
X192297150Y-52769520D01*
X192319329Y-52759030D01*
X192342428Y-52750765D01*
X192366227Y-52744804D01*
X192390495Y-52741204D01*
X192414999Y-52740000D01*
X193665001Y-52740000D01*
X193689505Y-52741204D01*
X193689505Y-52741204D01*
G37*
D14*
X193040000Y-53340000D03*
D15*
X193040000Y-51340000D03*
D27*
X182710000Y-88580000D03*
X182710000Y-87630000D03*
X182710000Y-86680000D03*
X180510000Y-86680000D03*
X180510000Y-88580000D03*
X180510000Y-87630000D03*
D28*
X178460000Y-72390000D03*
D29*
X184760000Y-72390000D03*
X184760000Y-70090000D03*
X184760000Y-74690000D03*
D30*
X151130000Y-41740000D03*
X152080000Y-41740000D03*
X150180000Y-41740000D03*
X150180000Y-39540000D03*
X151130000Y-39540000D03*
X152080000Y-39540000D03*
D31*
X193530000Y-85090000D03*
X197630000Y-85090000D03*
D32*
X163670000Y-38735000D03*
X163670000Y-40005000D03*
X163670000Y-41275000D03*
X163670000Y-42545000D03*
X169070000Y-42545000D03*
X169070000Y-41275000D03*
X169070000Y-40005000D03*
X169070000Y-38735000D03*
D33*
X184531000Y-87630000D03*
X186563000Y-81534000D03*
X161290000Y-40005000D03*
X158750000Y-63754000D03*
X119888000Y-59690000D03*
X147320000Y-55372000D03*
X156210000Y-38100000D03*
X150368000Y-37084000D03*
X175006000Y-51308000D03*
X181610000Y-90170000D03*
X177546000Y-55880000D03*
X175768000Y-89916000D03*
X178308000Y-75184000D03*
X116332000Y-56388000D03*
X163830000Y-59055000D03*
X150495000Y-50800000D03*
X170434000Y-58420000D03*
X167640000Y-55626000D03*
X182880000Y-72390000D03*
X148336000Y-40640000D03*
X169545000Y-35560000D03*
X167640000Y-37465000D03*
X146812000Y-69850000D03*
X163830000Y-60960000D03*
X186944000Y-69596000D03*
X178562000Y-77978000D03*
X172720000Y-87376000D03*
X154305000Y-50800000D03*
X184531000Y-85979000D03*
X163830000Y-64770000D03*
X163830000Y-62865000D03*
X152400000Y-50800000D03*
X163830000Y-66675000D03*
X139700000Y-59690000D03*
X119380000Y-56388000D03*
X144780000Y-59055000D03*
X144780000Y-60960000D03*
X144780000Y-57150000D03*
X144780000Y-62865000D03*
D34*
X177800000Y-95780000D02*
X184150000Y-95780000D01*
X184150000Y-95780000D02*
X189230000Y-90700000D01*
X189240000Y-90710000D02*
X193040000Y-90710000D01*
X189230000Y-90700000D02*
X189240000Y-90710000D01*
X182710000Y-87630000D02*
X184531000Y-87630000D01*
X186309000Y-81280000D02*
X186563000Y-81534000D01*
X183810000Y-81280000D02*
X186309000Y-81280000D01*
X183810000Y-75640000D02*
X184760000Y-74690000D01*
X183810000Y-81280000D02*
X183810000Y-75640000D01*
X192270000Y-74690000D02*
X184760000Y-74690000D01*
X197110000Y-69850000D02*
X192270000Y-74690000D01*
X188357500Y-29750000D02*
X193040000Y-29750000D01*
X181277500Y-36830000D02*
X188357500Y-29750000D01*
X192500000Y-50800000D02*
X193040000Y-51340000D01*
X182540000Y-50800000D02*
X192500000Y-50800000D01*
X164145000Y-42545000D02*
X163670000Y-42545000D01*
X164770001Y-41919999D02*
X164145000Y-42545000D01*
X164770001Y-40630001D02*
X164770001Y-41919999D01*
X164145000Y-40005000D02*
X164770001Y-40630001D01*
X163670000Y-40005000D02*
X164145000Y-40005000D01*
X156542500Y-37767500D02*
X156210000Y-38100000D01*
X156542500Y-35560000D02*
X156542500Y-37767500D01*
X163670000Y-40005000D02*
X161290000Y-40005000D01*
X152035350Y-59934190D02*
X152035350Y-62474190D01*
X152035350Y-63274190D02*
X152769160Y-64008000D01*
X152035350Y-62474190D02*
X152035350Y-63274190D01*
X154916540Y-64008000D02*
X156782850Y-62141690D01*
X152769160Y-64008000D02*
X154916540Y-64008000D01*
X151606190Y-59934190D02*
X152035350Y-59934190D01*
X148844000Y-57172000D02*
X151606190Y-59934190D01*
X159512000Y-59412540D02*
X156782850Y-62141690D01*
X159512000Y-57172000D02*
X159512000Y-59412540D01*
X157137690Y-62141690D02*
X156782850Y-62141690D01*
X158750000Y-63754000D02*
X157137690Y-62141690D01*
X114024000Y-66040000D02*
X114300000Y-66040000D01*
X110082500Y-59357500D02*
X108712000Y-60728000D01*
X117856000Y-59357500D02*
X110082500Y-59357500D01*
X119555500Y-59357500D02*
X119888000Y-59690000D01*
X117856000Y-59357500D02*
X119555500Y-59357500D01*
X151130000Y-37846000D02*
X150368000Y-37084000D01*
X151130000Y-39540000D02*
X151130000Y-37846000D01*
X148844000Y-56896000D02*
X147320000Y-55372000D01*
X148844000Y-57172000D02*
X148844000Y-56896000D01*
X181290000Y-87630000D02*
X181610000Y-87950000D01*
X180510000Y-87630000D02*
X181290000Y-87630000D01*
X181610000Y-87310000D02*
X181290000Y-87630000D01*
X181610000Y-86339998D02*
X181610000Y-87310000D01*
X182859998Y-85090000D02*
X181610000Y-86339998D01*
X186500000Y-85090000D02*
X182859998Y-85090000D01*
X186690000Y-85980000D02*
X186690000Y-85280000D01*
X186690000Y-85280000D02*
X186500000Y-85090000D01*
X182859998Y-85090000D02*
X182859998Y-85069998D01*
X181610000Y-83480000D02*
X179410000Y-81280000D01*
X181610000Y-86339998D02*
X181610000Y-83480000D01*
X181610000Y-87950000D02*
X181610000Y-90170000D01*
X183620000Y-92180000D02*
X184150000Y-92180000D01*
X181610000Y-90170000D02*
X183620000Y-92180000D01*
X184760000Y-70090000D02*
X184510000Y-70090000D01*
X181864000Y-78826000D02*
X179410000Y-81280000D01*
X184760000Y-69090000D02*
X184760000Y-70090000D01*
X175006000Y-50742315D02*
X175006000Y-51308000D01*
X175006000Y-46736000D02*
X175006000Y-50742315D01*
X169545000Y-41275000D02*
X175006000Y-46736000D01*
X169070000Y-41275000D02*
X169545000Y-41275000D01*
X184760000Y-63094000D02*
X177546000Y-55880000D01*
X184760000Y-70090000D02*
X184760000Y-63094000D01*
X183510000Y-70090000D02*
X184760000Y-70090000D01*
X181864000Y-71736000D02*
X183510000Y-70090000D01*
X181864000Y-78826000D02*
X181864000Y-71736000D01*
X180497500Y-88567500D02*
X180510000Y-88580000D01*
X177800000Y-88567500D02*
X180497500Y-88567500D01*
X177800000Y-88567500D02*
X177800000Y-92180000D01*
X197630000Y-82949000D02*
X197630000Y-85090000D01*
X194691000Y-80010000D02*
X197630000Y-82949000D01*
X193040000Y-80010000D02*
X194691000Y-80010000D01*
X177800000Y-91948000D02*
X177800000Y-92180000D01*
X175768000Y-89916000D02*
X177800000Y-91948000D01*
X188970000Y-72390000D02*
X191510000Y-69850000D01*
X184760000Y-72390000D02*
X188970000Y-72390000D01*
X156450350Y-59934190D02*
X156782850Y-60266690D01*
X153910350Y-59934190D02*
X156450350Y-59934190D01*
X153910350Y-62474190D02*
X153910350Y-59934190D01*
X159512000Y-53572000D02*
X161036000Y-55096000D01*
X161036000Y-56261000D02*
X163830000Y-59055000D01*
X161036000Y-55096000D02*
X161036000Y-56261000D01*
X158612000Y-53572000D02*
X148844000Y-53572000D01*
X159512000Y-53572000D02*
X158612000Y-53572000D01*
X150495000Y-51921000D02*
X150495000Y-50800000D01*
X148844000Y-53572000D02*
X150495000Y-51921000D01*
X156782850Y-56301150D02*
X156782850Y-60266690D01*
X159512000Y-53572000D02*
X156782850Y-56301150D01*
X160020000Y-53064000D02*
X159512000Y-53572000D01*
X160020000Y-46482000D02*
X160020000Y-53064000D01*
X116761500Y-56388000D02*
X117856000Y-57482500D01*
X116332000Y-56388000D02*
X116761500Y-56388000D01*
X114300000Y-62716000D02*
X114300000Y-63500000D01*
X191510000Y-68840000D02*
X191510000Y-69850000D01*
X198120000Y-62230000D02*
X191510000Y-68840000D01*
X117501500Y-57128000D02*
X117856000Y-57482500D01*
X108712000Y-57128000D02*
X117501500Y-57128000D01*
X117856000Y-56895000D02*
X117856000Y-57482500D01*
X117856000Y-56838998D02*
X117856000Y-56895000D01*
X121993708Y-52701290D02*
X117856000Y-56838998D01*
X147973290Y-52701290D02*
X121993708Y-52701290D01*
X148844000Y-53572000D02*
X147973290Y-52701290D01*
X165586000Y-53572000D02*
X167640000Y-55626000D01*
X159512000Y-53572000D02*
X165586000Y-53572000D01*
X178460000Y-66446000D02*
X178460000Y-72390000D01*
X170434000Y-58420000D02*
X178460000Y-66446000D01*
X184760000Y-72390000D02*
X182880000Y-72390000D01*
X178308000Y-72542000D02*
X178460000Y-72390000D01*
X178308000Y-75184000D02*
X178308000Y-72542000D01*
X152080000Y-40960000D02*
X152080000Y-41740000D01*
X151760000Y-40640000D02*
X152080000Y-40960000D01*
X150500000Y-40640000D02*
X151760000Y-40640000D01*
X150180000Y-39540000D02*
X150180000Y-40320000D01*
X150180000Y-40320000D02*
X150500000Y-40640000D01*
X150180000Y-39540000D02*
X149436000Y-39540000D01*
X149436000Y-39540000D02*
X148336000Y-40640000D01*
X178140000Y-49900000D02*
X178140000Y-50800000D01*
X178140000Y-48600000D02*
X178140000Y-49900000D01*
X169545000Y-40005000D02*
X178140000Y-48600000D01*
X169070000Y-40005000D02*
X169545000Y-40005000D01*
X174322500Y-33020000D02*
X174322500Y-36830000D01*
X178132500Y-40640000D02*
X174322500Y-36830000D01*
X189340000Y-40640000D02*
X178132500Y-40640000D01*
X173052500Y-35560000D02*
X174322500Y-36830000D01*
X169545000Y-35560000D02*
X173052500Y-35560000D01*
X168595000Y-42545000D02*
X169070000Y-42545000D01*
X167640000Y-41590000D02*
X168595000Y-42545000D01*
X167640000Y-37465000D02*
X167640000Y-41590000D01*
X176197500Y-36830000D02*
X179402500Y-36830000D01*
X193040000Y-36940000D02*
X196740000Y-40640000D01*
X193040000Y-31750000D02*
X193040000Y-36940000D01*
X169545000Y-38735000D02*
X169070000Y-38735000D01*
X175895000Y-45085000D02*
X169545000Y-38735000D01*
X180635000Y-45085000D02*
X175895000Y-45085000D01*
X182540000Y-43180000D02*
X180635000Y-45085000D01*
X163670000Y-36657500D02*
X166370000Y-33957500D01*
X163670000Y-38735000D02*
X163670000Y-36657500D01*
X175592500Y-43180000D02*
X166370000Y-33957500D01*
X178140000Y-43180000D02*
X175592500Y-43180000D01*
X176197500Y-32052500D02*
X176197500Y-33020000D01*
X174625000Y-30480000D02*
X176197500Y-32052500D01*
X166370000Y-32082500D02*
X167972500Y-30480000D01*
X167972500Y-30480000D02*
X174625000Y-30480000D01*
D35*
X152080000Y-35880000D02*
X152400000Y-35560000D01*
X152080000Y-39540000D02*
X152080000Y-35880000D01*
D34*
X154275000Y-39642500D02*
X156542500Y-41910000D01*
X154275000Y-35560000D02*
X154275000Y-39642500D01*
D35*
X187442400Y-89280000D02*
X186690000Y-89280000D01*
D34*
X187540000Y-89280000D02*
X186690000Y-89280000D01*
X183490000Y-88580000D02*
X184318000Y-89408000D01*
X182710000Y-88580000D02*
X183490000Y-88580000D01*
X186310000Y-89280000D02*
X186690000Y-89280000D01*
X186182000Y-89408000D02*
X186310000Y-89280000D01*
X184318000Y-89408000D02*
X186182000Y-89408000D01*
X190340000Y-89280000D02*
X187540000Y-89280000D01*
X193530000Y-85090000D02*
X193530000Y-86090000D01*
X193530000Y-86090000D02*
X190340000Y-89280000D01*
X106306000Y-78740000D02*
X112148000Y-72898000D01*
X105156000Y-78740000D02*
X106306000Y-78740000D01*
X112148000Y-72898000D02*
X150876000Y-72898000D01*
X103752000Y-40640000D02*
X104902000Y-40640000D01*
X103676999Y-40715001D02*
X103752000Y-40640000D01*
X103676999Y-58106189D02*
X103676999Y-40715001D01*
X115420810Y-69850000D02*
X103676999Y-58106189D01*
X146812000Y-69850000D02*
X115420810Y-69850000D01*
D35*
X170180000Y-54610000D02*
X170180000Y-46482000D01*
X163830000Y-60960000D02*
X170180000Y-54610000D01*
D34*
X196850000Y-59690000D02*
X186944000Y-69596000D01*
X198120000Y-59690000D02*
X196850000Y-59690000D01*
X172720000Y-83820000D02*
X172720000Y-87376000D01*
X178562000Y-77978000D02*
X172720000Y-83820000D01*
X168656000Y-81026000D02*
X168910000Y-81280000D01*
X168656000Y-72898000D02*
X168656000Y-81026000D01*
X152146000Y-68835000D02*
X152146000Y-72898000D01*
X152146000Y-68247500D02*
X152146000Y-68835000D01*
X161036000Y-68247500D02*
X161036000Y-72898000D01*
D35*
X177812500Y-86680000D02*
X177800000Y-86692500D01*
X180510000Y-86680000D02*
X177812500Y-86680000D01*
D34*
X158417500Y-41910000D02*
X158417500Y-35560000D01*
X158417500Y-41910000D02*
X159385000Y-41910000D01*
X160020000Y-41275000D02*
X163670000Y-41275000D01*
X159385000Y-41910000D02*
X160020000Y-41275000D01*
D35*
X151171201Y-50841201D02*
X151171201Y-50800000D01*
X151171201Y-51095201D02*
X151171201Y-50800000D01*
X151552201Y-51476201D02*
X151171201Y-51095201D01*
X153628799Y-51476201D02*
X151552201Y-51476201D01*
X154305000Y-50800000D02*
X153628799Y-51476201D01*
X151171201Y-50800000D02*
X151171201Y-43413601D01*
X150180000Y-42422400D02*
X150180000Y-41740000D01*
X151171201Y-43413601D02*
X150180000Y-42422400D01*
D34*
X183830000Y-86680000D02*
X184531000Y-85979000D01*
X182710000Y-86680000D02*
X183830000Y-86680000D01*
X153748500Y-64770000D02*
X152146000Y-66372500D01*
X163830000Y-64770000D02*
X153748500Y-64770000D01*
X161592237Y-65816263D02*
X161036000Y-66372500D01*
X163856739Y-65816263D02*
X161592237Y-65816263D01*
X164555001Y-65118001D02*
X163856739Y-65816263D01*
X164555001Y-63590001D02*
X164555001Y-65118001D01*
X163830000Y-62865000D02*
X164555001Y-63590001D01*
D35*
X152400000Y-43815000D02*
X152400000Y-50800000D01*
X151130000Y-41740000D02*
X151130000Y-42545000D01*
X151130000Y-42545000D02*
X152400000Y-43815000D01*
D34*
X167640000Y-62865000D02*
X167640000Y-59690000D01*
X163830000Y-66675000D02*
X167640000Y-62865000D01*
X167640000Y-59690000D02*
X173990000Y-53340000D01*
X173990000Y-53340000D02*
X193040000Y-53340000D01*
D35*
X124333000Y-56388000D02*
X119380000Y-56388000D01*
X139700000Y-59690000D02*
X136398000Y-56388000D01*
X136398000Y-56388000D02*
X124333000Y-56388000D01*
X141351000Y-62484000D02*
X144780000Y-59055000D01*
X121920000Y-66040000D02*
X125476000Y-62484000D01*
X125476000Y-62484000D02*
X141351000Y-62484000D01*
X138176000Y-67564000D02*
X144780000Y-60960000D01*
X119380000Y-63500000D02*
X118110000Y-64770000D01*
X118110000Y-64770000D02*
X118110000Y-66675000D01*
X118110000Y-66675000D02*
X118745000Y-67310000D01*
X118745000Y-67310000D02*
X121158000Y-67310000D01*
X121158000Y-67310000D02*
X121412000Y-67564000D01*
X121412000Y-67564000D02*
X138176000Y-67564000D01*
X140462000Y-61468000D02*
X144780000Y-57150000D01*
X140462000Y-61468000D02*
X121920000Y-61468000D01*
X120650000Y-64770000D02*
X120141999Y-65278001D01*
X121920000Y-61468000D02*
X120650000Y-62738000D01*
X120650000Y-62738000D02*
X120650000Y-64770000D01*
X120141999Y-65278001D02*
X119380000Y-66040000D01*
X139065000Y-68580000D02*
X144780000Y-62865000D01*
X116840000Y-68580000D02*
X139065000Y-68580000D01*
X116840000Y-68580000D02*
X115570000Y-67310000D01*
X115570000Y-64770000D02*
X116840000Y-63500000D01*
X115570000Y-67310000D02*
X115570000Y-64770000D01*
D36*
G36*
X125857000Y-96393000D02*
X105283000Y-96393000D01*
X105283000Y-83947000D01*
X125857000Y-83947000D01*
X125857000Y-96393000D01*
X125857000Y-96393000D01*
G37*
X125857000Y-96393000D02*
X105283000Y-96393000D01*
X105283000Y-83947000D01*
X125857000Y-83947000D01*
X125857000Y-96393000D01*
M02*
