M48
;DRILL file {KiCad (5.0.0)} date 06/06/19 16:10:13
;FORMAT={-:-/ absolute / inch / decimal}
FMAT,2
INCH,TZ
T1C0.0157
T2C0.0295
T3C0.0300
T4C0.0354
T5C0.0394
%
G90
G05
M72
T1
X4.58Y-2.22
X4.7Y-2.22
X4.72Y-2.35
X5.5Y-2.35
X5.7Y-2.25
X5.7Y-2.325
X5.7Y-2.4
X5.7Y-2.475
X5.78Y-2.75
X5.8Y-2.18
X5.84Y-1.6
X5.92Y-1.46
X5.925Y-2.
X6.Y-2.
X6.075Y-2.
X6.15Y-1.5
X6.25Y-2.51
X6.35Y-1.575
X6.45Y-2.325
X6.45Y-2.4
X6.45Y-2.475
X6.45Y-2.55
X6.45Y-2.625
X6.6Y-1.475
X6.6Y-2.19
X6.675Y-1.4
X6.71Y-2.3
X6.8Y-3.44
X6.89Y-2.02
X6.92Y-3.54
X6.99Y-2.2
X7.02Y-2.96
X7.03Y-3.07
X7.15Y-3.55
X7.2Y-2.85
X7.265Y-3.385
X7.265Y-3.45
X7.345Y-3.21
X7.36Y-2.74
T2
X6.3Y-3.2
X6.3787Y-3.2
X7.6Y-3.0713
X7.6Y-3.15
X6.29Y-2.87
X6.34Y-2.87
X6.39Y-2.87
X5.94Y-2.87
X5.99Y-2.87
X6.04Y-2.87
X6.64Y-2.87
X6.69Y-2.87
X6.74Y-2.87
X5.6Y-3.2
X5.6787Y-3.2
X6.65Y-3.2
X6.7287Y-3.2
X5.25Y-3.2
X5.3287Y-3.2
X7.6Y-2.0213
X7.6Y-2.1
X7.6Y-3.5713
X7.6Y-3.65
X7.6Y-1.1713
X7.6Y-1.25
X5.95Y-3.2
X6.0287Y-3.2
T3
X4.5Y-2.5
X4.5Y-2.6
X4.6Y-2.5
X4.6Y-2.6
X4.7Y-2.5
X4.7Y-2.6
X4.8Y-2.5
X4.8Y-2.6
T4
X4.13Y-1.6
X4.13Y-1.7
X4.14Y-3.
X4.14Y-3.1
T5
X7.8Y-2.35
X7.8Y-2.45
X6.3Y-1.83
X6.4Y-1.83
X6.5Y-1.83
X6.6Y-1.83
X6.7Y-1.83
T0
M30
