%TF.GenerationSoftware,KiCad,Pcbnew,(5.0.0)*%
%TF.CreationDate,2019-06-06T16:06:29-05:00*%
%TF.ProjectId,Gun board,47756E20626F6172642E6B696361645F,rev?*%
%TF.SameCoordinates,Original*%
%TF.FileFunction,Soldermask,Bot*%
%TF.FilePolarity,Negative*%
%FSLAX46Y46*%
G04 Gerber Fmt 4.6, Leading zero omitted, Abs format (unit mm)*
G04 Created by KiCad (PCBNEW (5.0.0)) date 06/06/19 16:06:29*
%MOMM*%
%LPD*%
G01*
G04 APERTURE LIST*
%ADD10C,0.200000*%
%ADD11R,1.924000X1.924000*%
%ADD12C,1.924000*%
%ADD13R,2.100000X1.050000*%
%ADD14C,3.600000*%
%ADD15C,0.100000*%
%ADD16C,1.600000*%
%ADD17O,2.150000X1.600000*%
%ADD18C,1.375000*%
%ADD19C,2.200000*%
%ADD20R,2.200000X2.200000*%
%ADD21O,2.100000X2.100000*%
%ADD22R,2.100000X2.100000*%
%ADD23O,1.600000X2.150000*%
%ADD24O,1.450000X1.900000*%
%ADD25R,1.450000X1.900000*%
%ADD26R,0.850000X1.850000*%
G04 APERTURE END LIST*
D10*
X200660000Y-101600000D02*
X200660000Y-21590000D01*
X101600000Y-21590000D02*
X101600000Y-101600000D01*
X200660000Y-21590000D02*
X101600000Y-21590000D01*
X101600000Y-101600000D02*
X200660000Y-101600000D01*
D11*
X114300000Y-66040000D03*
D12*
X114300000Y-63500000D03*
X116840000Y-66040000D03*
X116840000Y-63500000D03*
X119380000Y-66040000D03*
X119380000Y-63500000D03*
X121920000Y-66040000D03*
X121920000Y-63500000D03*
D13*
X121760000Y-56515000D03*
X121760000Y-57785000D03*
X121760000Y-59055000D03*
X121760000Y-60325000D03*
X114460000Y-60325000D03*
X114460000Y-59055000D03*
X114460000Y-57785000D03*
X114460000Y-56515000D03*
D14*
X171196000Y-93980000D03*
D15*
G36*
X193814340Y-91911605D02*
X193846698Y-91916405D01*
X193878429Y-91924353D01*
X193909229Y-91935373D01*
X193938800Y-91949359D01*
X193966857Y-91966177D01*
X193993132Y-91985663D01*
X194017369Y-92007631D01*
X194039337Y-92031868D01*
X194058823Y-92058143D01*
X194075641Y-92086200D01*
X194089627Y-92115771D01*
X194100647Y-92146571D01*
X194108595Y-92178302D01*
X194113395Y-92210660D01*
X194115000Y-92243332D01*
X194115000Y-93176668D01*
X194113395Y-93209340D01*
X194108595Y-93241698D01*
X194100647Y-93273429D01*
X194089627Y-93304229D01*
X194075641Y-93333800D01*
X194058823Y-93361857D01*
X194039337Y-93388132D01*
X194017369Y-93412369D01*
X193993132Y-93434337D01*
X193966857Y-93453823D01*
X193938800Y-93470641D01*
X193909229Y-93484627D01*
X193878429Y-93495647D01*
X193846698Y-93503595D01*
X193814340Y-93508395D01*
X193781668Y-93510000D01*
X192298332Y-93510000D01*
X192265660Y-93508395D01*
X192233302Y-93503595D01*
X192201571Y-93495647D01*
X192170771Y-93484627D01*
X192141200Y-93470641D01*
X192113143Y-93453823D01*
X192086868Y-93434337D01*
X192062631Y-93412369D01*
X192040663Y-93388132D01*
X192021177Y-93361857D01*
X192004359Y-93333800D01*
X191990373Y-93304229D01*
X191979353Y-93273429D01*
X191971405Y-93241698D01*
X191966605Y-93209340D01*
X191965000Y-93176668D01*
X191965000Y-92243332D01*
X191966605Y-92210660D01*
X191971405Y-92178302D01*
X191979353Y-92146571D01*
X191990373Y-92115771D01*
X192004359Y-92086200D01*
X192021177Y-92058143D01*
X192040663Y-92031868D01*
X192062631Y-92007631D01*
X192086868Y-91985663D01*
X192113143Y-91966177D01*
X192141200Y-91949359D01*
X192170771Y-91935373D01*
X192201571Y-91924353D01*
X192233302Y-91916405D01*
X192265660Y-91911605D01*
X192298332Y-91910000D01*
X193781668Y-91910000D01*
X193814340Y-91911605D01*
X193814340Y-91911605D01*
G37*
D16*
X193040000Y-92710000D03*
D17*
X193040000Y-90710000D03*
D15*
G36*
X152444943Y-39741655D02*
X152478312Y-39746605D01*
X152511035Y-39754802D01*
X152542797Y-39766166D01*
X152573293Y-39780590D01*
X152602227Y-39797932D01*
X152629323Y-39818028D01*
X152654318Y-39840682D01*
X152676972Y-39865677D01*
X152697068Y-39892773D01*
X152714410Y-39921707D01*
X152728834Y-39952203D01*
X152740198Y-39983965D01*
X152748395Y-40016688D01*
X152753345Y-40050057D01*
X152755000Y-40083750D01*
X152755000Y-41196250D01*
X152753345Y-41229943D01*
X152748395Y-41263312D01*
X152740198Y-41296035D01*
X152728834Y-41327797D01*
X152714410Y-41358293D01*
X152697068Y-41387227D01*
X152676972Y-41414323D01*
X152654318Y-41439318D01*
X152629323Y-41461972D01*
X152602227Y-41482068D01*
X152573293Y-41499410D01*
X152542797Y-41513834D01*
X152511035Y-41525198D01*
X152478312Y-41533395D01*
X152444943Y-41538345D01*
X152411250Y-41540000D01*
X151723750Y-41540000D01*
X151690057Y-41538345D01*
X151656688Y-41533395D01*
X151623965Y-41525198D01*
X151592203Y-41513834D01*
X151561707Y-41499410D01*
X151532773Y-41482068D01*
X151505677Y-41461972D01*
X151480682Y-41439318D01*
X151458028Y-41414323D01*
X151437932Y-41387227D01*
X151420590Y-41358293D01*
X151406166Y-41327797D01*
X151394802Y-41296035D01*
X151386605Y-41263312D01*
X151381655Y-41229943D01*
X151380000Y-41196250D01*
X151380000Y-40083750D01*
X151381655Y-40050057D01*
X151386605Y-40016688D01*
X151394802Y-39983965D01*
X151406166Y-39952203D01*
X151420590Y-39921707D01*
X151437932Y-39892773D01*
X151458028Y-39865677D01*
X151480682Y-39840682D01*
X151505677Y-39818028D01*
X151532773Y-39797932D01*
X151561707Y-39780590D01*
X151592203Y-39766166D01*
X151623965Y-39754802D01*
X151656688Y-39746605D01*
X151690057Y-39741655D01*
X151723750Y-39740000D01*
X152411250Y-39740000D01*
X152444943Y-39741655D01*
X152444943Y-39741655D01*
G37*
D18*
X152067500Y-40640000D03*
D15*
G36*
X150569943Y-39741655D02*
X150603312Y-39746605D01*
X150636035Y-39754802D01*
X150667797Y-39766166D01*
X150698293Y-39780590D01*
X150727227Y-39797932D01*
X150754323Y-39818028D01*
X150779318Y-39840682D01*
X150801972Y-39865677D01*
X150822068Y-39892773D01*
X150839410Y-39921707D01*
X150853834Y-39952203D01*
X150865198Y-39983965D01*
X150873395Y-40016688D01*
X150878345Y-40050057D01*
X150880000Y-40083750D01*
X150880000Y-41196250D01*
X150878345Y-41229943D01*
X150873395Y-41263312D01*
X150865198Y-41296035D01*
X150853834Y-41327797D01*
X150839410Y-41358293D01*
X150822068Y-41387227D01*
X150801972Y-41414323D01*
X150779318Y-41439318D01*
X150754323Y-41461972D01*
X150727227Y-41482068D01*
X150698293Y-41499410D01*
X150667797Y-41513834D01*
X150636035Y-41525198D01*
X150603312Y-41533395D01*
X150569943Y-41538345D01*
X150536250Y-41540000D01*
X149848750Y-41540000D01*
X149815057Y-41538345D01*
X149781688Y-41533395D01*
X149748965Y-41525198D01*
X149717203Y-41513834D01*
X149686707Y-41499410D01*
X149657773Y-41482068D01*
X149630677Y-41461972D01*
X149605682Y-41439318D01*
X149583028Y-41414323D01*
X149562932Y-41387227D01*
X149545590Y-41358293D01*
X149531166Y-41327797D01*
X149519802Y-41296035D01*
X149511605Y-41263312D01*
X149506655Y-41229943D01*
X149505000Y-41196250D01*
X149505000Y-40083750D01*
X149506655Y-40050057D01*
X149511605Y-40016688D01*
X149519802Y-39983965D01*
X149531166Y-39952203D01*
X149545590Y-39921707D01*
X149562932Y-39892773D01*
X149583028Y-39865677D01*
X149605682Y-39840682D01*
X149630677Y-39818028D01*
X149657773Y-39797932D01*
X149686707Y-39780590D01*
X149717203Y-39766166D01*
X149748965Y-39754802D01*
X149781688Y-39746605D01*
X149815057Y-39741655D01*
X149848750Y-39740000D01*
X150536250Y-39740000D01*
X150569943Y-39741655D01*
X150569943Y-39741655D01*
G37*
D18*
X150192500Y-40640000D03*
D19*
X105156000Y-76200000D03*
D20*
X105156000Y-78740000D03*
X104902000Y-40640000D03*
D19*
X104902000Y-43180000D03*
D21*
X170180000Y-46482000D03*
X167640000Y-46482000D03*
X165100000Y-46482000D03*
X162560000Y-46482000D03*
D22*
X160020000Y-46482000D03*
X198120000Y-59690000D03*
D21*
X198120000Y-62230000D03*
D23*
X135350000Y-81280000D03*
D15*
G36*
X133849340Y-80206605D02*
X133881698Y-80211405D01*
X133913429Y-80219353D01*
X133944229Y-80230373D01*
X133973800Y-80244359D01*
X134001857Y-80261177D01*
X134028132Y-80280663D01*
X134052369Y-80302631D01*
X134074337Y-80326868D01*
X134093823Y-80353143D01*
X134110641Y-80381200D01*
X134124627Y-80410771D01*
X134135647Y-80441571D01*
X134143595Y-80473302D01*
X134148395Y-80505660D01*
X134150000Y-80538332D01*
X134150000Y-82021668D01*
X134148395Y-82054340D01*
X134143595Y-82086698D01*
X134135647Y-82118429D01*
X134124627Y-82149229D01*
X134110641Y-82178800D01*
X134093823Y-82206857D01*
X134074337Y-82233132D01*
X134052369Y-82257369D01*
X134028132Y-82279337D01*
X134001857Y-82298823D01*
X133973800Y-82315641D01*
X133944229Y-82329627D01*
X133913429Y-82340647D01*
X133881698Y-82348595D01*
X133849340Y-82353395D01*
X133816668Y-82355000D01*
X132883332Y-82355000D01*
X132850660Y-82353395D01*
X132818302Y-82348595D01*
X132786571Y-82340647D01*
X132755771Y-82329627D01*
X132726200Y-82315641D01*
X132698143Y-82298823D01*
X132671868Y-82279337D01*
X132647631Y-82257369D01*
X132625663Y-82233132D01*
X132606177Y-82206857D01*
X132589359Y-82178800D01*
X132575373Y-82149229D01*
X132564353Y-82118429D01*
X132556405Y-82086698D01*
X132551605Y-82054340D01*
X132550000Y-82021668D01*
X132550000Y-80538332D01*
X132551605Y-80505660D01*
X132556405Y-80473302D01*
X132564353Y-80441571D01*
X132575373Y-80410771D01*
X132589359Y-80381200D01*
X132606177Y-80353143D01*
X132625663Y-80326868D01*
X132647631Y-80302631D01*
X132671868Y-80280663D01*
X132698143Y-80261177D01*
X132726200Y-80244359D01*
X132755771Y-80230373D01*
X132786571Y-80219353D01*
X132818302Y-80211405D01*
X132850660Y-80206605D01*
X132883332Y-80205000D01*
X133816668Y-80205000D01*
X133849340Y-80206605D01*
X133849340Y-80206605D01*
G37*
D16*
X133350000Y-81280000D03*
D23*
X144240000Y-81280000D03*
D15*
G36*
X142739340Y-80206605D02*
X142771698Y-80211405D01*
X142803429Y-80219353D01*
X142834229Y-80230373D01*
X142863800Y-80244359D01*
X142891857Y-80261177D01*
X142918132Y-80280663D01*
X142942369Y-80302631D01*
X142964337Y-80326868D01*
X142983823Y-80353143D01*
X143000641Y-80381200D01*
X143014627Y-80410771D01*
X143025647Y-80441571D01*
X143033595Y-80473302D01*
X143038395Y-80505660D01*
X143040000Y-80538332D01*
X143040000Y-82021668D01*
X143038395Y-82054340D01*
X143033595Y-82086698D01*
X143025647Y-82118429D01*
X143014627Y-82149229D01*
X143000641Y-82178800D01*
X142983823Y-82206857D01*
X142964337Y-82233132D01*
X142942369Y-82257369D01*
X142918132Y-82279337D01*
X142891857Y-82298823D01*
X142863800Y-82315641D01*
X142834229Y-82329627D01*
X142803429Y-82340647D01*
X142771698Y-82348595D01*
X142739340Y-82353395D01*
X142706668Y-82355000D01*
X141773332Y-82355000D01*
X141740660Y-82353395D01*
X141708302Y-82348595D01*
X141676571Y-82340647D01*
X141645771Y-82329627D01*
X141616200Y-82315641D01*
X141588143Y-82298823D01*
X141561868Y-82279337D01*
X141537631Y-82257369D01*
X141515663Y-82233132D01*
X141496177Y-82206857D01*
X141479359Y-82178800D01*
X141465373Y-82149229D01*
X141454353Y-82118429D01*
X141446405Y-82086698D01*
X141441605Y-82054340D01*
X141440000Y-82021668D01*
X141440000Y-80538332D01*
X141441605Y-80505660D01*
X141446405Y-80473302D01*
X141454353Y-80441571D01*
X141465373Y-80410771D01*
X141479359Y-80381200D01*
X141496177Y-80353143D01*
X141515663Y-80326868D01*
X141537631Y-80302631D01*
X141561868Y-80280663D01*
X141588143Y-80261177D01*
X141616200Y-80244359D01*
X141645771Y-80230373D01*
X141676571Y-80219353D01*
X141708302Y-80211405D01*
X141740660Y-80206605D01*
X141773332Y-80205000D01*
X142706668Y-80205000D01*
X142739340Y-80206605D01*
X142739340Y-80206605D01*
G37*
D16*
X142240000Y-81280000D03*
D15*
G36*
X151629340Y-80206605D02*
X151661698Y-80211405D01*
X151693429Y-80219353D01*
X151724229Y-80230373D01*
X151753800Y-80244359D01*
X151781857Y-80261177D01*
X151808132Y-80280663D01*
X151832369Y-80302631D01*
X151854337Y-80326868D01*
X151873823Y-80353143D01*
X151890641Y-80381200D01*
X151904627Y-80410771D01*
X151915647Y-80441571D01*
X151923595Y-80473302D01*
X151928395Y-80505660D01*
X151930000Y-80538332D01*
X151930000Y-82021668D01*
X151928395Y-82054340D01*
X151923595Y-82086698D01*
X151915647Y-82118429D01*
X151904627Y-82149229D01*
X151890641Y-82178800D01*
X151873823Y-82206857D01*
X151854337Y-82233132D01*
X151832369Y-82257369D01*
X151808132Y-82279337D01*
X151781857Y-82298823D01*
X151753800Y-82315641D01*
X151724229Y-82329627D01*
X151693429Y-82340647D01*
X151661698Y-82348595D01*
X151629340Y-82353395D01*
X151596668Y-82355000D01*
X150663332Y-82355000D01*
X150630660Y-82353395D01*
X150598302Y-82348595D01*
X150566571Y-82340647D01*
X150535771Y-82329627D01*
X150506200Y-82315641D01*
X150478143Y-82298823D01*
X150451868Y-82279337D01*
X150427631Y-82257369D01*
X150405663Y-82233132D01*
X150386177Y-82206857D01*
X150369359Y-82178800D01*
X150355373Y-82149229D01*
X150344353Y-82118429D01*
X150336405Y-82086698D01*
X150331605Y-82054340D01*
X150330000Y-82021668D01*
X150330000Y-80538332D01*
X150331605Y-80505660D01*
X150336405Y-80473302D01*
X150344353Y-80441571D01*
X150355373Y-80410771D01*
X150369359Y-80381200D01*
X150386177Y-80353143D01*
X150405663Y-80326868D01*
X150427631Y-80302631D01*
X150451868Y-80280663D01*
X150478143Y-80261177D01*
X150506200Y-80244359D01*
X150535771Y-80230373D01*
X150566571Y-80219353D01*
X150598302Y-80211405D01*
X150630660Y-80206605D01*
X150663332Y-80205000D01*
X151596668Y-80205000D01*
X151629340Y-80206605D01*
X151629340Y-80206605D01*
G37*
D16*
X151130000Y-81280000D03*
D23*
X153130000Y-81280000D03*
D15*
G36*
X160519340Y-80206605D02*
X160551698Y-80211405D01*
X160583429Y-80219353D01*
X160614229Y-80230373D01*
X160643800Y-80244359D01*
X160671857Y-80261177D01*
X160698132Y-80280663D01*
X160722369Y-80302631D01*
X160744337Y-80326868D01*
X160763823Y-80353143D01*
X160780641Y-80381200D01*
X160794627Y-80410771D01*
X160805647Y-80441571D01*
X160813595Y-80473302D01*
X160818395Y-80505660D01*
X160820000Y-80538332D01*
X160820000Y-82021668D01*
X160818395Y-82054340D01*
X160813595Y-82086698D01*
X160805647Y-82118429D01*
X160794627Y-82149229D01*
X160780641Y-82178800D01*
X160763823Y-82206857D01*
X160744337Y-82233132D01*
X160722369Y-82257369D01*
X160698132Y-82279337D01*
X160671857Y-82298823D01*
X160643800Y-82315641D01*
X160614229Y-82329627D01*
X160583429Y-82340647D01*
X160551698Y-82348595D01*
X160519340Y-82353395D01*
X160486668Y-82355000D01*
X159553332Y-82355000D01*
X159520660Y-82353395D01*
X159488302Y-82348595D01*
X159456571Y-82340647D01*
X159425771Y-82329627D01*
X159396200Y-82315641D01*
X159368143Y-82298823D01*
X159341868Y-82279337D01*
X159317631Y-82257369D01*
X159295663Y-82233132D01*
X159276177Y-82206857D01*
X159259359Y-82178800D01*
X159245373Y-82149229D01*
X159234353Y-82118429D01*
X159226405Y-82086698D01*
X159221605Y-82054340D01*
X159220000Y-82021668D01*
X159220000Y-80538332D01*
X159221605Y-80505660D01*
X159226405Y-80473302D01*
X159234353Y-80441571D01*
X159245373Y-80410771D01*
X159259359Y-80381200D01*
X159276177Y-80353143D01*
X159295663Y-80326868D01*
X159317631Y-80302631D01*
X159341868Y-80280663D01*
X159368143Y-80261177D01*
X159396200Y-80244359D01*
X159425771Y-80230373D01*
X159456571Y-80219353D01*
X159488302Y-80211405D01*
X159520660Y-80206605D01*
X159553332Y-80205000D01*
X160486668Y-80205000D01*
X160519340Y-80206605D01*
X160519340Y-80206605D01*
G37*
D16*
X160020000Y-81280000D03*
D23*
X162020000Y-81280000D03*
D15*
G36*
X169409340Y-80206605D02*
X169441698Y-80211405D01*
X169473429Y-80219353D01*
X169504229Y-80230373D01*
X169533800Y-80244359D01*
X169561857Y-80261177D01*
X169588132Y-80280663D01*
X169612369Y-80302631D01*
X169634337Y-80326868D01*
X169653823Y-80353143D01*
X169670641Y-80381200D01*
X169684627Y-80410771D01*
X169695647Y-80441571D01*
X169703595Y-80473302D01*
X169708395Y-80505660D01*
X169710000Y-80538332D01*
X169710000Y-82021668D01*
X169708395Y-82054340D01*
X169703595Y-82086698D01*
X169695647Y-82118429D01*
X169684627Y-82149229D01*
X169670641Y-82178800D01*
X169653823Y-82206857D01*
X169634337Y-82233132D01*
X169612369Y-82257369D01*
X169588132Y-82279337D01*
X169561857Y-82298823D01*
X169533800Y-82315641D01*
X169504229Y-82329627D01*
X169473429Y-82340647D01*
X169441698Y-82348595D01*
X169409340Y-82353395D01*
X169376668Y-82355000D01*
X168443332Y-82355000D01*
X168410660Y-82353395D01*
X168378302Y-82348595D01*
X168346571Y-82340647D01*
X168315771Y-82329627D01*
X168286200Y-82315641D01*
X168258143Y-82298823D01*
X168231868Y-82279337D01*
X168207631Y-82257369D01*
X168185663Y-82233132D01*
X168166177Y-82206857D01*
X168149359Y-82178800D01*
X168135373Y-82149229D01*
X168124353Y-82118429D01*
X168116405Y-82086698D01*
X168111605Y-82054340D01*
X168110000Y-82021668D01*
X168110000Y-80538332D01*
X168111605Y-80505660D01*
X168116405Y-80473302D01*
X168124353Y-80441571D01*
X168135373Y-80410771D01*
X168149359Y-80381200D01*
X168166177Y-80353143D01*
X168185663Y-80326868D01*
X168207631Y-80302631D01*
X168231868Y-80280663D01*
X168258143Y-80261177D01*
X168286200Y-80244359D01*
X168315771Y-80230373D01*
X168346571Y-80219353D01*
X168378302Y-80211405D01*
X168410660Y-80206605D01*
X168443332Y-80205000D01*
X169376668Y-80205000D01*
X169409340Y-80206605D01*
X169409340Y-80206605D01*
G37*
D16*
X168910000Y-81280000D03*
D23*
X170910000Y-81280000D03*
D17*
X193040000Y-29750000D03*
D15*
G36*
X193814340Y-30951605D02*
X193846698Y-30956405D01*
X193878429Y-30964353D01*
X193909229Y-30975373D01*
X193938800Y-30989359D01*
X193966857Y-31006177D01*
X193993132Y-31025663D01*
X194017369Y-31047631D01*
X194039337Y-31071868D01*
X194058823Y-31098143D01*
X194075641Y-31126200D01*
X194089627Y-31155771D01*
X194100647Y-31186571D01*
X194108595Y-31218302D01*
X194113395Y-31250660D01*
X194115000Y-31283332D01*
X194115000Y-32216668D01*
X194113395Y-32249340D01*
X194108595Y-32281698D01*
X194100647Y-32313429D01*
X194089627Y-32344229D01*
X194075641Y-32373800D01*
X194058823Y-32401857D01*
X194039337Y-32428132D01*
X194017369Y-32452369D01*
X193993132Y-32474337D01*
X193966857Y-32493823D01*
X193938800Y-32510641D01*
X193909229Y-32524627D01*
X193878429Y-32535647D01*
X193846698Y-32543595D01*
X193814340Y-32548395D01*
X193781668Y-32550000D01*
X192298332Y-32550000D01*
X192265660Y-32548395D01*
X192233302Y-32543595D01*
X192201571Y-32535647D01*
X192170771Y-32524627D01*
X192141200Y-32510641D01*
X192113143Y-32493823D01*
X192086868Y-32474337D01*
X192062631Y-32452369D01*
X192040663Y-32428132D01*
X192021177Y-32401857D01*
X192004359Y-32373800D01*
X191990373Y-32344229D01*
X191979353Y-32313429D01*
X191971405Y-32281698D01*
X191966605Y-32249340D01*
X191965000Y-32216668D01*
X191965000Y-31283332D01*
X191966605Y-31250660D01*
X191971405Y-31218302D01*
X191979353Y-31186571D01*
X191990373Y-31155771D01*
X192004359Y-31126200D01*
X192021177Y-31098143D01*
X192040663Y-31071868D01*
X192062631Y-31047631D01*
X192086868Y-31025663D01*
X192113143Y-31006177D01*
X192141200Y-30989359D01*
X192170771Y-30975373D01*
X192201571Y-30964353D01*
X192233302Y-30956405D01*
X192265660Y-30951605D01*
X192298332Y-30950000D01*
X193781668Y-30950000D01*
X193814340Y-30951605D01*
X193814340Y-30951605D01*
G37*
D16*
X193040000Y-31750000D03*
D24*
X169926000Y-72898000D03*
X168656000Y-72898000D03*
D25*
X171196000Y-72898000D03*
X153416000Y-72898000D03*
D24*
X150876000Y-72898000D03*
X152146000Y-72898000D03*
X161036000Y-72898000D03*
X159766000Y-72898000D03*
D25*
X162306000Y-72898000D03*
D15*
G36*
X135209943Y-87119655D02*
X135243312Y-87124605D01*
X135276035Y-87132802D01*
X135307797Y-87144166D01*
X135338293Y-87158590D01*
X135367227Y-87175932D01*
X135394323Y-87196028D01*
X135419318Y-87218682D01*
X135441972Y-87243677D01*
X135462068Y-87270773D01*
X135479410Y-87299707D01*
X135493834Y-87330203D01*
X135505198Y-87361965D01*
X135513395Y-87394688D01*
X135518345Y-87428057D01*
X135520000Y-87461750D01*
X135520000Y-88149250D01*
X135518345Y-88182943D01*
X135513395Y-88216312D01*
X135505198Y-88249035D01*
X135493834Y-88280797D01*
X135479410Y-88311293D01*
X135462068Y-88340227D01*
X135441972Y-88367323D01*
X135419318Y-88392318D01*
X135394323Y-88414972D01*
X135367227Y-88435068D01*
X135338293Y-88452410D01*
X135307797Y-88466834D01*
X135276035Y-88478198D01*
X135243312Y-88486395D01*
X135209943Y-88491345D01*
X135176250Y-88493000D01*
X134063750Y-88493000D01*
X134030057Y-88491345D01*
X133996688Y-88486395D01*
X133963965Y-88478198D01*
X133932203Y-88466834D01*
X133901707Y-88452410D01*
X133872773Y-88435068D01*
X133845677Y-88414972D01*
X133820682Y-88392318D01*
X133798028Y-88367323D01*
X133777932Y-88340227D01*
X133760590Y-88311293D01*
X133746166Y-88280797D01*
X133734802Y-88249035D01*
X133726605Y-88216312D01*
X133721655Y-88182943D01*
X133720000Y-88149250D01*
X133720000Y-87461750D01*
X133721655Y-87428057D01*
X133726605Y-87394688D01*
X133734802Y-87361965D01*
X133746166Y-87330203D01*
X133760590Y-87299707D01*
X133777932Y-87270773D01*
X133798028Y-87243677D01*
X133820682Y-87218682D01*
X133845677Y-87196028D01*
X133872773Y-87175932D01*
X133901707Y-87158590D01*
X133932203Y-87144166D01*
X133963965Y-87132802D01*
X133996688Y-87124605D01*
X134030057Y-87119655D01*
X134063750Y-87118000D01*
X135176250Y-87118000D01*
X135209943Y-87119655D01*
X135209943Y-87119655D01*
G37*
D18*
X134620000Y-87805500D03*
D15*
G36*
X135209943Y-85244655D02*
X135243312Y-85249605D01*
X135276035Y-85257802D01*
X135307797Y-85269166D01*
X135338293Y-85283590D01*
X135367227Y-85300932D01*
X135394323Y-85321028D01*
X135419318Y-85343682D01*
X135441972Y-85368677D01*
X135462068Y-85395773D01*
X135479410Y-85424707D01*
X135493834Y-85455203D01*
X135505198Y-85486965D01*
X135513395Y-85519688D01*
X135518345Y-85553057D01*
X135520000Y-85586750D01*
X135520000Y-86274250D01*
X135518345Y-86307943D01*
X135513395Y-86341312D01*
X135505198Y-86374035D01*
X135493834Y-86405797D01*
X135479410Y-86436293D01*
X135462068Y-86465227D01*
X135441972Y-86492323D01*
X135419318Y-86517318D01*
X135394323Y-86539972D01*
X135367227Y-86560068D01*
X135338293Y-86577410D01*
X135307797Y-86591834D01*
X135276035Y-86603198D01*
X135243312Y-86611395D01*
X135209943Y-86616345D01*
X135176250Y-86618000D01*
X134063750Y-86618000D01*
X134030057Y-86616345D01*
X133996688Y-86611395D01*
X133963965Y-86603198D01*
X133932203Y-86591834D01*
X133901707Y-86577410D01*
X133872773Y-86560068D01*
X133845677Y-86539972D01*
X133820682Y-86517318D01*
X133798028Y-86492323D01*
X133777932Y-86465227D01*
X133760590Y-86436293D01*
X133746166Y-86405797D01*
X133734802Y-86374035D01*
X133726605Y-86341312D01*
X133721655Y-86307943D01*
X133720000Y-86274250D01*
X133720000Y-85586750D01*
X133721655Y-85553057D01*
X133726605Y-85519688D01*
X133734802Y-85486965D01*
X133746166Y-85455203D01*
X133760590Y-85424707D01*
X133777932Y-85395773D01*
X133798028Y-85368677D01*
X133820682Y-85343682D01*
X133845677Y-85321028D01*
X133872773Y-85300932D01*
X133901707Y-85283590D01*
X133932203Y-85269166D01*
X133963965Y-85257802D01*
X133996688Y-85249605D01*
X134030057Y-85244655D01*
X134063750Y-85243000D01*
X135176250Y-85243000D01*
X135209943Y-85244655D01*
X135209943Y-85244655D01*
G37*
D18*
X134620000Y-85930500D03*
D15*
G36*
X144099943Y-87119655D02*
X144133312Y-87124605D01*
X144166035Y-87132802D01*
X144197797Y-87144166D01*
X144228293Y-87158590D01*
X144257227Y-87175932D01*
X144284323Y-87196028D01*
X144309318Y-87218682D01*
X144331972Y-87243677D01*
X144352068Y-87270773D01*
X144369410Y-87299707D01*
X144383834Y-87330203D01*
X144395198Y-87361965D01*
X144403395Y-87394688D01*
X144408345Y-87428057D01*
X144410000Y-87461750D01*
X144410000Y-88149250D01*
X144408345Y-88182943D01*
X144403395Y-88216312D01*
X144395198Y-88249035D01*
X144383834Y-88280797D01*
X144369410Y-88311293D01*
X144352068Y-88340227D01*
X144331972Y-88367323D01*
X144309318Y-88392318D01*
X144284323Y-88414972D01*
X144257227Y-88435068D01*
X144228293Y-88452410D01*
X144197797Y-88466834D01*
X144166035Y-88478198D01*
X144133312Y-88486395D01*
X144099943Y-88491345D01*
X144066250Y-88493000D01*
X142953750Y-88493000D01*
X142920057Y-88491345D01*
X142886688Y-88486395D01*
X142853965Y-88478198D01*
X142822203Y-88466834D01*
X142791707Y-88452410D01*
X142762773Y-88435068D01*
X142735677Y-88414972D01*
X142710682Y-88392318D01*
X142688028Y-88367323D01*
X142667932Y-88340227D01*
X142650590Y-88311293D01*
X142636166Y-88280797D01*
X142624802Y-88249035D01*
X142616605Y-88216312D01*
X142611655Y-88182943D01*
X142610000Y-88149250D01*
X142610000Y-87461750D01*
X142611655Y-87428057D01*
X142616605Y-87394688D01*
X142624802Y-87361965D01*
X142636166Y-87330203D01*
X142650590Y-87299707D01*
X142667932Y-87270773D01*
X142688028Y-87243677D01*
X142710682Y-87218682D01*
X142735677Y-87196028D01*
X142762773Y-87175932D01*
X142791707Y-87158590D01*
X142822203Y-87144166D01*
X142853965Y-87132802D01*
X142886688Y-87124605D01*
X142920057Y-87119655D01*
X142953750Y-87118000D01*
X144066250Y-87118000D01*
X144099943Y-87119655D01*
X144099943Y-87119655D01*
G37*
D18*
X143510000Y-87805500D03*
D15*
G36*
X144099943Y-85244655D02*
X144133312Y-85249605D01*
X144166035Y-85257802D01*
X144197797Y-85269166D01*
X144228293Y-85283590D01*
X144257227Y-85300932D01*
X144284323Y-85321028D01*
X144309318Y-85343682D01*
X144331972Y-85368677D01*
X144352068Y-85395773D01*
X144369410Y-85424707D01*
X144383834Y-85455203D01*
X144395198Y-85486965D01*
X144403395Y-85519688D01*
X144408345Y-85553057D01*
X144410000Y-85586750D01*
X144410000Y-86274250D01*
X144408345Y-86307943D01*
X144403395Y-86341312D01*
X144395198Y-86374035D01*
X144383834Y-86405797D01*
X144369410Y-86436293D01*
X144352068Y-86465227D01*
X144331972Y-86492323D01*
X144309318Y-86517318D01*
X144284323Y-86539972D01*
X144257227Y-86560068D01*
X144228293Y-86577410D01*
X144197797Y-86591834D01*
X144166035Y-86603198D01*
X144133312Y-86611395D01*
X144099943Y-86616345D01*
X144066250Y-86618000D01*
X142953750Y-86618000D01*
X142920057Y-86616345D01*
X142886688Y-86611395D01*
X142853965Y-86603198D01*
X142822203Y-86591834D01*
X142791707Y-86577410D01*
X142762773Y-86560068D01*
X142735677Y-86539972D01*
X142710682Y-86517318D01*
X142688028Y-86492323D01*
X142667932Y-86465227D01*
X142650590Y-86436293D01*
X142636166Y-86405797D01*
X142624802Y-86374035D01*
X142616605Y-86341312D01*
X142611655Y-86307943D01*
X142610000Y-86274250D01*
X142610000Y-85586750D01*
X142611655Y-85553057D01*
X142616605Y-85519688D01*
X142624802Y-85486965D01*
X142636166Y-85455203D01*
X142650590Y-85424707D01*
X142667932Y-85395773D01*
X142688028Y-85368677D01*
X142710682Y-85343682D01*
X142735677Y-85321028D01*
X142762773Y-85300932D01*
X142791707Y-85283590D01*
X142822203Y-85269166D01*
X142853965Y-85257802D01*
X142886688Y-85249605D01*
X142920057Y-85244655D01*
X142953750Y-85243000D01*
X144066250Y-85243000D01*
X144099943Y-85244655D01*
X144099943Y-85244655D01*
G37*
D18*
X143510000Y-85930500D03*
D15*
G36*
X152989943Y-85244655D02*
X153023312Y-85249605D01*
X153056035Y-85257802D01*
X153087797Y-85269166D01*
X153118293Y-85283590D01*
X153147227Y-85300932D01*
X153174323Y-85321028D01*
X153199318Y-85343682D01*
X153221972Y-85368677D01*
X153242068Y-85395773D01*
X153259410Y-85424707D01*
X153273834Y-85455203D01*
X153285198Y-85486965D01*
X153293395Y-85519688D01*
X153298345Y-85553057D01*
X153300000Y-85586750D01*
X153300000Y-86274250D01*
X153298345Y-86307943D01*
X153293395Y-86341312D01*
X153285198Y-86374035D01*
X153273834Y-86405797D01*
X153259410Y-86436293D01*
X153242068Y-86465227D01*
X153221972Y-86492323D01*
X153199318Y-86517318D01*
X153174323Y-86539972D01*
X153147227Y-86560068D01*
X153118293Y-86577410D01*
X153087797Y-86591834D01*
X153056035Y-86603198D01*
X153023312Y-86611395D01*
X152989943Y-86616345D01*
X152956250Y-86618000D01*
X151843750Y-86618000D01*
X151810057Y-86616345D01*
X151776688Y-86611395D01*
X151743965Y-86603198D01*
X151712203Y-86591834D01*
X151681707Y-86577410D01*
X151652773Y-86560068D01*
X151625677Y-86539972D01*
X151600682Y-86517318D01*
X151578028Y-86492323D01*
X151557932Y-86465227D01*
X151540590Y-86436293D01*
X151526166Y-86405797D01*
X151514802Y-86374035D01*
X151506605Y-86341312D01*
X151501655Y-86307943D01*
X151500000Y-86274250D01*
X151500000Y-85586750D01*
X151501655Y-85553057D01*
X151506605Y-85519688D01*
X151514802Y-85486965D01*
X151526166Y-85455203D01*
X151540590Y-85424707D01*
X151557932Y-85395773D01*
X151578028Y-85368677D01*
X151600682Y-85343682D01*
X151625677Y-85321028D01*
X151652773Y-85300932D01*
X151681707Y-85283590D01*
X151712203Y-85269166D01*
X151743965Y-85257802D01*
X151776688Y-85249605D01*
X151810057Y-85244655D01*
X151843750Y-85243000D01*
X152956250Y-85243000D01*
X152989943Y-85244655D01*
X152989943Y-85244655D01*
G37*
D18*
X152400000Y-85930500D03*
D15*
G36*
X152989943Y-87119655D02*
X153023312Y-87124605D01*
X153056035Y-87132802D01*
X153087797Y-87144166D01*
X153118293Y-87158590D01*
X153147227Y-87175932D01*
X153174323Y-87196028D01*
X153199318Y-87218682D01*
X153221972Y-87243677D01*
X153242068Y-87270773D01*
X153259410Y-87299707D01*
X153273834Y-87330203D01*
X153285198Y-87361965D01*
X153293395Y-87394688D01*
X153298345Y-87428057D01*
X153300000Y-87461750D01*
X153300000Y-88149250D01*
X153298345Y-88182943D01*
X153293395Y-88216312D01*
X153285198Y-88249035D01*
X153273834Y-88280797D01*
X153259410Y-88311293D01*
X153242068Y-88340227D01*
X153221972Y-88367323D01*
X153199318Y-88392318D01*
X153174323Y-88414972D01*
X153147227Y-88435068D01*
X153118293Y-88452410D01*
X153087797Y-88466834D01*
X153056035Y-88478198D01*
X153023312Y-88486395D01*
X152989943Y-88491345D01*
X152956250Y-88493000D01*
X151843750Y-88493000D01*
X151810057Y-88491345D01*
X151776688Y-88486395D01*
X151743965Y-88478198D01*
X151712203Y-88466834D01*
X151681707Y-88452410D01*
X151652773Y-88435068D01*
X151625677Y-88414972D01*
X151600682Y-88392318D01*
X151578028Y-88367323D01*
X151557932Y-88340227D01*
X151540590Y-88311293D01*
X151526166Y-88280797D01*
X151514802Y-88249035D01*
X151506605Y-88216312D01*
X151501655Y-88182943D01*
X151500000Y-88149250D01*
X151500000Y-87461750D01*
X151501655Y-87428057D01*
X151506605Y-87394688D01*
X151514802Y-87361965D01*
X151526166Y-87330203D01*
X151540590Y-87299707D01*
X151557932Y-87270773D01*
X151578028Y-87243677D01*
X151600682Y-87218682D01*
X151625677Y-87196028D01*
X151652773Y-87175932D01*
X151681707Y-87158590D01*
X151712203Y-87144166D01*
X151743965Y-87132802D01*
X151776688Y-87124605D01*
X151810057Y-87119655D01*
X151843750Y-87118000D01*
X152956250Y-87118000D01*
X152989943Y-87119655D01*
X152989943Y-87119655D01*
G37*
D18*
X152400000Y-87805500D03*
D15*
G36*
X152444943Y-44186655D02*
X152478312Y-44191605D01*
X152511035Y-44199802D01*
X152542797Y-44211166D01*
X152573293Y-44225590D01*
X152602227Y-44242932D01*
X152629323Y-44263028D01*
X152654318Y-44285682D01*
X152676972Y-44310677D01*
X152697068Y-44337773D01*
X152714410Y-44366707D01*
X152728834Y-44397203D01*
X152740198Y-44428965D01*
X152748395Y-44461688D01*
X152753345Y-44495057D01*
X152755000Y-44528750D01*
X152755000Y-45641250D01*
X152753345Y-45674943D01*
X152748395Y-45708312D01*
X152740198Y-45741035D01*
X152728834Y-45772797D01*
X152714410Y-45803293D01*
X152697068Y-45832227D01*
X152676972Y-45859323D01*
X152654318Y-45884318D01*
X152629323Y-45906972D01*
X152602227Y-45927068D01*
X152573293Y-45944410D01*
X152542797Y-45958834D01*
X152511035Y-45970198D01*
X152478312Y-45978395D01*
X152444943Y-45983345D01*
X152411250Y-45985000D01*
X151723750Y-45985000D01*
X151690057Y-45983345D01*
X151656688Y-45978395D01*
X151623965Y-45970198D01*
X151592203Y-45958834D01*
X151561707Y-45944410D01*
X151532773Y-45927068D01*
X151505677Y-45906972D01*
X151480682Y-45884318D01*
X151458028Y-45859323D01*
X151437932Y-45832227D01*
X151420590Y-45803293D01*
X151406166Y-45772797D01*
X151394802Y-45741035D01*
X151386605Y-45708312D01*
X151381655Y-45674943D01*
X151380000Y-45641250D01*
X151380000Y-44528750D01*
X151381655Y-44495057D01*
X151386605Y-44461688D01*
X151394802Y-44428965D01*
X151406166Y-44397203D01*
X151420590Y-44366707D01*
X151437932Y-44337773D01*
X151458028Y-44310677D01*
X151480682Y-44285682D01*
X151505677Y-44263028D01*
X151532773Y-44242932D01*
X151561707Y-44225590D01*
X151592203Y-44211166D01*
X151623965Y-44199802D01*
X151656688Y-44191605D01*
X151690057Y-44186655D01*
X151723750Y-44185000D01*
X152411250Y-44185000D01*
X152444943Y-44186655D01*
X152444943Y-44186655D01*
G37*
D18*
X152067500Y-45085000D03*
D15*
G36*
X150569943Y-44186655D02*
X150603312Y-44191605D01*
X150636035Y-44199802D01*
X150667797Y-44211166D01*
X150698293Y-44225590D01*
X150727227Y-44242932D01*
X150754323Y-44263028D01*
X150779318Y-44285682D01*
X150801972Y-44310677D01*
X150822068Y-44337773D01*
X150839410Y-44366707D01*
X150853834Y-44397203D01*
X150865198Y-44428965D01*
X150873395Y-44461688D01*
X150878345Y-44495057D01*
X150880000Y-44528750D01*
X150880000Y-45641250D01*
X150878345Y-45674943D01*
X150873395Y-45708312D01*
X150865198Y-45741035D01*
X150853834Y-45772797D01*
X150839410Y-45803293D01*
X150822068Y-45832227D01*
X150801972Y-45859323D01*
X150779318Y-45884318D01*
X150754323Y-45906972D01*
X150727227Y-45927068D01*
X150698293Y-45944410D01*
X150667797Y-45958834D01*
X150636035Y-45970198D01*
X150603312Y-45978395D01*
X150569943Y-45983345D01*
X150536250Y-45985000D01*
X149848750Y-45985000D01*
X149815057Y-45983345D01*
X149781688Y-45978395D01*
X149748965Y-45970198D01*
X149717203Y-45958834D01*
X149686707Y-45944410D01*
X149657773Y-45927068D01*
X149630677Y-45906972D01*
X149605682Y-45884318D01*
X149583028Y-45859323D01*
X149562932Y-45832227D01*
X149545590Y-45803293D01*
X149531166Y-45772797D01*
X149519802Y-45741035D01*
X149511605Y-45708312D01*
X149506655Y-45674943D01*
X149505000Y-45641250D01*
X149505000Y-44528750D01*
X149506655Y-44495057D01*
X149511605Y-44461688D01*
X149519802Y-44428965D01*
X149531166Y-44397203D01*
X149545590Y-44366707D01*
X149562932Y-44337773D01*
X149583028Y-44310677D01*
X149605682Y-44285682D01*
X149630677Y-44263028D01*
X149657773Y-44242932D01*
X149686707Y-44225590D01*
X149717203Y-44211166D01*
X149748965Y-44199802D01*
X149781688Y-44191605D01*
X149815057Y-44186655D01*
X149848750Y-44185000D01*
X150536250Y-44185000D01*
X150569943Y-44186655D01*
X150569943Y-44186655D01*
G37*
D18*
X150192500Y-45085000D03*
D15*
G36*
X170515943Y-67561655D02*
X170549312Y-67566605D01*
X170582035Y-67574802D01*
X170613797Y-67586166D01*
X170644293Y-67600590D01*
X170673227Y-67617932D01*
X170700323Y-67638028D01*
X170725318Y-67660682D01*
X170747972Y-67685677D01*
X170768068Y-67712773D01*
X170785410Y-67741707D01*
X170799834Y-67772203D01*
X170811198Y-67803965D01*
X170819395Y-67836688D01*
X170824345Y-67870057D01*
X170826000Y-67903750D01*
X170826000Y-68591250D01*
X170824345Y-68624943D01*
X170819395Y-68658312D01*
X170811198Y-68691035D01*
X170799834Y-68722797D01*
X170785410Y-68753293D01*
X170768068Y-68782227D01*
X170747972Y-68809323D01*
X170725318Y-68834318D01*
X170700323Y-68856972D01*
X170673227Y-68877068D01*
X170644293Y-68894410D01*
X170613797Y-68908834D01*
X170582035Y-68920198D01*
X170549312Y-68928395D01*
X170515943Y-68933345D01*
X170482250Y-68935000D01*
X169369750Y-68935000D01*
X169336057Y-68933345D01*
X169302688Y-68928395D01*
X169269965Y-68920198D01*
X169238203Y-68908834D01*
X169207707Y-68894410D01*
X169178773Y-68877068D01*
X169151677Y-68856972D01*
X169126682Y-68834318D01*
X169104028Y-68809323D01*
X169083932Y-68782227D01*
X169066590Y-68753293D01*
X169052166Y-68722797D01*
X169040802Y-68691035D01*
X169032605Y-68658312D01*
X169027655Y-68624943D01*
X169026000Y-68591250D01*
X169026000Y-67903750D01*
X169027655Y-67870057D01*
X169032605Y-67836688D01*
X169040802Y-67803965D01*
X169052166Y-67772203D01*
X169066590Y-67741707D01*
X169083932Y-67712773D01*
X169104028Y-67685677D01*
X169126682Y-67660682D01*
X169151677Y-67638028D01*
X169178773Y-67617932D01*
X169207707Y-67600590D01*
X169238203Y-67586166D01*
X169269965Y-67574802D01*
X169302688Y-67566605D01*
X169336057Y-67561655D01*
X169369750Y-67560000D01*
X170482250Y-67560000D01*
X170515943Y-67561655D01*
X170515943Y-67561655D01*
G37*
D18*
X169926000Y-68247500D03*
D15*
G36*
X170515943Y-65686655D02*
X170549312Y-65691605D01*
X170582035Y-65699802D01*
X170613797Y-65711166D01*
X170644293Y-65725590D01*
X170673227Y-65742932D01*
X170700323Y-65763028D01*
X170725318Y-65785682D01*
X170747972Y-65810677D01*
X170768068Y-65837773D01*
X170785410Y-65866707D01*
X170799834Y-65897203D01*
X170811198Y-65928965D01*
X170819395Y-65961688D01*
X170824345Y-65995057D01*
X170826000Y-66028750D01*
X170826000Y-66716250D01*
X170824345Y-66749943D01*
X170819395Y-66783312D01*
X170811198Y-66816035D01*
X170799834Y-66847797D01*
X170785410Y-66878293D01*
X170768068Y-66907227D01*
X170747972Y-66934323D01*
X170725318Y-66959318D01*
X170700323Y-66981972D01*
X170673227Y-67002068D01*
X170644293Y-67019410D01*
X170613797Y-67033834D01*
X170582035Y-67045198D01*
X170549312Y-67053395D01*
X170515943Y-67058345D01*
X170482250Y-67060000D01*
X169369750Y-67060000D01*
X169336057Y-67058345D01*
X169302688Y-67053395D01*
X169269965Y-67045198D01*
X169238203Y-67033834D01*
X169207707Y-67019410D01*
X169178773Y-67002068D01*
X169151677Y-66981972D01*
X169126682Y-66959318D01*
X169104028Y-66934323D01*
X169083932Y-66907227D01*
X169066590Y-66878293D01*
X169052166Y-66847797D01*
X169040802Y-66816035D01*
X169032605Y-66783312D01*
X169027655Y-66749943D01*
X169026000Y-66716250D01*
X169026000Y-66028750D01*
X169027655Y-65995057D01*
X169032605Y-65961688D01*
X169040802Y-65928965D01*
X169052166Y-65897203D01*
X169066590Y-65866707D01*
X169083932Y-65837773D01*
X169104028Y-65810677D01*
X169126682Y-65785682D01*
X169151677Y-65763028D01*
X169178773Y-65742932D01*
X169207707Y-65725590D01*
X169238203Y-65711166D01*
X169269965Y-65699802D01*
X169302688Y-65691605D01*
X169336057Y-65686655D01*
X169369750Y-65685000D01*
X170482250Y-65685000D01*
X170515943Y-65686655D01*
X170515943Y-65686655D01*
G37*
D18*
X169926000Y-66372500D03*
D15*
G36*
X170769943Y-87119655D02*
X170803312Y-87124605D01*
X170836035Y-87132802D01*
X170867797Y-87144166D01*
X170898293Y-87158590D01*
X170927227Y-87175932D01*
X170954323Y-87196028D01*
X170979318Y-87218682D01*
X171001972Y-87243677D01*
X171022068Y-87270773D01*
X171039410Y-87299707D01*
X171053834Y-87330203D01*
X171065198Y-87361965D01*
X171073395Y-87394688D01*
X171078345Y-87428057D01*
X171080000Y-87461750D01*
X171080000Y-88149250D01*
X171078345Y-88182943D01*
X171073395Y-88216312D01*
X171065198Y-88249035D01*
X171053834Y-88280797D01*
X171039410Y-88311293D01*
X171022068Y-88340227D01*
X171001972Y-88367323D01*
X170979318Y-88392318D01*
X170954323Y-88414972D01*
X170927227Y-88435068D01*
X170898293Y-88452410D01*
X170867797Y-88466834D01*
X170836035Y-88478198D01*
X170803312Y-88486395D01*
X170769943Y-88491345D01*
X170736250Y-88493000D01*
X169623750Y-88493000D01*
X169590057Y-88491345D01*
X169556688Y-88486395D01*
X169523965Y-88478198D01*
X169492203Y-88466834D01*
X169461707Y-88452410D01*
X169432773Y-88435068D01*
X169405677Y-88414972D01*
X169380682Y-88392318D01*
X169358028Y-88367323D01*
X169337932Y-88340227D01*
X169320590Y-88311293D01*
X169306166Y-88280797D01*
X169294802Y-88249035D01*
X169286605Y-88216312D01*
X169281655Y-88182943D01*
X169280000Y-88149250D01*
X169280000Y-87461750D01*
X169281655Y-87428057D01*
X169286605Y-87394688D01*
X169294802Y-87361965D01*
X169306166Y-87330203D01*
X169320590Y-87299707D01*
X169337932Y-87270773D01*
X169358028Y-87243677D01*
X169380682Y-87218682D01*
X169405677Y-87196028D01*
X169432773Y-87175932D01*
X169461707Y-87158590D01*
X169492203Y-87144166D01*
X169523965Y-87132802D01*
X169556688Y-87124605D01*
X169590057Y-87119655D01*
X169623750Y-87118000D01*
X170736250Y-87118000D01*
X170769943Y-87119655D01*
X170769943Y-87119655D01*
G37*
D18*
X170180000Y-87805500D03*
D15*
G36*
X170769943Y-85244655D02*
X170803312Y-85249605D01*
X170836035Y-85257802D01*
X170867797Y-85269166D01*
X170898293Y-85283590D01*
X170927227Y-85300932D01*
X170954323Y-85321028D01*
X170979318Y-85343682D01*
X171001972Y-85368677D01*
X171022068Y-85395773D01*
X171039410Y-85424707D01*
X171053834Y-85455203D01*
X171065198Y-85486965D01*
X171073395Y-85519688D01*
X171078345Y-85553057D01*
X171080000Y-85586750D01*
X171080000Y-86274250D01*
X171078345Y-86307943D01*
X171073395Y-86341312D01*
X171065198Y-86374035D01*
X171053834Y-86405797D01*
X171039410Y-86436293D01*
X171022068Y-86465227D01*
X171001972Y-86492323D01*
X170979318Y-86517318D01*
X170954323Y-86539972D01*
X170927227Y-86560068D01*
X170898293Y-86577410D01*
X170867797Y-86591834D01*
X170836035Y-86603198D01*
X170803312Y-86611395D01*
X170769943Y-86616345D01*
X170736250Y-86618000D01*
X169623750Y-86618000D01*
X169590057Y-86616345D01*
X169556688Y-86611395D01*
X169523965Y-86603198D01*
X169492203Y-86591834D01*
X169461707Y-86577410D01*
X169432773Y-86560068D01*
X169405677Y-86539972D01*
X169380682Y-86517318D01*
X169358028Y-86492323D01*
X169337932Y-86465227D01*
X169320590Y-86436293D01*
X169306166Y-86405797D01*
X169294802Y-86374035D01*
X169286605Y-86341312D01*
X169281655Y-86307943D01*
X169280000Y-86274250D01*
X169280000Y-85586750D01*
X169281655Y-85553057D01*
X169286605Y-85519688D01*
X169294802Y-85486965D01*
X169306166Y-85455203D01*
X169320590Y-85424707D01*
X169337932Y-85395773D01*
X169358028Y-85368677D01*
X169380682Y-85343682D01*
X169405677Y-85321028D01*
X169432773Y-85300932D01*
X169461707Y-85283590D01*
X169492203Y-85269166D01*
X169523965Y-85257802D01*
X169556688Y-85249605D01*
X169590057Y-85244655D01*
X169623750Y-85243000D01*
X170736250Y-85243000D01*
X170769943Y-85244655D01*
X170769943Y-85244655D01*
G37*
D18*
X170180000Y-85930500D03*
D15*
G36*
X161879943Y-87119655D02*
X161913312Y-87124605D01*
X161946035Y-87132802D01*
X161977797Y-87144166D01*
X162008293Y-87158590D01*
X162037227Y-87175932D01*
X162064323Y-87196028D01*
X162089318Y-87218682D01*
X162111972Y-87243677D01*
X162132068Y-87270773D01*
X162149410Y-87299707D01*
X162163834Y-87330203D01*
X162175198Y-87361965D01*
X162183395Y-87394688D01*
X162188345Y-87428057D01*
X162190000Y-87461750D01*
X162190000Y-88149250D01*
X162188345Y-88182943D01*
X162183395Y-88216312D01*
X162175198Y-88249035D01*
X162163834Y-88280797D01*
X162149410Y-88311293D01*
X162132068Y-88340227D01*
X162111972Y-88367323D01*
X162089318Y-88392318D01*
X162064323Y-88414972D01*
X162037227Y-88435068D01*
X162008293Y-88452410D01*
X161977797Y-88466834D01*
X161946035Y-88478198D01*
X161913312Y-88486395D01*
X161879943Y-88491345D01*
X161846250Y-88493000D01*
X160733750Y-88493000D01*
X160700057Y-88491345D01*
X160666688Y-88486395D01*
X160633965Y-88478198D01*
X160602203Y-88466834D01*
X160571707Y-88452410D01*
X160542773Y-88435068D01*
X160515677Y-88414972D01*
X160490682Y-88392318D01*
X160468028Y-88367323D01*
X160447932Y-88340227D01*
X160430590Y-88311293D01*
X160416166Y-88280797D01*
X160404802Y-88249035D01*
X160396605Y-88216312D01*
X160391655Y-88182943D01*
X160390000Y-88149250D01*
X160390000Y-87461750D01*
X160391655Y-87428057D01*
X160396605Y-87394688D01*
X160404802Y-87361965D01*
X160416166Y-87330203D01*
X160430590Y-87299707D01*
X160447932Y-87270773D01*
X160468028Y-87243677D01*
X160490682Y-87218682D01*
X160515677Y-87196028D01*
X160542773Y-87175932D01*
X160571707Y-87158590D01*
X160602203Y-87144166D01*
X160633965Y-87132802D01*
X160666688Y-87124605D01*
X160700057Y-87119655D01*
X160733750Y-87118000D01*
X161846250Y-87118000D01*
X161879943Y-87119655D01*
X161879943Y-87119655D01*
G37*
D18*
X161290000Y-87805500D03*
D15*
G36*
X161879943Y-85244655D02*
X161913312Y-85249605D01*
X161946035Y-85257802D01*
X161977797Y-85269166D01*
X162008293Y-85283590D01*
X162037227Y-85300932D01*
X162064323Y-85321028D01*
X162089318Y-85343682D01*
X162111972Y-85368677D01*
X162132068Y-85395773D01*
X162149410Y-85424707D01*
X162163834Y-85455203D01*
X162175198Y-85486965D01*
X162183395Y-85519688D01*
X162188345Y-85553057D01*
X162190000Y-85586750D01*
X162190000Y-86274250D01*
X162188345Y-86307943D01*
X162183395Y-86341312D01*
X162175198Y-86374035D01*
X162163834Y-86405797D01*
X162149410Y-86436293D01*
X162132068Y-86465227D01*
X162111972Y-86492323D01*
X162089318Y-86517318D01*
X162064323Y-86539972D01*
X162037227Y-86560068D01*
X162008293Y-86577410D01*
X161977797Y-86591834D01*
X161946035Y-86603198D01*
X161913312Y-86611395D01*
X161879943Y-86616345D01*
X161846250Y-86618000D01*
X160733750Y-86618000D01*
X160700057Y-86616345D01*
X160666688Y-86611395D01*
X160633965Y-86603198D01*
X160602203Y-86591834D01*
X160571707Y-86577410D01*
X160542773Y-86560068D01*
X160515677Y-86539972D01*
X160490682Y-86517318D01*
X160468028Y-86492323D01*
X160447932Y-86465227D01*
X160430590Y-86436293D01*
X160416166Y-86405797D01*
X160404802Y-86374035D01*
X160396605Y-86341312D01*
X160391655Y-86307943D01*
X160390000Y-86274250D01*
X160390000Y-85586750D01*
X160391655Y-85553057D01*
X160396605Y-85519688D01*
X160404802Y-85486965D01*
X160416166Y-85455203D01*
X160430590Y-85424707D01*
X160447932Y-85395773D01*
X160468028Y-85368677D01*
X160490682Y-85343682D01*
X160515677Y-85321028D01*
X160542773Y-85300932D01*
X160571707Y-85283590D01*
X160602203Y-85269166D01*
X160633965Y-85257802D01*
X160666688Y-85249605D01*
X160700057Y-85244655D01*
X160733750Y-85243000D01*
X161846250Y-85243000D01*
X161879943Y-85244655D01*
X161879943Y-85244655D01*
G37*
D18*
X161290000Y-85930500D03*
D15*
G36*
X180384943Y-91811655D02*
X180418312Y-91816605D01*
X180451035Y-91824802D01*
X180482797Y-91836166D01*
X180513293Y-91850590D01*
X180542227Y-91867932D01*
X180569323Y-91888028D01*
X180594318Y-91910682D01*
X180616972Y-91935677D01*
X180637068Y-91962773D01*
X180654410Y-91991707D01*
X180668834Y-92022203D01*
X180680198Y-92053965D01*
X180688395Y-92086688D01*
X180693345Y-92120057D01*
X180695000Y-92153750D01*
X180695000Y-93266250D01*
X180693345Y-93299943D01*
X180688395Y-93333312D01*
X180680198Y-93366035D01*
X180668834Y-93397797D01*
X180654410Y-93428293D01*
X180637068Y-93457227D01*
X180616972Y-93484323D01*
X180594318Y-93509318D01*
X180569323Y-93531972D01*
X180542227Y-93552068D01*
X180513293Y-93569410D01*
X180482797Y-93583834D01*
X180451035Y-93595198D01*
X180418312Y-93603395D01*
X180384943Y-93608345D01*
X180351250Y-93610000D01*
X179663750Y-93610000D01*
X179630057Y-93608345D01*
X179596688Y-93603395D01*
X179563965Y-93595198D01*
X179532203Y-93583834D01*
X179501707Y-93569410D01*
X179472773Y-93552068D01*
X179445677Y-93531972D01*
X179420682Y-93509318D01*
X179398028Y-93484323D01*
X179377932Y-93457227D01*
X179360590Y-93428293D01*
X179346166Y-93397797D01*
X179334802Y-93366035D01*
X179326605Y-93333312D01*
X179321655Y-93299943D01*
X179320000Y-93266250D01*
X179320000Y-92153750D01*
X179321655Y-92120057D01*
X179326605Y-92086688D01*
X179334802Y-92053965D01*
X179346166Y-92022203D01*
X179360590Y-91991707D01*
X179377932Y-91962773D01*
X179398028Y-91935677D01*
X179420682Y-91910682D01*
X179445677Y-91888028D01*
X179472773Y-91867932D01*
X179501707Y-91850590D01*
X179532203Y-91836166D01*
X179563965Y-91824802D01*
X179596688Y-91816605D01*
X179630057Y-91811655D01*
X179663750Y-91810000D01*
X180351250Y-91810000D01*
X180384943Y-91811655D01*
X180384943Y-91811655D01*
G37*
D18*
X180007500Y-92710000D03*
D15*
G36*
X178509943Y-91811655D02*
X178543312Y-91816605D01*
X178576035Y-91824802D01*
X178607797Y-91836166D01*
X178638293Y-91850590D01*
X178667227Y-91867932D01*
X178694323Y-91888028D01*
X178719318Y-91910682D01*
X178741972Y-91935677D01*
X178762068Y-91962773D01*
X178779410Y-91991707D01*
X178793834Y-92022203D01*
X178805198Y-92053965D01*
X178813395Y-92086688D01*
X178818345Y-92120057D01*
X178820000Y-92153750D01*
X178820000Y-93266250D01*
X178818345Y-93299943D01*
X178813395Y-93333312D01*
X178805198Y-93366035D01*
X178793834Y-93397797D01*
X178779410Y-93428293D01*
X178762068Y-93457227D01*
X178741972Y-93484323D01*
X178719318Y-93509318D01*
X178694323Y-93531972D01*
X178667227Y-93552068D01*
X178638293Y-93569410D01*
X178607797Y-93583834D01*
X178576035Y-93595198D01*
X178543312Y-93603395D01*
X178509943Y-93608345D01*
X178476250Y-93610000D01*
X177788750Y-93610000D01*
X177755057Y-93608345D01*
X177721688Y-93603395D01*
X177688965Y-93595198D01*
X177657203Y-93583834D01*
X177626707Y-93569410D01*
X177597773Y-93552068D01*
X177570677Y-93531972D01*
X177545682Y-93509318D01*
X177523028Y-93484323D01*
X177502932Y-93457227D01*
X177485590Y-93428293D01*
X177471166Y-93397797D01*
X177459802Y-93366035D01*
X177451605Y-93333312D01*
X177446655Y-93299943D01*
X177445000Y-93266250D01*
X177445000Y-92153750D01*
X177446655Y-92120057D01*
X177451605Y-92086688D01*
X177459802Y-92053965D01*
X177471166Y-92022203D01*
X177485590Y-91991707D01*
X177502932Y-91962773D01*
X177523028Y-91935677D01*
X177545682Y-91910682D01*
X177570677Y-91888028D01*
X177597773Y-91867932D01*
X177626707Y-91850590D01*
X177657203Y-91836166D01*
X177688965Y-91824802D01*
X177721688Y-91816605D01*
X177755057Y-91811655D01*
X177788750Y-91810000D01*
X178476250Y-91810000D01*
X178509943Y-91811655D01*
X178509943Y-91811655D01*
G37*
D18*
X178132500Y-92710000D03*
D15*
G36*
X188549943Y-87276655D02*
X188583312Y-87281605D01*
X188616035Y-87289802D01*
X188647797Y-87301166D01*
X188678293Y-87315590D01*
X188707227Y-87332932D01*
X188734323Y-87353028D01*
X188759318Y-87375682D01*
X188781972Y-87400677D01*
X188802068Y-87427773D01*
X188819410Y-87456707D01*
X188833834Y-87487203D01*
X188845198Y-87518965D01*
X188853395Y-87551688D01*
X188858345Y-87585057D01*
X188860000Y-87618750D01*
X188860000Y-88306250D01*
X188858345Y-88339943D01*
X188853395Y-88373312D01*
X188845198Y-88406035D01*
X188833834Y-88437797D01*
X188819410Y-88468293D01*
X188802068Y-88497227D01*
X188781972Y-88524323D01*
X188759318Y-88549318D01*
X188734323Y-88571972D01*
X188707227Y-88592068D01*
X188678293Y-88609410D01*
X188647797Y-88623834D01*
X188616035Y-88635198D01*
X188583312Y-88643395D01*
X188549943Y-88648345D01*
X188516250Y-88650000D01*
X187403750Y-88650000D01*
X187370057Y-88648345D01*
X187336688Y-88643395D01*
X187303965Y-88635198D01*
X187272203Y-88623834D01*
X187241707Y-88609410D01*
X187212773Y-88592068D01*
X187185677Y-88571972D01*
X187160682Y-88549318D01*
X187138028Y-88524323D01*
X187117932Y-88497227D01*
X187100590Y-88468293D01*
X187086166Y-88437797D01*
X187074802Y-88406035D01*
X187066605Y-88373312D01*
X187061655Y-88339943D01*
X187060000Y-88306250D01*
X187060000Y-87618750D01*
X187061655Y-87585057D01*
X187066605Y-87551688D01*
X187074802Y-87518965D01*
X187086166Y-87487203D01*
X187100590Y-87456707D01*
X187117932Y-87427773D01*
X187138028Y-87400677D01*
X187160682Y-87375682D01*
X187185677Y-87353028D01*
X187212773Y-87332932D01*
X187241707Y-87315590D01*
X187272203Y-87301166D01*
X187303965Y-87289802D01*
X187336688Y-87281605D01*
X187370057Y-87276655D01*
X187403750Y-87275000D01*
X188516250Y-87275000D01*
X188549943Y-87276655D01*
X188549943Y-87276655D01*
G37*
D18*
X187960000Y-87962500D03*
D15*
G36*
X188549943Y-89151655D02*
X188583312Y-89156605D01*
X188616035Y-89164802D01*
X188647797Y-89176166D01*
X188678293Y-89190590D01*
X188707227Y-89207932D01*
X188734323Y-89228028D01*
X188759318Y-89250682D01*
X188781972Y-89275677D01*
X188802068Y-89302773D01*
X188819410Y-89331707D01*
X188833834Y-89362203D01*
X188845198Y-89393965D01*
X188853395Y-89426688D01*
X188858345Y-89460057D01*
X188860000Y-89493750D01*
X188860000Y-90181250D01*
X188858345Y-90214943D01*
X188853395Y-90248312D01*
X188845198Y-90281035D01*
X188833834Y-90312797D01*
X188819410Y-90343293D01*
X188802068Y-90372227D01*
X188781972Y-90399323D01*
X188759318Y-90424318D01*
X188734323Y-90446972D01*
X188707227Y-90467068D01*
X188678293Y-90484410D01*
X188647797Y-90498834D01*
X188616035Y-90510198D01*
X188583312Y-90518395D01*
X188549943Y-90523345D01*
X188516250Y-90525000D01*
X187403750Y-90525000D01*
X187370057Y-90523345D01*
X187336688Y-90518395D01*
X187303965Y-90510198D01*
X187272203Y-90498834D01*
X187241707Y-90484410D01*
X187212773Y-90467068D01*
X187185677Y-90446972D01*
X187160682Y-90424318D01*
X187138028Y-90399323D01*
X187117932Y-90372227D01*
X187100590Y-90343293D01*
X187086166Y-90312797D01*
X187074802Y-90281035D01*
X187066605Y-90248312D01*
X187061655Y-90214943D01*
X187060000Y-90181250D01*
X187060000Y-89493750D01*
X187061655Y-89460057D01*
X187066605Y-89426688D01*
X187074802Y-89393965D01*
X187086166Y-89362203D01*
X187100590Y-89331707D01*
X187117932Y-89302773D01*
X187138028Y-89275677D01*
X187160682Y-89250682D01*
X187185677Y-89228028D01*
X187212773Y-89207932D01*
X187241707Y-89190590D01*
X187272203Y-89176166D01*
X187303965Y-89164802D01*
X187336688Y-89156605D01*
X187370057Y-89151655D01*
X187403750Y-89150000D01*
X188516250Y-89150000D01*
X188549943Y-89151655D01*
X188549943Y-89151655D01*
G37*
D18*
X187960000Y-89837500D03*
D15*
G36*
X182319943Y-91811655D02*
X182353312Y-91816605D01*
X182386035Y-91824802D01*
X182417797Y-91836166D01*
X182448293Y-91850590D01*
X182477227Y-91867932D01*
X182504323Y-91888028D01*
X182529318Y-91910682D01*
X182551972Y-91935677D01*
X182572068Y-91962773D01*
X182589410Y-91991707D01*
X182603834Y-92022203D01*
X182615198Y-92053965D01*
X182623395Y-92086688D01*
X182628345Y-92120057D01*
X182630000Y-92153750D01*
X182630000Y-93266250D01*
X182628345Y-93299943D01*
X182623395Y-93333312D01*
X182615198Y-93366035D01*
X182603834Y-93397797D01*
X182589410Y-93428293D01*
X182572068Y-93457227D01*
X182551972Y-93484323D01*
X182529318Y-93509318D01*
X182504323Y-93531972D01*
X182477227Y-93552068D01*
X182448293Y-93569410D01*
X182417797Y-93583834D01*
X182386035Y-93595198D01*
X182353312Y-93603395D01*
X182319943Y-93608345D01*
X182286250Y-93610000D01*
X181598750Y-93610000D01*
X181565057Y-93608345D01*
X181531688Y-93603395D01*
X181498965Y-93595198D01*
X181467203Y-93583834D01*
X181436707Y-93569410D01*
X181407773Y-93552068D01*
X181380677Y-93531972D01*
X181355682Y-93509318D01*
X181333028Y-93484323D01*
X181312932Y-93457227D01*
X181295590Y-93428293D01*
X181281166Y-93397797D01*
X181269802Y-93366035D01*
X181261605Y-93333312D01*
X181256655Y-93299943D01*
X181255000Y-93266250D01*
X181255000Y-92153750D01*
X181256655Y-92120057D01*
X181261605Y-92086688D01*
X181269802Y-92053965D01*
X181281166Y-92022203D01*
X181295590Y-91991707D01*
X181312932Y-91962773D01*
X181333028Y-91935677D01*
X181355682Y-91910682D01*
X181380677Y-91888028D01*
X181407773Y-91867932D01*
X181436707Y-91850590D01*
X181467203Y-91836166D01*
X181498965Y-91824802D01*
X181531688Y-91816605D01*
X181565057Y-91811655D01*
X181598750Y-91810000D01*
X182286250Y-91810000D01*
X182319943Y-91811655D01*
X182319943Y-91811655D01*
G37*
D18*
X181942500Y-92710000D03*
D15*
G36*
X184194943Y-91811655D02*
X184228312Y-91816605D01*
X184261035Y-91824802D01*
X184292797Y-91836166D01*
X184323293Y-91850590D01*
X184352227Y-91867932D01*
X184379323Y-91888028D01*
X184404318Y-91910682D01*
X184426972Y-91935677D01*
X184447068Y-91962773D01*
X184464410Y-91991707D01*
X184478834Y-92022203D01*
X184490198Y-92053965D01*
X184498395Y-92086688D01*
X184503345Y-92120057D01*
X184505000Y-92153750D01*
X184505000Y-93266250D01*
X184503345Y-93299943D01*
X184498395Y-93333312D01*
X184490198Y-93366035D01*
X184478834Y-93397797D01*
X184464410Y-93428293D01*
X184447068Y-93457227D01*
X184426972Y-93484323D01*
X184404318Y-93509318D01*
X184379323Y-93531972D01*
X184352227Y-93552068D01*
X184323293Y-93569410D01*
X184292797Y-93583834D01*
X184261035Y-93595198D01*
X184228312Y-93603395D01*
X184194943Y-93608345D01*
X184161250Y-93610000D01*
X183473750Y-93610000D01*
X183440057Y-93608345D01*
X183406688Y-93603395D01*
X183373965Y-93595198D01*
X183342203Y-93583834D01*
X183311707Y-93569410D01*
X183282773Y-93552068D01*
X183255677Y-93531972D01*
X183230682Y-93509318D01*
X183208028Y-93484323D01*
X183187932Y-93457227D01*
X183170590Y-93428293D01*
X183156166Y-93397797D01*
X183144802Y-93366035D01*
X183136605Y-93333312D01*
X183131655Y-93299943D01*
X183130000Y-93266250D01*
X183130000Y-92153750D01*
X183131655Y-92120057D01*
X183136605Y-92086688D01*
X183144802Y-92053965D01*
X183156166Y-92022203D01*
X183170590Y-91991707D01*
X183187932Y-91962773D01*
X183208028Y-91935677D01*
X183230682Y-91910682D01*
X183255677Y-91888028D01*
X183282773Y-91867932D01*
X183311707Y-91850590D01*
X183342203Y-91836166D01*
X183373965Y-91824802D01*
X183406688Y-91816605D01*
X183440057Y-91811655D01*
X183473750Y-91810000D01*
X184161250Y-91810000D01*
X184194943Y-91811655D01*
X184194943Y-91811655D01*
G37*
D18*
X183817500Y-92710000D03*
D15*
G36*
X105745943Y-71879655D02*
X105779312Y-71884605D01*
X105812035Y-71892802D01*
X105843797Y-71904166D01*
X105874293Y-71918590D01*
X105903227Y-71935932D01*
X105930323Y-71956028D01*
X105955318Y-71978682D01*
X105977972Y-72003677D01*
X105998068Y-72030773D01*
X106015410Y-72059707D01*
X106029834Y-72090203D01*
X106041198Y-72121965D01*
X106049395Y-72154688D01*
X106054345Y-72188057D01*
X106056000Y-72221750D01*
X106056000Y-72909250D01*
X106054345Y-72942943D01*
X106049395Y-72976312D01*
X106041198Y-73009035D01*
X106029834Y-73040797D01*
X106015410Y-73071293D01*
X105998068Y-73100227D01*
X105977972Y-73127323D01*
X105955318Y-73152318D01*
X105930323Y-73174972D01*
X105903227Y-73195068D01*
X105874293Y-73212410D01*
X105843797Y-73226834D01*
X105812035Y-73238198D01*
X105779312Y-73246395D01*
X105745943Y-73251345D01*
X105712250Y-73253000D01*
X104599750Y-73253000D01*
X104566057Y-73251345D01*
X104532688Y-73246395D01*
X104499965Y-73238198D01*
X104468203Y-73226834D01*
X104437707Y-73212410D01*
X104408773Y-73195068D01*
X104381677Y-73174972D01*
X104356682Y-73152318D01*
X104334028Y-73127323D01*
X104313932Y-73100227D01*
X104296590Y-73071293D01*
X104282166Y-73040797D01*
X104270802Y-73009035D01*
X104262605Y-72976312D01*
X104257655Y-72942943D01*
X104256000Y-72909250D01*
X104256000Y-72221750D01*
X104257655Y-72188057D01*
X104262605Y-72154688D01*
X104270802Y-72121965D01*
X104282166Y-72090203D01*
X104296590Y-72059707D01*
X104313932Y-72030773D01*
X104334028Y-72003677D01*
X104356682Y-71978682D01*
X104381677Y-71956028D01*
X104408773Y-71935932D01*
X104437707Y-71918590D01*
X104468203Y-71904166D01*
X104499965Y-71892802D01*
X104532688Y-71884605D01*
X104566057Y-71879655D01*
X104599750Y-71878000D01*
X105712250Y-71878000D01*
X105745943Y-71879655D01*
X105745943Y-71879655D01*
G37*
D18*
X105156000Y-72565500D03*
D15*
G36*
X105745943Y-70004655D02*
X105779312Y-70009605D01*
X105812035Y-70017802D01*
X105843797Y-70029166D01*
X105874293Y-70043590D01*
X105903227Y-70060932D01*
X105930323Y-70081028D01*
X105955318Y-70103682D01*
X105977972Y-70128677D01*
X105998068Y-70155773D01*
X106015410Y-70184707D01*
X106029834Y-70215203D01*
X106041198Y-70246965D01*
X106049395Y-70279688D01*
X106054345Y-70313057D01*
X106056000Y-70346750D01*
X106056000Y-71034250D01*
X106054345Y-71067943D01*
X106049395Y-71101312D01*
X106041198Y-71134035D01*
X106029834Y-71165797D01*
X106015410Y-71196293D01*
X105998068Y-71225227D01*
X105977972Y-71252323D01*
X105955318Y-71277318D01*
X105930323Y-71299972D01*
X105903227Y-71320068D01*
X105874293Y-71337410D01*
X105843797Y-71351834D01*
X105812035Y-71363198D01*
X105779312Y-71371395D01*
X105745943Y-71376345D01*
X105712250Y-71378000D01*
X104599750Y-71378000D01*
X104566057Y-71376345D01*
X104532688Y-71371395D01*
X104499965Y-71363198D01*
X104468203Y-71351834D01*
X104437707Y-71337410D01*
X104408773Y-71320068D01*
X104381677Y-71299972D01*
X104356682Y-71277318D01*
X104334028Y-71252323D01*
X104313932Y-71225227D01*
X104296590Y-71196293D01*
X104282166Y-71165797D01*
X104270802Y-71134035D01*
X104262605Y-71101312D01*
X104257655Y-71067943D01*
X104256000Y-71034250D01*
X104256000Y-70346750D01*
X104257655Y-70313057D01*
X104262605Y-70279688D01*
X104270802Y-70246965D01*
X104282166Y-70215203D01*
X104296590Y-70184707D01*
X104313932Y-70155773D01*
X104334028Y-70128677D01*
X104356682Y-70103682D01*
X104381677Y-70081028D01*
X104408773Y-70060932D01*
X104437707Y-70043590D01*
X104468203Y-70029166D01*
X104499965Y-70017802D01*
X104532688Y-70009605D01*
X104566057Y-70004655D01*
X104599750Y-70003000D01*
X105712250Y-70003000D01*
X105745943Y-70004655D01*
X105745943Y-70004655D01*
G37*
D18*
X105156000Y-70690500D03*
D15*
G36*
X188549943Y-91086655D02*
X188583312Y-91091605D01*
X188616035Y-91099802D01*
X188647797Y-91111166D01*
X188678293Y-91125590D01*
X188707227Y-91142932D01*
X188734323Y-91163028D01*
X188759318Y-91185682D01*
X188781972Y-91210677D01*
X188802068Y-91237773D01*
X188819410Y-91266707D01*
X188833834Y-91297203D01*
X188845198Y-91328965D01*
X188853395Y-91361688D01*
X188858345Y-91395057D01*
X188860000Y-91428750D01*
X188860000Y-92116250D01*
X188858345Y-92149943D01*
X188853395Y-92183312D01*
X188845198Y-92216035D01*
X188833834Y-92247797D01*
X188819410Y-92278293D01*
X188802068Y-92307227D01*
X188781972Y-92334323D01*
X188759318Y-92359318D01*
X188734323Y-92381972D01*
X188707227Y-92402068D01*
X188678293Y-92419410D01*
X188647797Y-92433834D01*
X188616035Y-92445198D01*
X188583312Y-92453395D01*
X188549943Y-92458345D01*
X188516250Y-92460000D01*
X187403750Y-92460000D01*
X187370057Y-92458345D01*
X187336688Y-92453395D01*
X187303965Y-92445198D01*
X187272203Y-92433834D01*
X187241707Y-92419410D01*
X187212773Y-92402068D01*
X187185677Y-92381972D01*
X187160682Y-92359318D01*
X187138028Y-92334323D01*
X187117932Y-92307227D01*
X187100590Y-92278293D01*
X187086166Y-92247797D01*
X187074802Y-92216035D01*
X187066605Y-92183312D01*
X187061655Y-92149943D01*
X187060000Y-92116250D01*
X187060000Y-91428750D01*
X187061655Y-91395057D01*
X187066605Y-91361688D01*
X187074802Y-91328965D01*
X187086166Y-91297203D01*
X187100590Y-91266707D01*
X187117932Y-91237773D01*
X187138028Y-91210677D01*
X187160682Y-91185682D01*
X187185677Y-91163028D01*
X187212773Y-91142932D01*
X187241707Y-91125590D01*
X187272203Y-91111166D01*
X187303965Y-91099802D01*
X187336688Y-91091605D01*
X187370057Y-91086655D01*
X187403750Y-91085000D01*
X188516250Y-91085000D01*
X188549943Y-91086655D01*
X188549943Y-91086655D01*
G37*
D18*
X187960000Y-91772500D03*
D15*
G36*
X188549943Y-92961655D02*
X188583312Y-92966605D01*
X188616035Y-92974802D01*
X188647797Y-92986166D01*
X188678293Y-93000590D01*
X188707227Y-93017932D01*
X188734323Y-93038028D01*
X188759318Y-93060682D01*
X188781972Y-93085677D01*
X188802068Y-93112773D01*
X188819410Y-93141707D01*
X188833834Y-93172203D01*
X188845198Y-93203965D01*
X188853395Y-93236688D01*
X188858345Y-93270057D01*
X188860000Y-93303750D01*
X188860000Y-93991250D01*
X188858345Y-94024943D01*
X188853395Y-94058312D01*
X188845198Y-94091035D01*
X188833834Y-94122797D01*
X188819410Y-94153293D01*
X188802068Y-94182227D01*
X188781972Y-94209323D01*
X188759318Y-94234318D01*
X188734323Y-94256972D01*
X188707227Y-94277068D01*
X188678293Y-94294410D01*
X188647797Y-94308834D01*
X188616035Y-94320198D01*
X188583312Y-94328395D01*
X188549943Y-94333345D01*
X188516250Y-94335000D01*
X187403750Y-94335000D01*
X187370057Y-94333345D01*
X187336688Y-94328395D01*
X187303965Y-94320198D01*
X187272203Y-94308834D01*
X187241707Y-94294410D01*
X187212773Y-94277068D01*
X187185677Y-94256972D01*
X187160682Y-94234318D01*
X187138028Y-94209323D01*
X187117932Y-94182227D01*
X187100590Y-94153293D01*
X187086166Y-94122797D01*
X187074802Y-94091035D01*
X187066605Y-94058312D01*
X187061655Y-94024943D01*
X187060000Y-93991250D01*
X187060000Y-93303750D01*
X187061655Y-93270057D01*
X187066605Y-93236688D01*
X187074802Y-93203965D01*
X187086166Y-93172203D01*
X187100590Y-93141707D01*
X187117932Y-93112773D01*
X187138028Y-93085677D01*
X187160682Y-93060682D01*
X187185677Y-93038028D01*
X187212773Y-93017932D01*
X187241707Y-93000590D01*
X187272203Y-92986166D01*
X187303965Y-92974802D01*
X187336688Y-92966605D01*
X187370057Y-92961655D01*
X187403750Y-92960000D01*
X188516250Y-92960000D01*
X188549943Y-92961655D01*
X188549943Y-92961655D01*
G37*
D18*
X187960000Y-93647500D03*
D15*
G36*
X152444943Y-46726655D02*
X152478312Y-46731605D01*
X152511035Y-46739802D01*
X152542797Y-46751166D01*
X152573293Y-46765590D01*
X152602227Y-46782932D01*
X152629323Y-46803028D01*
X152654318Y-46825682D01*
X152676972Y-46850677D01*
X152697068Y-46877773D01*
X152714410Y-46906707D01*
X152728834Y-46937203D01*
X152740198Y-46968965D01*
X152748395Y-47001688D01*
X152753345Y-47035057D01*
X152755000Y-47068750D01*
X152755000Y-48181250D01*
X152753345Y-48214943D01*
X152748395Y-48248312D01*
X152740198Y-48281035D01*
X152728834Y-48312797D01*
X152714410Y-48343293D01*
X152697068Y-48372227D01*
X152676972Y-48399323D01*
X152654318Y-48424318D01*
X152629323Y-48446972D01*
X152602227Y-48467068D01*
X152573293Y-48484410D01*
X152542797Y-48498834D01*
X152511035Y-48510198D01*
X152478312Y-48518395D01*
X152444943Y-48523345D01*
X152411250Y-48525000D01*
X151723750Y-48525000D01*
X151690057Y-48523345D01*
X151656688Y-48518395D01*
X151623965Y-48510198D01*
X151592203Y-48498834D01*
X151561707Y-48484410D01*
X151532773Y-48467068D01*
X151505677Y-48446972D01*
X151480682Y-48424318D01*
X151458028Y-48399323D01*
X151437932Y-48372227D01*
X151420590Y-48343293D01*
X151406166Y-48312797D01*
X151394802Y-48281035D01*
X151386605Y-48248312D01*
X151381655Y-48214943D01*
X151380000Y-48181250D01*
X151380000Y-47068750D01*
X151381655Y-47035057D01*
X151386605Y-47001688D01*
X151394802Y-46968965D01*
X151406166Y-46937203D01*
X151420590Y-46906707D01*
X151437932Y-46877773D01*
X151458028Y-46850677D01*
X151480682Y-46825682D01*
X151505677Y-46803028D01*
X151532773Y-46782932D01*
X151561707Y-46765590D01*
X151592203Y-46751166D01*
X151623965Y-46739802D01*
X151656688Y-46731605D01*
X151690057Y-46726655D01*
X151723750Y-46725000D01*
X152411250Y-46725000D01*
X152444943Y-46726655D01*
X152444943Y-46726655D01*
G37*
D18*
X152067500Y-47625000D03*
D15*
G36*
X150569943Y-46726655D02*
X150603312Y-46731605D01*
X150636035Y-46739802D01*
X150667797Y-46751166D01*
X150698293Y-46765590D01*
X150727227Y-46782932D01*
X150754323Y-46803028D01*
X150779318Y-46825682D01*
X150801972Y-46850677D01*
X150822068Y-46877773D01*
X150839410Y-46906707D01*
X150853834Y-46937203D01*
X150865198Y-46968965D01*
X150873395Y-47001688D01*
X150878345Y-47035057D01*
X150880000Y-47068750D01*
X150880000Y-48181250D01*
X150878345Y-48214943D01*
X150873395Y-48248312D01*
X150865198Y-48281035D01*
X150853834Y-48312797D01*
X150839410Y-48343293D01*
X150822068Y-48372227D01*
X150801972Y-48399323D01*
X150779318Y-48424318D01*
X150754323Y-48446972D01*
X150727227Y-48467068D01*
X150698293Y-48484410D01*
X150667797Y-48498834D01*
X150636035Y-48510198D01*
X150603312Y-48518395D01*
X150569943Y-48523345D01*
X150536250Y-48525000D01*
X149848750Y-48525000D01*
X149815057Y-48523345D01*
X149781688Y-48518395D01*
X149748965Y-48510198D01*
X149717203Y-48498834D01*
X149686707Y-48484410D01*
X149657773Y-48467068D01*
X149630677Y-48446972D01*
X149605682Y-48424318D01*
X149583028Y-48399323D01*
X149562932Y-48372227D01*
X149545590Y-48343293D01*
X149531166Y-48312797D01*
X149519802Y-48281035D01*
X149511605Y-48248312D01*
X149506655Y-48214943D01*
X149505000Y-48181250D01*
X149505000Y-47068750D01*
X149506655Y-47035057D01*
X149511605Y-47001688D01*
X149519802Y-46968965D01*
X149531166Y-46937203D01*
X149545590Y-46906707D01*
X149562932Y-46877773D01*
X149583028Y-46850677D01*
X149605682Y-46825682D01*
X149630677Y-46803028D01*
X149657773Y-46782932D01*
X149686707Y-46765590D01*
X149717203Y-46751166D01*
X149748965Y-46739802D01*
X149781688Y-46731605D01*
X149815057Y-46726655D01*
X149848750Y-46725000D01*
X150536250Y-46725000D01*
X150569943Y-46726655D01*
X150569943Y-46726655D01*
G37*
D18*
X150192500Y-47625000D03*
D15*
G36*
X105491943Y-47749655D02*
X105525312Y-47754605D01*
X105558035Y-47762802D01*
X105589797Y-47774166D01*
X105620293Y-47788590D01*
X105649227Y-47805932D01*
X105676323Y-47826028D01*
X105701318Y-47848682D01*
X105723972Y-47873677D01*
X105744068Y-47900773D01*
X105761410Y-47929707D01*
X105775834Y-47960203D01*
X105787198Y-47991965D01*
X105795395Y-48024688D01*
X105800345Y-48058057D01*
X105802000Y-48091750D01*
X105802000Y-48779250D01*
X105800345Y-48812943D01*
X105795395Y-48846312D01*
X105787198Y-48879035D01*
X105775834Y-48910797D01*
X105761410Y-48941293D01*
X105744068Y-48970227D01*
X105723972Y-48997323D01*
X105701318Y-49022318D01*
X105676323Y-49044972D01*
X105649227Y-49065068D01*
X105620293Y-49082410D01*
X105589797Y-49096834D01*
X105558035Y-49108198D01*
X105525312Y-49116395D01*
X105491943Y-49121345D01*
X105458250Y-49123000D01*
X104345750Y-49123000D01*
X104312057Y-49121345D01*
X104278688Y-49116395D01*
X104245965Y-49108198D01*
X104214203Y-49096834D01*
X104183707Y-49082410D01*
X104154773Y-49065068D01*
X104127677Y-49044972D01*
X104102682Y-49022318D01*
X104080028Y-48997323D01*
X104059932Y-48970227D01*
X104042590Y-48941293D01*
X104028166Y-48910797D01*
X104016802Y-48879035D01*
X104008605Y-48846312D01*
X104003655Y-48812943D01*
X104002000Y-48779250D01*
X104002000Y-48091750D01*
X104003655Y-48058057D01*
X104008605Y-48024688D01*
X104016802Y-47991965D01*
X104028166Y-47960203D01*
X104042590Y-47929707D01*
X104059932Y-47900773D01*
X104080028Y-47873677D01*
X104102682Y-47848682D01*
X104127677Y-47826028D01*
X104154773Y-47805932D01*
X104183707Y-47788590D01*
X104214203Y-47774166D01*
X104245965Y-47762802D01*
X104278688Y-47754605D01*
X104312057Y-47749655D01*
X104345750Y-47748000D01*
X105458250Y-47748000D01*
X105491943Y-47749655D01*
X105491943Y-47749655D01*
G37*
D18*
X104902000Y-48435500D03*
D15*
G36*
X105491943Y-45874655D02*
X105525312Y-45879605D01*
X105558035Y-45887802D01*
X105589797Y-45899166D01*
X105620293Y-45913590D01*
X105649227Y-45930932D01*
X105676323Y-45951028D01*
X105701318Y-45973682D01*
X105723972Y-45998677D01*
X105744068Y-46025773D01*
X105761410Y-46054707D01*
X105775834Y-46085203D01*
X105787198Y-46116965D01*
X105795395Y-46149688D01*
X105800345Y-46183057D01*
X105802000Y-46216750D01*
X105802000Y-46904250D01*
X105800345Y-46937943D01*
X105795395Y-46971312D01*
X105787198Y-47004035D01*
X105775834Y-47035797D01*
X105761410Y-47066293D01*
X105744068Y-47095227D01*
X105723972Y-47122323D01*
X105701318Y-47147318D01*
X105676323Y-47169972D01*
X105649227Y-47190068D01*
X105620293Y-47207410D01*
X105589797Y-47221834D01*
X105558035Y-47233198D01*
X105525312Y-47241395D01*
X105491943Y-47246345D01*
X105458250Y-47248000D01*
X104345750Y-47248000D01*
X104312057Y-47246345D01*
X104278688Y-47241395D01*
X104245965Y-47233198D01*
X104214203Y-47221834D01*
X104183707Y-47207410D01*
X104154773Y-47190068D01*
X104127677Y-47169972D01*
X104102682Y-47147318D01*
X104080028Y-47122323D01*
X104059932Y-47095227D01*
X104042590Y-47066293D01*
X104028166Y-47035797D01*
X104016802Y-47004035D01*
X104008605Y-46971312D01*
X104003655Y-46937943D01*
X104002000Y-46904250D01*
X104002000Y-46216750D01*
X104003655Y-46183057D01*
X104008605Y-46149688D01*
X104016802Y-46116965D01*
X104028166Y-46085203D01*
X104042590Y-46054707D01*
X104059932Y-46025773D01*
X104080028Y-45998677D01*
X104102682Y-45973682D01*
X104127677Y-45951028D01*
X104154773Y-45930932D01*
X104183707Y-45913590D01*
X104214203Y-45899166D01*
X104245965Y-45887802D01*
X104278688Y-45879605D01*
X104312057Y-45874655D01*
X104345750Y-45873000D01*
X105458250Y-45873000D01*
X105491943Y-45874655D01*
X105491943Y-45874655D01*
G37*
D18*
X104902000Y-46560500D03*
D15*
G36*
X193814340Y-79211605D02*
X193846698Y-79216405D01*
X193878429Y-79224353D01*
X193909229Y-79235373D01*
X193938800Y-79249359D01*
X193966857Y-79266177D01*
X193993132Y-79285663D01*
X194017369Y-79307631D01*
X194039337Y-79331868D01*
X194058823Y-79358143D01*
X194075641Y-79386200D01*
X194089627Y-79415771D01*
X194100647Y-79446571D01*
X194108595Y-79478302D01*
X194113395Y-79510660D01*
X194115000Y-79543332D01*
X194115000Y-80476668D01*
X194113395Y-80509340D01*
X194108595Y-80541698D01*
X194100647Y-80573429D01*
X194089627Y-80604229D01*
X194075641Y-80633800D01*
X194058823Y-80661857D01*
X194039337Y-80688132D01*
X194017369Y-80712369D01*
X193993132Y-80734337D01*
X193966857Y-80753823D01*
X193938800Y-80770641D01*
X193909229Y-80784627D01*
X193878429Y-80795647D01*
X193846698Y-80803595D01*
X193814340Y-80808395D01*
X193781668Y-80810000D01*
X192298332Y-80810000D01*
X192265660Y-80808395D01*
X192233302Y-80803595D01*
X192201571Y-80795647D01*
X192170771Y-80784627D01*
X192141200Y-80770641D01*
X192113143Y-80753823D01*
X192086868Y-80734337D01*
X192062631Y-80712369D01*
X192040663Y-80688132D01*
X192021177Y-80661857D01*
X192004359Y-80633800D01*
X191990373Y-80604229D01*
X191979353Y-80573429D01*
X191971405Y-80541698D01*
X191966605Y-80509340D01*
X191965000Y-80476668D01*
X191965000Y-79543332D01*
X191966605Y-79510660D01*
X191971405Y-79478302D01*
X191979353Y-79446571D01*
X191990373Y-79415771D01*
X192004359Y-79386200D01*
X192021177Y-79358143D01*
X192040663Y-79331868D01*
X192062631Y-79307631D01*
X192086868Y-79285663D01*
X192113143Y-79266177D01*
X192141200Y-79249359D01*
X192170771Y-79235373D01*
X192201571Y-79224353D01*
X192233302Y-79216405D01*
X192265660Y-79211605D01*
X192298332Y-79210000D01*
X193781668Y-79210000D01*
X193814340Y-79211605D01*
X193814340Y-79211605D01*
G37*
D16*
X193040000Y-80010000D03*
D17*
X193040000Y-78010000D03*
D15*
G36*
X193814340Y-52541605D02*
X193846698Y-52546405D01*
X193878429Y-52554353D01*
X193909229Y-52565373D01*
X193938800Y-52579359D01*
X193966857Y-52596177D01*
X193993132Y-52615663D01*
X194017369Y-52637631D01*
X194039337Y-52661868D01*
X194058823Y-52688143D01*
X194075641Y-52716200D01*
X194089627Y-52745771D01*
X194100647Y-52776571D01*
X194108595Y-52808302D01*
X194113395Y-52840660D01*
X194115000Y-52873332D01*
X194115000Y-53806668D01*
X194113395Y-53839340D01*
X194108595Y-53871698D01*
X194100647Y-53903429D01*
X194089627Y-53934229D01*
X194075641Y-53963800D01*
X194058823Y-53991857D01*
X194039337Y-54018132D01*
X194017369Y-54042369D01*
X193993132Y-54064337D01*
X193966857Y-54083823D01*
X193938800Y-54100641D01*
X193909229Y-54114627D01*
X193878429Y-54125647D01*
X193846698Y-54133595D01*
X193814340Y-54138395D01*
X193781668Y-54140000D01*
X192298332Y-54140000D01*
X192265660Y-54138395D01*
X192233302Y-54133595D01*
X192201571Y-54125647D01*
X192170771Y-54114627D01*
X192141200Y-54100641D01*
X192113143Y-54083823D01*
X192086868Y-54064337D01*
X192062631Y-54042369D01*
X192040663Y-54018132D01*
X192021177Y-53991857D01*
X192004359Y-53963800D01*
X191990373Y-53934229D01*
X191979353Y-53903429D01*
X191971405Y-53871698D01*
X191966605Y-53839340D01*
X191965000Y-53806668D01*
X191965000Y-52873332D01*
X191966605Y-52840660D01*
X191971405Y-52808302D01*
X191979353Y-52776571D01*
X191990373Y-52745771D01*
X192004359Y-52716200D01*
X192021177Y-52688143D01*
X192040663Y-52661868D01*
X192062631Y-52637631D01*
X192086868Y-52615663D01*
X192113143Y-52596177D01*
X192141200Y-52579359D01*
X192170771Y-52565373D01*
X192201571Y-52554353D01*
X192233302Y-52546405D01*
X192265660Y-52541605D01*
X192298332Y-52540000D01*
X193781668Y-52540000D01*
X193814340Y-52541605D01*
X193814340Y-52541605D01*
G37*
D16*
X193040000Y-53340000D03*
D17*
X193040000Y-51340000D03*
D26*
X157230000Y-58010000D03*
X156580000Y-58010000D03*
X155930000Y-58010000D03*
X155280000Y-58010000D03*
X154630000Y-58010000D03*
X153980000Y-58010000D03*
X153330000Y-58010000D03*
X152680000Y-58010000D03*
X152030000Y-58010000D03*
X151380000Y-58010000D03*
X151380000Y-63910000D03*
X152030000Y-63910000D03*
X152680000Y-63910000D03*
X153330000Y-63910000D03*
X153980000Y-63910000D03*
X154630000Y-63910000D03*
X155280000Y-63910000D03*
X155930000Y-63910000D03*
X156580000Y-63910000D03*
X157230000Y-63910000D03*
D14*
X131191000Y-93980000D03*
M02*
